<?xml version="1.0" encoding="UTF-8" standalone="no"?>
<!-- Created with Inkscape (http://www.inkscape.org/) -->

<svg
   xmlns:dc="http://purl.org/dc/elements/1.1/"
   xmlns:cc="http://creativecommons.org/ns#"
   xmlns:rdf="http://www.w3.org/1999/02/22-rdf-syntax-ns#"
   xmlns:svg="http://www.w3.org/2000/svg"
   xmlns="http://www.w3.org/2000/svg"
   xmlns:xlink="http://www.w3.org/1999/xlink"
   xmlns:sodipodi="http://sodipodi.sourceforge.net/DTD/sodipodi-0.dtd"
   xmlns:inkscape="http://www.inkscape.org/namespaces/inkscape"
   width="512mm"
   height="512mm"
   viewBox="0 0 512.00001 512.00001"
   version="1.1"
   id="svg8"
   sodipodi:docname="log.svg"
   inkscape:version="0.92.2 (5c3e80d, 2017-08-06)"
   enable-background="new"
   inkscape:export-filename="/home/vm/Desktop/log.png"
   inkscape:export-xdpi="25.4"
   inkscape:export-ydpi="25.4">
  <defs
     id="defs2">
    <linearGradient
       inkscape:collect="always"
       id="linearGradient1440">
      <stop
         style="stop-color:#7e7e7e;stop-opacity:1"
         offset="0"
         id="stop1436" />
      <stop
         id="stop1446"
         offset="0.20564342"
         style="stop-color:#c8c8c8;stop-opacity:1" />
      <stop
         id="stop1444"
         offset="0.80064237"
         style="stop-color:#c6c6c6;stop-opacity:1" />
      <stop
         style="stop-color:#7e7e7e;stop-opacity:1"
         offset="1"
         id="stop1438" />
    </linearGradient>
    <filter
       inkscape:menu-tooltip="Roughen all inside shapes"
       inkscape:menu="Distort"
       inkscape:label="Roughen Inside"
       style="color-interpolation-filters:sRGB"
       id="filter4330">
      <feGaussianBlur
         result="result1"
         stdDeviation="3"
         id="feGaussianBlur4308" />
      <feBlend
         in2="result1"
         result="result5"
         mode="multiply"
         in="result1"
         id="feBlend4310" />
      <feGaussianBlur
         in="result5"
         result="result6"
         stdDeviation="1"
         id="feGaussianBlur4312" />
      <feComposite
         result="result8"
         in2="result5"
         in="result6"
         operator="xor"
         id="feComposite4314" />
      <feComposite
         in="result6"
         result="fbSourceGraphic"
         operator="xor"
         in2="result8"
         id="feComposite4316" />
      <feSpecularLighting
         in="fbSourceGraphic"
         result="result1"
         lighting-color="#ffffff"
         surfaceScale="2"
         specularConstant="2.20000005"
         specularExponent="55"
         id="feSpecularLighting4320">
        <fePointLight
           x="-5000"
           y="-10000"
           z="20000"
           id="fePointLight4318" />
      </feSpecularLighting>
      <feComposite
         in2="fbSourceGraphic"
         in="result1"
         result="result2"
         operator="in"
         id="feComposite4322" />
      <feComposite
         in="fbSourceGraphic"
         result="result4"
         operator="arithmetic"
         k2="2"
         k3="1"
         in2="result2"
         id="feComposite4324"
         k1="0"
         k4="0" />
      <feComposite
         in2="result4"
         in="result4"
         operator="in"
         result="result91"
         id="feComposite4326" />
      <feBlend
         mode="darken"
         in2="result91"
         id="feBlend4328"
         result="fbSourceGraphic" />
      <feColorMatrix
         result="fbSourceGraphicAlpha"
         in="fbSourceGraphic"
         values="0 0 0 -1 0 0 0 0 -1 0 0 0 0 -1 0 0 0 0 1 0"
         id="feColorMatrix4382" />
      <feTurbulence
         id="feTurbulence4384"
         numOctaves="5"
         seed="0"
         type="fractalNoise"
         baseFrequency="0.08" />
      <feGaussianBlur
         id="feGaussianBlur4386"
         stdDeviation="0.5"
         result="result91" />
      <feDisplacementMap
         in2="result91"
         id="feDisplacementMap4388"
         scale="20"
         yChannelSelector="G"
         xChannelSelector="R"
         in="fbSourceGraphic"
         result="result1" />
      <feComposite
         in2="fbSourceGraphic"
         id="feComposite4390"
         in="result1"
         operator="atop" />
    </filter>
    <filter
       inkscape:label="Basic Diffuse Bump"
       inkscape:menu="Bumps"
       inkscape:menu-tooltip="Matte emboss effect"
       style="color-interpolation-filters:sRGB"
       id="filter4882">
      <feColorMatrix
         result="result2"
         type="luminanceToAlpha"
         in="SourceGraphic"
         id="feColorMatrix4872" />
      <feDiffuseLighting
         lighting-color="#ffffff"
         in="result2"
         diffuseConstant="0.5"
         result="result1"
         surfaceScale="15"
         id="feDiffuseLighting4876">
        <feDistantLight
           azimuth="225"
           elevation="10"
           id="feDistantLight4874" />
      </feDiffuseLighting>
      <feComposite
         result="result9"
         operator="arithmetic"
         k2="1"
         k3="0.8"
         in2="SourceGraphic"
         id="feComposite4878"
         k1="0"
         k4="0" />
      <feComposite
         in2="SourceGraphic"
         result="result7"
         operator="in"
         in="result9"
         id="feComposite4880" />
    </filter>
    <filter
       inkscape:label="Noise Fill"
       inkscape:menu="Distort"
       inkscape:menu-tooltip="Displace the outside of shapes and pictures without altering their content"
       height="1.4"
       y="-0.2"
       width="1.4"
       x="-0.2"
       style="color-interpolation-filters:sRGB"
       id="filter6610">
      <feTurbulence
         baseFrequency="0.05"
         numOctaves="5"
         type="fractalNoise"
         result="result91"
         id="feTurbulence6604" />
      <feDisplacementMap
         scale="25"
         result="result5"
         xChannelSelector="R"
         in="SourceGraphic"
         in2="result91"
         id="feDisplacementMap6606"
         yChannelSelector="A" />
      <feComposite
         in="SourceGraphic"
         operator="atop"
         in2="result5"
         id="feComposite6608"
         result="fbSourceGraphic" />
      <feColorMatrix
         result="fbSourceGraphicAlpha"
         in="fbSourceGraphic"
         values="0 0 0 -1 0 0 0 0 -1 0 0 0 0 -1 0 0 0 0 1 0"
         id="feColorMatrix6736" />
      <feTurbulence
         id="feTurbulence6738"
         type="fractalNoise"
         baseFrequency="0.0232 0.0408"
         numOctaves="5"
         seed="2"
         result="turbulence" />
      <feComposite
         in2="turbulence"
         id="feComposite6740"
         in="fbSourceGraphic"
         operator="in"
         result="composite1" />
      <feColorMatrix
         id="feColorMatrix6742"
         values="1 0 0 0 0 0 1 0 0 0 0 0 1 0 0 0 0 0 3.4 -1 "
         result="color" />
      <feFlood
         id="feFlood6744"
         flood-opacity="1"
         flood-color="rgb(141,109,52)"
         result="flood" />
      <feMerge
         id="feMerge6746"
         result="merge">
        <feMergeNode
           id="feMergeNode6748"
           in="flood" />
        <feMergeNode
           id="feMergeNode6750"
           in="color" />
      </feMerge>
      <feComposite
         in2="fbSourceGraphic"
         id="feComposite6752"
         operator="in"
         result="composite2" />
    </filter>
    <linearGradient
       inkscape:collect="always"
       xlink:href="#linearGradient1440"
       id="linearGradient1442"
       x1="228.70641"
       y1="-150.5788"
       x2="228.70641"
       y2="231.83044"
       gradientUnits="userSpaceOnUse" />
  </defs>
  <sodipodi:namedview
     id="base"
     pagecolor="#ffffff"
     bordercolor="#666666"
     borderopacity="1.0"
     inkscape:pageopacity="0.0"
     inkscape:pageshadow="2"
     inkscape:zoom="0.16"
     inkscape:cx="103.22975"
     inkscape:cy="968.59421"
     inkscape:document-units="mm"
     inkscape:current-layer="layer1"
     inkscape:document-rotation="0"
     showgrid="false"
     inkscape:window-width="1920"
     inkscape:window-height="913"
     inkscape:window-x="0"
     inkscape:window-y="0"
     inkscape:window-maximized="1"
     showguides="false"
     inkscape:guide-bbox="true"
     inkscape:snap-bbox="true"
     inkscape:bbox-nodes="false"
     inkscape:snap-bbox-edge-midpoints="false"
     inkscape:object-paths="false"
     inkscape:snap-global="false"
     inkscape:object-nodes="true"
     inkscape:snap-smooth-nodes="false"
     inkscape:bbox-paths="false"
     inkscape:snap-others="false">
    <sodipodi:guide
       position="779.148,664.35274"
       orientation="0,1"
       id="guide7075"
       inkscape:locked="false" />
    <sodipodi:guide
       position="689.65099,988.35246"
       orientation="0,1"
       id="guide7081"
       inkscape:locked="false" />
    <sodipodi:guide
       position="735.4968,473.20887"
       orientation="0,1"
       id="guide7088"
       inkscape:locked="false" />
    <sodipodi:guide
       position="734.59899,491.56005"
       orientation="0,1"
       id="guide7109"
       inkscape:locked="false" />
  </sodipodi:namedview>
  <metadata
     id="metadata5">
    <rdf:RDF>
      <cc:Work
         rdf:about="">
        <dc:format>image/svg+xml</dc:format>
        <dc:type
           rdf:resource="http://purl.org/dc/dcmitype/StillImage" />
        <dc:title />
      </cc:Work>
    </rdf:RDF>
  </metadata>
  <g
     inkscape:label="Layer 1"
     inkscape:groupmode="layer"
     id="layer1"
     transform="translate(0,215)">
    <g
       id="g1455"
       transform="matrix(1.0493725,0,0,1.2068047,-12.63937,-8.4789906)">
      <path
         inkscape:connector-curvature="0"
         id="path1388"
         d="m 197.82842,-151.24103 c -34.453,3.1e-4 -62.31913,34.53242 -62.31913,77.226902 v 224.887688 5.14056 H 23.314883 19.167097 c 0,42.6945 27.866152,77.22656 62.319109,77.2269 H 197.82842 314.17061 c 34.45324,0 62.31962,-34.53221 62.31962,-77.2269 V -68.873564 h 116.34269 v -5.140564 c 0,-42.694692 -27.86637,-77.226902 -62.31961,-77.226902 H 314.17061 197.84714 Z m 0,10.28112 h 0.0187 116.32347 94.66309 c -20.20962,10.008 -34.75522,33.6227 -36.34341,61.805219 h -4.29659 V 156.01412 c 0,37.17693 -24.0225,66.94578 -54.02309,66.94578 h -21.6796 c -21.4273,-10.61101 -36.49124,-36.51666 -36.49124,-66.94578 0,2.97133 -0.14661,5.89832 -0.42577,8.77341 l 0.42577,-8.77341 H 143.80582 V -74.014128 c 0,-37.176742 24.02224,-66.945482 54.0226,-66.945782 z"
         style="color:#000000;font-style:normal;font-variant:normal;font-weight:normal;font-stretch:normal;font-size:medium;line-height:normal;font-family:sans-serif;font-variant-ligatures:normal;font-variant-position:normal;font-variant-caps:normal;font-variant-numeric:normal;font-variant-alternates:normal;font-feature-settings:normal;text-indent:0;text-align:start;text-decoration:none;text-decoration-line:none;text-decoration-style:solid;text-decoration-color:#000000;letter-spacing:normal;word-spacing:normal;text-transform:none;writing-mode:lr-tb;direction:ltr;text-orientation:mixed;dominant-baseline:auto;baseline-shift:baseline;text-anchor:start;white-space:normal;shape-padding:0;clip-rule:nonzero;display:inline;overflow:visible;visibility:visible;opacity:1;isolation:auto;mix-blend-mode:normal;color-interpolation:sRGB;color-interpolation-filters:linearRGB;solid-color:#000000;solid-opacity:1;vector-effect:none;fill:url(#linearGradient1442);fill-opacity:1;fill-rule:nonzero;stroke:none;stroke-width:9.23541832;stroke-linecap:butt;stroke-linejoin:miter;stroke-miterlimit:4;stroke-dasharray:none;stroke-dashoffset:0;stroke-opacity:1;color-rendering:auto;image-rendering:auto;shape-rendering:auto;text-rendering:auto;enable-background:accumulate" />
      <path
         inkscape:connector-curvature="0"
         id="rect1205"
         d="m 197.82842,-146.10047 c -32.22668,3.2e-4 -58.17087,32.15073 -58.17087,72.086342 V 156.01412 h 116.34222 c 0,0.008 0,0.0163 0,0.0244 0,-0.008 0,-0.0163 0,-0.0244 0,6.86397 0.76631,13.49788 2.1993,19.77815 0.39083,1.71281 0.83125,3.39924 1.31919,5.05693 0.48796,1.65765 1.02348,3.28652 1.60451,4.88405 1.54944,4.26011 3.42271,8.2973 5.58129,12.06428 0.80947,1.4126 1.65901,2.7873 2.54673,4.12135 0.88769,1.33409 1.81347,2.62784 2.77537,3.87832 0.32063,0.41684 0.64565,0.82883 0.97423,1.23598 0.3285,0.40708 0.66061,0.80944 0.99691,1.20668 7e-5,9e-5 0,-1e-4 0,0 0.3363,0.39723 0.67615,0.79015 1.02007,1.17735 8e-5,1.2e-4 0,-1e-4 0,0 0.34394,0.3872 0.69182,0.76923 1.04324,1.14624 0.703,0.75417 1.42091,1.48801 2.15297,2.20022 0.36605,0.35608 0.7352,0.70682 1.10828,1.05216 1.1e-4,9e-5 0,-1e-4 0,0 0.37299,0.34524 0.74961,0.68553 1.12948,1.0198 1.89986,1.67185 3.88501,3.2052 5.94595,4.58915 0.41219,0.27677 0.82708,0.54747 1.24528,0.81217 1.2e-4,9e-5 0,-7e-5 0,0 0.41804,0.26463 0.83912,0.52376 1.26302,0.77614 7.63241,4.54426 16.19931,7.08737 25.26313,7.08737 32.22691,0 58.17135,-32.15053 58.17135,-72.08634 V -74.014128 c 0,-39.935802 25.94444,-72.086342 58.17135,-72.086342 H 314.16872 197.84525 Z m 58.17135,302.11459 -0.42577,8.77341 c 0.0639,-0.65852 0.12015,-1.3202 0.17001,-1.98404 0.0139,-0.18703 0.0271,-0.37441 0.0399,-0.56182 0.0262,-0.38004 0.05,-0.76083 0.0715,-1.14255 0.0184,-0.32983 0.0354,-0.66009 0.0503,-0.9911 0.01,-0.20992 0.0189,-0.41984 0.0271,-0.63023 0.0177,-0.46589 0.0324,-0.93263 0.0429,-1.40084 0.004,-0.16368 0.006,-0.32767 0.009,-0.49159 0.008,-0.47978 0.0136,-0.96031 0.0144,-1.4424 5e-5,-0.043 0,-0.0858 0,-0.12884 z m 0.0192,-231.893825 c -0.0129,0.620101 -0.0187,1.242187 -0.0187,1.866187 0,-0.0079 0,-0.01554 0,-0.02383 1.7e-4,-0.615986 0.007,-1.230177 0.0192,-1.842371 z m -0.44744,240.689215 c -0.0506,0.52055 -0.10655,1.03894 -0.16607,1.55595 0.0595,-0.51701 0.1154,-1.0354 0.16607,-1.55595 z m -0.18134,1.69274 c -0.058,0.49744 -0.12065,0.99294 -0.18678,1.48698 0.0661,-0.49404 0.12875,-0.98954 0.18678,-1.48698 z m -0.46225,3.38554 c -0.072,0.46142 -0.1476,0.92128 -0.22667,1.37949 0.0791,-0.45827 0.15462,-0.918 0.22667,-1.37949 z m -0.27496,1.65672 c -0.0818,0.46514 -0.16677,0.92879 -0.25576,1.39049 0.089,-0.4618 0.17394,-0.92525 0.25576,-1.39049 z m -3.66336,13.86754 c -0.15438,0.43004 -0.31316,0.8575 -0.47408,1.283 0.16097,-0.42559 0.31965,-0.85284 0.47408,-1.283 z m -0.56918,1.53582 c -0.15852,0.41502 -0.32121,0.82723 -0.48589,1.23782 0.16471,-0.41062 0.32735,-0.82277 0.48589,-1.23782 z m -6.73884,13.52681 c -0.51723,0.81879 -1.04856,1.62351 -1.59316,2.41332 0.54465,-0.78981 1.07596,-1.5945 1.59316,-2.41332 z m -1.69469,2.56171 c -0.22248,0.32088 -0.44868,0.63736 -0.6756,0.95327 0.22692,-0.31588 0.45314,-0.63245 0.6756,-0.95327 z m -2.72511,3.66337 c -0.19622,0.24634 -0.39423,0.49062 -0.5933,0.7334 0.1991,-0.24278 0.39703,-0.48703 0.5933,-0.7334 z m -1.93713,2.32115 c -0.19771,0.22624 -0.3965,0.45129 -0.59675,0.67416 0.2003,-0.2229 0.39899,-0.44789 0.59675,-0.67416 z m -0.9905,1.10713 c -0.20402,0.22293 -0.40846,0.44498 -0.615,0.6644 0.20656,-0.21942 0.41096,-0.44147 0.615,-0.6644 z"
         style="opacity:1;fill:#fef8e4;fill-opacity:1;stroke:none;stroke-width:0.32483187;stroke-miterlimit:4;stroke-dasharray:none;stroke-opacity:1" />
      <path
         inkscape:connector-curvature="0"
         id="path1286"
         d="m 430.5139,-146.10046 c 32.22691,0 58.17135,32.15052 58.17135,72.086335 H 372.34255 V 156.01412 c 0,39.93582 -25.94443,72.08634 -58.17134,72.08634 H 197.82901 197.8285 81.486315 81.48581 c -32.226683,-3e-4 -58.170852,-32.15071 -58.170852,-72.08634 h 116.342202 5e-4 V -74.014125 c 0,-39.935615 25.94416,-72.086005 58.17084,-72.086335 0.007,0 0.0128,0 0.0193,0 h 116.32348 z m -174.49482,70.220151 c -0.0124,0.612194 -0.0191,1.226385 -0.0193,1.842373 0,0.0083 5.1e-4,0.01583 5.1e-4,0.02375 0,-0.624 0.006,-1.246085 0.0187,-1.866185 z m -0.0187,231.894429 c 0,0.008 -5e-4,0.0163 -5e-4,0.0244 0.003,11.84686 2.28963,23.00824 6.3456,32.84758 1.92257,4.66396 4.24276,9.03058 6.9059,13.03276 -2.66312,-4.00218 -4.98335,-8.3688 -6.9059,-13.03276 -4.05869,-9.84613 -6.3451,-21.01605 -6.3451,-32.872 z m -0.002,0.12885 c -6.8e-4,0.48209 -0.006,0.96262 -0.0143,1.44239 0.009,-0.47977 0.0136,-0.96024 0.0143,-1.44239 z m -0.0232,1.93399 c -0.0105,0.46658 -0.0254,0.93166 -0.0428,1.39596 0.0177,-0.46399 0.0322,-0.92966 0.0428,-1.39596 z m -0.0719,2.07503 c -0.0125,0.27611 -0.0269,0.55156 -0.0419,0.82682 0.0152,-0.27526 0.0293,-0.55068 0.0419,-0.82682 z m -0.12271,2.12999 c -0.012,0.17393 -0.0239,0.34793 -0.037,0.52151 0.0131,-0.17362 0.0249,-0.34755 0.037,-0.52151 z m 14.37062,40.95777 c 0.60859,0.8712 1.23378,1.72382 1.87503,2.55747 -0.64125,-0.83365 -1.26644,-1.68627 -1.87503,-2.55747 z"
         style="opacity:1;fill:none;fill-opacity:1;stroke:none;stroke-width:0.3248319;stroke-miterlimit:4;stroke-dasharray:none;stroke-opacity:1" />
      <rect
         style="opacity:1;fill:#666666;fill-opacity:1;stroke:none;stroke-width:5.3320713;stroke-miterlimit:4;stroke-dasharray:none;stroke-opacity:1"
         id="rect1404"
         width="178.63274"
         height="12.506381"
         x="166.29308"
         y="-71.821541" />
      <rect
         style="opacity:1;fill:#666666;fill-opacity:1;stroke:none;stroke-width:5.3320713;stroke-miterlimit:4;stroke-dasharray:none;stroke-opacity:1"
         id="rect1406"
         width="178.63274"
         height="12.506381"
         x="166.29308"
         y="-10.95717" />
      <rect
         style="opacity:1;fill:#666666;fill-opacity:1;stroke:none;stroke-width:5.3320713;stroke-miterlimit:4;stroke-dasharray:none;stroke-opacity:1"
         id="rect1410"
         width="178.63274"
         height="12.506381"
         x="166.29308"
         y="49.907242" />
      <rect
         y="110.77161"
         x="166.29308"
         height="12.506381"
         width="178.63274"
         id="rect1402"
         style="opacity:1;fill:#666666;fill-opacity:1;stroke:none;stroke-width:5.3320713;stroke-miterlimit:4;stroke-dasharray:none;stroke-opacity:1" />
    </g>
  </g>
</svg>
