<?xml version="1.0" encoding="UTF-8" standalone="no"?>
<!-- Created with Inkscape (http://www.inkscape.org/) -->

<svg
   xmlns:dc="http://purl.org/dc/elements/1.1/"
   xmlns:cc="http://creativecommons.org/ns#"
   xmlns:rdf="http://www.w3.org/1999/02/22-rdf-syntax-ns#"
   xmlns:svg="http://www.w3.org/2000/svg"
   xmlns="http://www.w3.org/2000/svg"
   xmlns:sodipodi="http://sodipodi.sourceforge.net/DTD/sodipodi-0.dtd"
   xmlns:inkscape="http://www.inkscape.org/namespaces/inkscape"
   width="512mm"
   height="512mm"
   viewBox="0 0 512 512"
   version="1.1"
   id="svg8"
   sodipodi:docname="settings.svg"
   inkscape:version="0.92+devel unknown"
   enable-background="new"
   inkscape:export-filename="/home/vm/Desktop/settings.png"
   inkscape:export-xdpi="25.4"
   inkscape:export-ydpi="25.4">
  <defs
     id="defs2">
    <filter
       inkscape:menu-tooltip="Roughen all inside shapes"
       inkscape:menu="Distort"
       inkscape:label="Roughen Inside"
       style="color-interpolation-filters:sRGB;"
       id="filter4330">
      <feGaussianBlur
         result="result1"
         stdDeviation="3"
         id="feGaussianBlur4308" />
      <feBlend
         in2="result1"
         result="result5"
         mode="multiply"
         in="result1"
         id="feBlend4310" />
      <feGaussianBlur
         in="result5"
         result="result6"
         stdDeviation="1"
         id="feGaussianBlur4312" />
      <feComposite
         result="result8"
         in2="result5"
         in="result6"
         operator="xor"
         id="feComposite4314" />
      <feComposite
         in="result6"
         result="fbSourceGraphic"
         operator="xor"
         in2="result8"
         id="feComposite4316" />
      <feSpecularLighting
         in="fbSourceGraphic"
         result="result1"
         lighting-color="rgb(255,255,255)"
         surfaceScale="2"
         specularConstant="2.2"
         specularExponent="55"
         id="feSpecularLighting4320">
        <fePointLight
           x="-5000"
           y="-10000"
           z="20000"
           id="fePointLight4318" />
      </feSpecularLighting>
      <feComposite
         in2="fbSourceGraphic"
         in="result1"
         result="result2"
         operator="in"
         id="feComposite4322" />
      <feComposite
         in="fbSourceGraphic"
         result="result4"
         operator="arithmetic"
         k2="2"
         k3="1"
         in2="result2"
         id="feComposite4324" />
      <feComposite
         in2="result4"
         in="result4"
         operator="in"
         result="result91"
         id="feComposite4326" />
      <feBlend
         mode="darken"
         in2="result91"
         id="feBlend4328"
         result="fbSourceGraphic" />
      <feColorMatrix
         result="fbSourceGraphicAlpha"
         in="fbSourceGraphic"
         values="0 0 0 -1 0 0 0 0 -1 0 0 0 0 -1 0 0 0 0 1 0"
         id="feColorMatrix4382" />
      <feTurbulence
         id="feTurbulence4384"
         numOctaves="5"
         seed="0"
         type="fractalNoise"
         baseFrequency="0.08"
         in="fbSourceGraphic" />
      <feGaussianBlur
         id="feGaussianBlur4386"
         stdDeviation="0.5"
         result="result91" />
      <feDisplacementMap
         in2="result91"
         id="feDisplacementMap4388"
         scale="20"
         yChannelSelector="G"
         xChannelSelector="R"
         in="fbSourceGraphic"
         result="result1" />
      <feComposite
         in2="fbSourceGraphic"
         id="feComposite4390"
         in="result1"
         operator="atop" />
    </filter>
    <filter
       inkscape:label="Basic Diffuse Bump"
       inkscape:menu="Bumps"
       inkscape:menu-tooltip="Matte emboss effect"
       style="color-interpolation-filters:sRGB;"
       id="filter4882">
      <feColorMatrix
         result="result2"
         type="luminanceToAlpha"
         in="SourceGraphic"
         id="feColorMatrix4872" />
      <feDiffuseLighting
         lighting-color="#ffffff"
         in="result2"
         diffuseConstant="0.5"
         result="result1"
         surfaceScale="15"
         id="feDiffuseLighting4876">
        <feDistantLight
           azimuth="225"
           elevation="10"
           id="feDistantLight4874" />
      </feDiffuseLighting>
      <feComposite
         result="result9"
         operator="arithmetic"
         k2="1"
         k3="0.8"
         in2="SourceGraphic"
         id="feComposite4878" />
      <feComposite
         in2="SourceGraphic"
         result="result7"
         operator="in"
         in="result9"
         id="feComposite4880" />
    </filter>
    <filter
       inkscape:label="Noise Fill"
       inkscape:menu="Distort"
       inkscape:menu-tooltip="Displace the outside of shapes and pictures without altering their content"
       height="1.4"
       y="-0.2"
       width="1.4"
       x="-0.2"
       style="color-interpolation-filters:sRGB;"
       id="filter6610">
      <feTurbulence
         baseFrequency="0.05"
         numOctaves="5"
         type="fractalNoise"
         result="result91"
         id="feTurbulence6604" />
      <feDisplacementMap
         scale="25"
         result="result5"
         xChannelSelector="R"
         in="SourceGraphic"
         in2="result91"
         id="feDisplacementMap6606" />
      <feComposite
         in="SourceGraphic"
         operator="atop"
         in2="result5"
         id="feComposite6608"
         result="fbSourceGraphic" />
      <feColorMatrix
         result="fbSourceGraphicAlpha"
         in="fbSourceGraphic"
         values="0 0 0 -1 0 0 0 0 -1 0 0 0 0 -1 0 0 0 0 1 0"
         id="feColorMatrix6736" />
      <feTurbulence
         id="feTurbulence6738"
         type="fractalNoise"
         baseFrequency="0.0232 0.0408"
         numOctaves="5"
         seed="2"
         result="turbulence"
         in="fbSourceGraphic" />
      <feComposite
         in2="turbulence"
         id="feComposite6740"
         in="fbSourceGraphic"
         operator="in"
         result="composite1" />
      <feColorMatrix
         id="feColorMatrix6742"
         values="1 0 0 0 0 0 1 0 0 0 0 0 1 0 0 0 0 0 3.4 -1 "
         result="color" />
      <feFlood
         id="feFlood6744"
         flood-opacity="1"
         flood-color="rgb(141,109,52)"
         result="flood" />
      <feMerge
         id="feMerge6746"
         result="merge">
        <feMergeNode
           id="feMergeNode6748"
           in="flood" />
        <feMergeNode
           id="feMergeNode6750"
           in="color" />
      </feMerge>
      <feComposite
         in2="fbSourceGraphic"
         id="feComposite6752"
         operator="in"
         result="composite2" />
    </filter>
  </defs>
  <sodipodi:namedview
     id="base"
     pagecolor="#ffffff"
     bordercolor="#666666"
     borderopacity="1.0"
     inkscape:pageopacity="0.0"
     inkscape:pageshadow="2"
     inkscape:zoom="0.12067312"
     inkscape:cx="-312.37327"
     inkscape:cy="868.61144"
     inkscape:document-units="mm"
     inkscape:current-layer="layer1"
     inkscape:document-rotation="0"
     showgrid="false"
     inkscape:window-width="1920"
     inkscape:window-height="929"
     inkscape:window-x="0"
     inkscape:window-y="0"
     inkscape:window-maximized="1" />
  <metadata
     id="metadata5">
    <rdf:RDF>
      <cc:Work
         rdf:about="">
        <dc:format>image/svg+xml</dc:format>
        <dc:type
           rdf:resource="http://purl.org/dc/dcmitype/StillImage" />
        <dc:title></dc:title>
      </cc:Work>
    </rdf:RDF>
  </metadata>
  <g
     inkscape:label="Layer 1"
     inkscape:groupmode="layer"
     id="layer1"
     transform="translate(0,215)">
    <path
       inkscape:connector-curvature="0"
       id="path4602"
       d="m -556.59378,-182.41202 h 0.002 l 0.0762,0.0254 h 0.004 l 0.0801,0.0273 h 0.0352 l 0.0781,0.0391 0.041,0.0137 h 0.004 l 0.004,0.002 0.23828,0.0801 h 0.002 l 0.002,0.002 0.0742,0.0254 0.004,0.002 h 0.002 l 0.25391,0.084 0.0606,0.0176 0.33008,0.10743 0.33007,0.10742 0.33008,0.10742 0.0332,0.3457 0.0332,0.34571 0.0332,0.34375 0.0332,0.34375 0.0332,0.33984 v 0.004 0.006 l 0.002,0.0254 v 0.002 l 0.002,0.0176 v 0.002 l 0.0273,0.27149 0.0742,0.74609 1.78516,16.96484 3.58593,17.2246 0.0215,0.043 0.0586,0.11328 v 0.12695 0.0527 l 0.17774,0.67187 0.0918,0.34766 0.0918,0.34766 0.0918,0.34765 0.0918,0.34766 0.0918,0.34766 0.0918,0.34765 -0.28906,0.21289 -0.28907,0.21289 -0.28906,0.21289 -0.28906,0.21289 -0.28906,0.21289 -0.28907,0.2129 -38.88867,28.79297 7.8125,18.222658 10.6875,19.28906 6.31055,9.37891 45.44336,-14.19922 0.32617,-0.10156 0.32617,-0.10156 0.0781,-0.0234 h 0.002 0.002 0.002 l 0.0508,-0.0176 0.0195,-0.006 0.17579,-0.0547 h 0.002 l 0.0449,-0.0137 0.0312,-0.01 0.24804,-0.0781 h 0.002 l 0.32813,-0.10156 0.32617,-0.10156 0.22656,0.25586 0.22656,0.25585 0.22657,0.25586 0.22656,0.25586 0.22656,0.25586 v 0.002 l 0.002,0.002 0.0273,0.0312 0.0312,0.0352 0.01,0.0176 0.10547,0.11328 0.002,0.002 v 0.002 l 0.01,0.008 v 0.002 l 0.006,0.006 0.006,0.006 0.002,0.002 0.0117,0.0117 v 0.002 l 0.0117,0.0117 v 0.002 l 0.002,0.002 0.008,0.008 0.004,0.004 v 0.002 l 0.002,0.002 0.002,0.002 0.002,0.002 0.002,0.004 0.004,0.004 0.006,0.006 v 0.002 l 0.008,0.008 0.0742,0.0801 h 0.002 v 0.002 l 0.0449,0.041 0.0176,0.0273 0.0762,0.084 0.0352,0.0391 0.004,0.006 0.0957,0.10156 0.14453,0.15235 v 0.0156 l 11.37696,12.70117 13.16015,12.025394 0.73828,0.60743 0.002,0.002 0.16211,0.13281 h 0.0312 l 0.13086,0.13086 h 0.002 l 0.002,0.002 0.004,0.002 0.008,0.008 0.0508,0.043 0.0117,0.008 0.14649,0.11914 h 0.002 l 0.27929,0.22852 0.19336,0.16015 v 0.004 l 0.084,0.0684 0.27735,0.22851 0.27734,0.22852 -0.10937,0.3418 -0.10938,0.34179 -0.084,0.26172 -0.0254,0.0781 v 0.002 l -0.0586,0.18164 v 0.008 l -0.0254,0.0723 v 0.004 l -0.002,0.006 -0.0234,0.0742 -0.0586,0.18165 v 0.004 l -0.0254,0.0762 v 0.004 l -0.0254,0.0762 v 0.002 l -0.006,0.0156 v 0.0195 l -0.0293,0.082 -0.0137,0.041 v 0.0117 l -0.0332,0.0898 -0.006,0.0137 -0.002,0.006 -0.002,0.006 v 0.006 l -0.004,0.008 -0.008,0.0215 -0.002,0.006 -0.004,0.008 -0.006,0.0195 -13.65234,43.4042997 17.32812,10.33789 19.95703,9.3671903 h 0.0371 l 0.11524,0.0605 0.11523,0.0605 0.006,0.004 0.008,0.004 10.85938,4.08008 26.66992,-35.80274 0.20312,-0.27343 0.20313,-0.27344 0.20312,-0.27344 0.20313,-0.27343 0.20312,-0.27344 0.20313,-0.27344 0.33203,0.0723 0.33398,0.0723 h 0.002 l 0.002,0.002 0.26954,0.0606 h 0.002 l 0.0547,0.0117 0.004,0.002 0.21875,0.0449 h 0.006 l 0.0469,0.0117 h 0.002 0.008 l 0.0566,0.0117 0.22851,0.0508 h 0.0195 l 0.0352,0.0117 0.0137,0.004 h 0.006 l 0.0117,0.004 0.002,0.002 h 0.002 0.002 l 0.006,0.002 0.008,0.002 0.0195,0.004 h 0.004 l 0.14063,0.0312 h 0.0684 l 0.0488,0.0254 h 0.002 l 0.043,0.01 h 0.004 l 17.48219,3.79687 17.52148,2.00586 h 0.008 0.11719 0.125 l 0.0391,0.0195 0.60742,0.0332 0.6836,0.0371 0.35547,0.0195 0.20117,0.0117 0.004,0.004 0.20116,0.0117 0.14258,0.008 0.008,0.006 0.16211,0.01 h 0.002 l 0.35351,0.0215 0.35352,0.0215 0.35351,0.0215 0.11524,0.33399 0.0859,0.24804 h 0.01 l 0.11914,0.36719 0.0176,0.0547 0.002,0.006 0.002,0.006 0.0977,0.28125 v 0.004 l 0.002,0.002 0.0801,0.23829 0.041,0.11718 0.0606,0.18164 0.0215,0.0566 0.041,0.11718 v 0.004 l 0.002,0.002 14.0625,41.66016 20.15234,-1.48047 22.05078,-3.80664 0.0527,-0.0273 0.11328,-0.0586 h 0.12891 0.12695 0.004 l 10.99414,-2.8125 0.4707,-44.46875 0.004,-0.3418 v -0.002 -0.002 l 0.006,-0.33788 v -0.004 l 0.004,-0.33789 0.004,-0.3418 0.004,-0.34179 0.004,-0.3418 0.3125,-0.13672 0.3125,-0.13672 0.3125,-0.13672 0.3125,-0.13672 0.3125,-0.13671 0.3125,-0.13672 16.36523,-7.19141 12.14063,-6.67969 4.29883,-2.82617 0.30273,-0.19922 0.30274,-0.19922 0.30273,-0.19921 0.30274,-0.19922 0.30273,-0.19922 0.30273,-0.19922 0.29493,0.20898 0.29492,0.20899 0.29492,0.20898 0.29492,0.20899 0.29492,0.20898 0.29493,0.20899 37.38281,26.48046 15.56836,-12.6914 15.8125,-15.75781 7.30468,-8.5625 -27.37109,-38.394544 -0.19726,-0.27734 -0.19727,-0.27734 -0.19727,-0.27735 -0.19726,-0.27734 -0.19727,-0.27734 -0.19726,-0.27735 0.17187,-0.29492 0.17188,-0.29492 0.17187,-0.29492 0.16797,-0.28907 0.002,-0.004 0.0762,-0.13282 0.002,-0.002 0.0762,-0.13867 0.004,-0.002 h 0.002 v -0.002 -0.002 l 0.01,-0.0156 0.002,-0.004 0.0137,-0.0234 0.002,-0.004 0.002,-0.004 0.008,-0.0137 0.01,-0.0176 0.0156,-0.0273 0.002,-0.004 0.043,-0.0723 0.0703,-0.12304 v -0.002 -0.002 l 8.97266,-15.527328 7.22266,-16.0254 0.33008,-0.84961 0.0332,-0.0859 0.004,-0.008 0.006,-0.0156 v -0.002 l 0.0176,-0.043 v -0.22656 -0.5293 -0.52931 h 0.50391 l 0.125,-0.32031 0.1289,-0.33203 0.35743,-0.004 0.35742,-0.004 0.35742,-0.004 0.35742,-0.004 0.35742,-0.004 0.35743,-0.004 48.35744,-0.50781 4.8262,-19.2539 3.1797,-21.88281 0.6796,-10.98242 -46.2363,-15.51367 h -0.002 l -0.0762,-0.0254 h -0.004 l -0.0801,-0.0273 h -0.0352 l -0.0781,-0.0391 -0.041,-0.0137 h -0.004 l -0.004,-0.002 -0.23828,-0.0801 h -0.002 l -0.002,-0.002 -0.0742,-0.0254 -0.004,-0.002 h -0.002 l -0.2539,-0.084 -0.0605,-0.0176 -0.33008,-0.10742 -0.33008,-0.10743 -0.33008,-0.10742 -0.0332,-0.3457 -0.0332,-0.3457 -0.0332,-0.34375 -0.0332,-0.34375 -0.0332,-0.33985 v -0.004 -0.006 l -0.002,-0.0254 v -0.002 l -0.002,-0.0176 v -0.002 l -0.0273,-0.27148 -0.0723,-0.72852 -1.78906,-16.98242 -3.5293,-16.9668 -0.13867,-0.14062 v -0.21875 -0.21875 -0.0117 l -0.17578,-0.66016 -0.0176,-0.0684 v -0.004 -0.002 l -0.004,-0.0117 -0.0137,-0.0488 v -0.004 l -0.0566,-0.21484 -0.0918,-0.34766 -0.0918,-0.34765 -0.0918,-0.34766 -0.0918,-0.34766 -0.0918,-0.34765 0.28906,-0.21289 0.28906,-0.2129 0.28907,-0.21289 0.28906,-0.21289 0.28906,-0.21289 0.28906,-0.21289 38.88676,-28.79101 -7.8067,-18.22461 -10.45115,-18.90235 -0.10937,-0.11132 -0.15235,-0.1543 -0.15234,-0.1543 v -0.21679 -0.0195 l -0.008,-0.01 -0.11719,-0.14649 v -0.0469 l -6.00977,-8.91016 -45.43945,14.19727 -0.32617,0.10156 -0.32617,0.10156 -0.0781,0.0234 h -0.002 -0.002 -0.002 l -0.0508,0.0176 -0.0195,0.006 -0.17578,0.0547 h -0.002 l -0.0449,0.0137 -0.0312,0.01 -0.24804,0.0781 h -0.002 l -0.32812,0.10156 -0.32617,0.10156 -0.22657,-0.25586 -0.22656,-0.25586 -0.22656,-0.25586 -0.22656,-0.25585 -0.22657,-0.25586 v -0.002 l -0.002,-0.002 -0.0273,-0.0312 -0.0234,-0.0254 -0.01,-0.0176 -0.0957,-0.10351 -0.0215,-0.0215 -0.01,-0.01 -0.006,-0.008 -0.008,-0.008 -0.0117,-0.0117 v -0.002 l -0.008,-0.01 -0.004,-0.004 -0.002,-0.002 -0.008,-0.008 -0.004,-0.004 v -0.002 l -0.002,-0.002 v -0.002 h -0.002 v -0.002 h -0.002 l -0.002,-0.004 -0.004,-0.004 -0.002,-0.004 -0.004,-0.004 -0.008,-0.008 -0.0117,-0.0137 -0.0606,-0.0645 -0.002,-0.002 -0.0469,-0.043 -0.0176,-0.0274 -0.0762,-0.084 v -0.002 l -0.0176,-0.0176 -0.006,-0.006 -0.01,-0.0137 -0.10156,-0.10547 -0.14453,-0.15234 v -0.0176 l -11.37696,-12.69922 -12.89257,-11.78125 -0.0352,-0.0176 -0.0625,-0.0605 -0.0508,-0.0527 -0.008,-0.006 -0.0352,-0.0371 -0.01,-0.008 -0.004,-0.004 -0.004,-0.004 -0.004,-0.002 -0.21094,-0.17383 h -0.002 l -0.002,-0.002 h -0.29687 -0.5293 -0.5293 v -0.5293 -0.52929 -0.0625 l -0.16601,-0.13477 v -0.008 l -0.0859,-0.0723 v -0.004 l -0.082,-0.0684 v 0.002 l -0.27149,-0.22656 -0.27148,-0.22852 0.10742,-0.33789 0.10742,-0.33789 0.10743,-0.33789 0.10742,-0.33984 0.10742,-0.33985 v -0.002 l 0.006,-0.0176 v -0.0195 l 0.0273,-0.082 0.0273,-0.082 0.0273,-0.082 0.004,-0.01 v -0.004 l 0.004,-0.008 v -0.004 l 0.004,-0.006 v -0.004 l 0.002,-0.004 0.002,-0.002 v -0.002 l 0.002,-0.006 0.004,-0.008 0.006,-0.0195 13.65235,-43.40623 -17.32422,-10.3418 -19.95508,-9.3711 h -0.0371 l -0.11523,-0.0605 -0.11524,-0.0606 -0.006,-0.004 -0.008,-0.004 -10.85742,-4.08008 -26.67969,35.81641 -0.20312,0.27343 -0.20313,0.27344 -0.20312,0.27344 -0.20313,0.27343 -0.20312,0.27343 -0.20313,0.27344 -0.33398,-0.0723 -0.33008,-0.0723 h -0.002 l -0.27735,-0.0606 h -0.002 l -0.0527,-0.0117 h -0.004 l -0.25586,-0.0566 -0.01,-0.002 -0.01,-0.002 h -0.002 l -0.006,-0.002 -0.008,-0.002 -0.01,-0.002 h -0.004 l -0.008,-0.002 -0.0195,-0.004 -0.006,-0.002 -0.20899,-0.0449 -0.008,-0.002 h -0.002 l -0.004,-0.002 -0.008,-0.002 -0.0117,-0.002 h -0.002 l -0.008,-0.002 -0.0176,-0.004 -0.0137,-0.004 -0.043,-0.008 h -0.004 l -0.004,-0.002 -0.21875,-0.0488 0.002,0.002 -0.0449,-0.01 -0.0273,-0.006 -0.008,-0.002 -0.0156,-0.004 -0.0703,-0.0137 -0.01,-0.006 -17.4004,-3.77734 -17.55273,-2.00586 h -0.0371 l -0.0449,-0.01 h -0.004 -0.004 l -0.01,-0.002 -0.0156,-0.002 h -0.008 l -0.008,-0.002 h -0.008 l -0.01,-0.002 -0.49804,-0.0254 h -0.002 l -0.91015,-0.0488 -0.35547,-0.0195 -0.20117,-0.0117 -0.004,-0.004 -0.20117,-0.0117 -0.20117,-0.0117 -0.006,-0.006 -0.11719,-0.008 -0.35352,-0.0234 -0.35156,-0.0234 -0.34961,-0.0234 -0.11523,-0.33203 -0.084,-0.24414 h -0.008 l -0.11914,-0.36719 -0.0176,-0.0547 -0.002,-0.006 -0.002,-0.006 -0.0977,-0.28125 v -0.004 l -0.002,-0.002 -0.0801,-0.23829 -0.041,-0.11718 -0.0606,-0.18164 -0.0215,-0.0566 -0.041,-0.11719 v -0.004 l -0.002,-0.002 -14.12305,-41.82813 -3.23436,-0.008 -22.44922,2.28516 -22.22852,4.48633 -5.65429,1.54101 -0.47071,44.5 -0.004,0.3418 -0.004,0.3418 -0.004,0.34179 -0.004,0.3418 -0.004,0.3418 -0.004,0.34179 -0.3125,0.13672 -0.3125,0.13672 -0.3125,0.13672 -0.3125,0.13672 -0.3125,0.13672 -0.3125,0.13672 -16.36328,7.19531 -12.33789,6.80273 -3.6875,2.43164 v 0.20703 0.5293 h -0.5293 -0.52929 -0.0527 l -0.0352,0.0234 -0.13282,0.0879 -0.0352,0.0234 -0.30078,0.19922 -0.30078,0.19921 -0.30078,0.19922 -0.29688,-0.20703 -0.29296,-0.20703 h -0.002 l -0.15821,-0.11133 h -0.004 l -0.13672,-0.0957 -0.29296,-0.20703 h -0.002 l -0.16016,-0.11328 -0.008,-0.006 -0.008,-0.004 -0.0137,-0.0117 -0.0176,-0.0117 -0.084,-0.0586 -0.004,-0.002 -0.002,-0.004 -0.1543,-0.10937 -0.01,-0.008 -0.0508,-0.0332 -0.006,-0.004 -0.002,-0.002 -0.0684,-0.0469 -0.006,-0.004 -0.0332,-0.0215 -0.0176,-0.0117 -0.0254,-0.0156 -0.004,-0.004 -0.0703,-0.0469 v -0.01 l -0.0664,-0.0469 -0.002,-0.002 -0.22461,-0.15625 -0.22656,-0.15821 -0.22656,-0.1582 v -0.0117 l -36.49805,-25.85351 -15.5625,12.69726 -15.80859,15.76367 -7.30664,8.56641 27.37305,38.39062 0.19726,0.27735 0.19727,0.27734 0.19726,0.27735 0.19727,0.27734 0.19726,0.27734 0.19727,0.27735 -0.17188,0.29492 -0.17187,0.29492 -0.17188,0.29492 -0.0996,0.17188 v 0.004 l -0.0723,0.12305 -0.0254,0.043 v 0.002 l -0.0723,0.1211 v 0.002 l -0.002,0.004 -0.0137,0.041 -0.0449,0.0684 -0.0254,0.0352 v 0.002 l -0.14648,0.25586 -0.006,0.008 -0.002,0.006 -0.0703,0.12695 -0.0156,0.0312 -0.0117,0.0117 -0.0293,0.0547 -0.0137,0.0137 -8.79883,15.23633 -7.25,16.08008 -0.32812,0.84375 -0.0332,0.0859 -0.002,0.002 v 0.004 l -0.002,0.004 -0.002,0.006 -0.0215,0.0547 v 0.22461 0.52929 0.5293 h -0.50391 l -0.125,0.32031 -0.12891,0.33204 -0.35742,0.004 -0.35742,0.004 -0.35742,0.004 -0.35742,0.004 -0.35547,0.004 h -0.004 -0.002 -0.004 -0.002 -0.004 -0.002 -0.002 l -0.32813,0.006 h -0.006 -0.004 -0.006 -0.004 -0.004 -0.002 -0.002 -0.004 l -48.34374,0.50781 -4.83008,19.25195 -3.18359,21.88281 -0.6836,10.98243 z m -0.89648,-0.2168 -0.0918,-0.0977 -0.0391,0.0606 z m 2.36523,4.65039 -0.54883,-0.59766 -0.1582,0.79297 z m 39.94141,102.267578 0.35547,-0.46485 -0.63086,-0.11718 z m 7.29883,-107.449218 0.0293,-12.59961 v -0.002 -0.0234 -0.0195 -0.0293 -0.043 -0.0586 -0.0566 l 0.008,-0.0312 0.002,-0.0117 v -0.006 l 0.002,-0.0274 v -0.008 -0.01 l 1.29492,-12.61133 v -0.041 l 0.008,-0.0273 v -0.006 -0.0781 l 0.006,-0.0117 v -0.11133 l 0.0215,-0.041 v -0.0898 l 0.0488,-0.0488 0.002,-0.008 v 0.006 l 0.002,-0.0137 0.002,-0.006 2.47852,-12.07032 v -0.0547 l 0.002,-0.008 v -0.0703 l 0.0195,-0.0586 v -0.0449 l 0.0254,-0.0781 0.0234,-0.0742 v -0.004 l 0.002,-0.004 v -0.002 l 0.002,-0.004 0.0195,-0.0605 0.002,-0.008 0.006,-0.0176 0.002,-0.006 v -0.002 l 0.002,-0.004 v -0.004 l 0.002,-0.008 0.004,-0.0137 0.004,-0.0156 3.6875,-11.82227 v -0.0215 l 0.0312,-0.0879 0.0137,-0.0352 0.004,-0.0137 0.002,-0.006 0.002,-0.002 v -0.002 l 0.002,-0.004 v -0.002 l 0.002,-0.006 0.006,-0.0176 0.004,-0.0137 0.004,-0.01 v -0.002 l 0.002,-0.004 0.002,-0.008 0.004,-0.0117 0.004,-0.0117 0.0234,-0.0703 0.004,-0.0117 0.008,-0.0234 0.0137,-0.041 0.0117,-0.0332 v -0.002 l 0.002,-0.006 0.0117,-0.0352 0.002,-0.006 0.002,-0.006 0.0195,-0.0566 0.0156,-0.0469 0.0156,-0.0254 0.0312,-0.0957 0.0371,-0.11133 0.0606,-0.0625 4.76562,-11.20703 v -0.004 l 0.004,-0.01 v -0.002 l 0.0332,-0.084 0.004,-0.01 v -0.002 l 0.004,-0.01 0.008,-0.0156 0.01,-0.0234 0.002,-0.004 0.002,-0.008 0.004,-0.008 0.002,-0.008 0.0137,-0.0312 0.002,-0.008 0.0176,-0.043 0.0195,-0.0508 0.0195,-0.0508 0.0273,-0.043 0.0273,-0.043 0.0273,-0.043 0.0273,-0.043 0.0273,-0.043 0.0137,-0.0215 5.94727,-10.82421 0.008,-0.0176 0.006,-0.0117 0.008,-0.0176 0.002,-0.002 0.002,-0.002 v -0.002 l 0.0176,-0.0391 v -0.043 l 0.0215,-0.0312 v -0.004 l 0.041,-0.0586 0.0156,-0.0215 0.0176,-0.0449 0.0352,-0.0351 0.0156,-0.0332 0.0156,-0.0176 0.01,-0.0195 0.0332,-0.0352 0.002,-0.002 v -0.002 l 0.002,-0.002 7.09179,-10.31445 0.002,-0.002 0.0254,-0.0566 0.0156,-0.0195 0.0215,-0.0644 0.0176,-0.0176 v -0.0371 l 0.10743,-0.10937 0.0469,-0.0469 0.0996,-0.0996 0.002,-0.004 0.10742,-0.21485 h 0.082 l 7.82031,-9.24609 0.0137,-0.043 0.0879,-0.0899 0.0117,-0.0117 0.01,-0.0176 0.041,-0.043 0.041,-0.043 0.0117,-0.0117 0.008,-0.0137 0.0293,-0.0273 0.004,-0.004 0.004,-0.006 0.0371,-0.0371 0.01,-0.01 0.0195,-0.0195 0.008,-0.008 0.002,-0.002 0.0527,-0.0508 v -0.002 l 0.0117,-0.0117 0.0508,-0.0488 0.0117,-0.0117 0.004,-0.002 0.002,-0.002 0.0352,-0.0332 0.0449,-0.043 0.0117,-0.006 8.84375,-8.55273 h 0.002 l 0.002,-0.002 v -0.002 l 0.0527,-0.0527 0.006,-0.006 0.002,-0.004 0.0137,-0.0137 0.008,-0.006 0.006,-0.006 0.0137,-0.0137 h 0.002 l 0.004,-0.004 0.002,-0.002 0.002,-0.002 0.004,-0.004 0.0117,-0.0117 0.0117,-0.0137 0.002,-0.002 0.004,-0.002 0.0234,-0.0273 0.01,-0.006 0.0664,-0.0664 h 0.002 l 0.002,-0.002 0.15625,-0.1543 0.1543,-0.15234 h 0.0859 l 9.5664,-7.55274 0.01,-0.01 0.0176,-0.0117 0.002,-0.002 0.008,-0.006 0.008,-0.01 0.0215,-0.0137 0.01,-0.006 0.004,-0.004 0.11719,-0.0918 0.0254,-0.0195 0.11914,-0.0918 0.0195,-0.0156 0.002,-0.002 0.004,-0.002 0.14063,-0.11328 0.14453,-0.11524 h 0.10547 l 6.7832,-4.47656 0.0254,-0.0254 0.0547,-0.0312 0.0273,-0.0156 v -0.002 l 0.0312,-0.0293 0.0312,-0.0156 0.008,-0.006 0.0254,-0.0156 0.041,-0.0274 0.002,-0.002 0.002,-0.002 0.006,-0.004 0.002,-0.002 0.12109,-0.0879 0.13868,-0.10157 h 0.0742 l 0.002,-0.002 0.0644,-0.0352 h 0.002 l 0.10937,-0.0605 0.01,-0.006 0.11133,-0.0645 h 0.0155 l 0.63086,-0.34375 0.0293,-0.0156 0.002,-0.002 0.0137,-0.008 0.29297,-0.1582 0.004,-0.002 0.24023,-0.13282 0.002,-0.002 9.38477,-5.10742 0.006,-0.004 0.0566,-0.0449 0.002,-0.002 0.0117,-0.0117 0.0977,-0.041 0.082,-0.0332 0.0293,-0.0176 0.12109,-0.0703 0.12305,-0.0723 h 0.11328 l 11.42187,-4.80665 h 0.002 l 0.002,-0.002 0.0508,-0.0215 0.008,-0.002 0.002,-0.002 0.0801,-0.041 h 0.0137 l 0.002,-0.002 0.10352,-0.0469 0.10547,-0.0469 h 0.11328 0.004 l 11.80859,-3.63086 0.004,-0.002 0.0586,-0.0195 0.0391,-0.0117 0.004,-0.002 0.0156,-0.01 0.0859,-0.0469 0.0977,-0.0137 0.0586,-0.008 0.0684,-0.0234 h 0.0137 l 0.0176,-0.006 h 0.0586 l 12.21875,-2.45507 0.0234,-0.0117 0.11328,-0.0586 h 0.12696 0.0859 l 0.0332,-0.01 h 0.0723 l 0.01,-0.002 12.63671,-1.24609 h 0.008 0.008 l 0.0254,-0.002 h 0.002 l 0.0234,-0.006 h 0.0293 l 0.0254,-0.004 h 0.041 0.041 0.041 0.0293 0.0195 0.0254 l 12.69727,0.0215 h 0.0273 0.0195 0.0293 0.043 0.0586 0.0566 l 0.0332,0.008 h 0.006 l 0.0117,0.002 0.0273,0.002 h 0.008 0.01 l 12.63086,1.28906 h 0.0469 l 0.0488,0.0137 h 0.002 0.0254 0.13086 l 0.041,0.0215 h 0.0898 l 0.0488,0.0469 0.0137,0.004 0.0273,0.01 12.08985,2.47461 h 0.0195 l 0.0488,0.01 0.0254,0.006 h 0.008 l 0.0488,0.004 0.0644,0.004 0.0606,0.0195 0.0449,0.0137 0.01,0.004 0.0273,0.008 h 0.002 l 0.002,0.002 h 0.002 l 0.004,0.002 h 0.002 0.002 0.0449 l 0.0918,0.0351 0.0957,0.0371 0.002,0.002 h 0.004 l 0.01,0.004 0.008,0.004 0.008,0.004 11.89844,3.70118 h 0.006 l 0.0566,0.0195 0.006,0.002 0.006,0.002 0.0117,0.004 h 0.002 l 0.006,0.002 0.006,0.002 0.0137,0.004 0.006,0.002 0.006,0.002 0.0273,0.01 0.008,0.002 h 0.002 l 0.006,0.002 0.0137,0.004 0.0117,0.002 0.008,0.002 0.008,0.004 0.13672,0.0371 0.13672,0.0351 0.0742,0.0742 0.0176,0.008 0.0293,0.0215 11.15234,4.73633 h 0.008 0.16211 l 0.13477,0.0918 0.0547,0.0371 h 0.11133 l 0.13672,0.13672 0.004,0.002 11.125,6.10351 0.0215,0.0117 0.0234,0.0137 0.0508,0.0234 0.0703,0.0332 0.0566,0.0527 0.002,0.002 0.0371,0.0215 0.008,0.006 0.0293,0.0176 0.0351,0.0332 0.006,0.004 0.0625,0.0352 0.0508,0.0488 0.0195,0.0195 10.10743,6.93945 0.006,0.004 0.0176,0.01 0.0469,0.0274 0.0469,0.0293 0.004,0.002 0.008,0.004 0.002,0.002 0.0508,0.0293 0.002,0.002 0.0527,0.0312 0.0527,0.0312 0.043,0.041 0.0625,0.0371 0.10937,0.0664 0.0684,0.10742 0.006,0.01 9.36523,7.91407 0.043,0.0137 0.0898,0.0879 0.0117,0.0117 0.0176,0.01 0.043,0.041 0.043,0.041 0.0117,0.0117 0.0137,0.008 0.0117,0.0117 h 0.10547 l 0.10742,0.21485 0.0137,0.0137 v 0.002 l 0.0566,0.0586 0.0566,0.0586 0.008,0.0156 8.40625,8.68359 0.0879,0.043 0.0762,0.0976 0.0312,0.041 0.0215,0.0156 0.043,0.0586 0.002,0.002 0.0449,0.0352 0.043,0.0644 0.0254,0.0371 0.004,0.004 0.0137,0.0215 0.004,0.004 v 0.002 h 0.002 l 0.002,0.002 v 0.002 h 0.002 l 0.004,0.006 0.0352,0.0352 0.01,0.0195 0.10352,0.1211 v 0.0117 l 7.67578,9.70703 0.01,0.01 0.0117,0.0176 0.002,0.002 0.006,0.008 0.01,0.008 0.0137,0.0215 0.006,0.01 0.004,0.004 0.0918,0.11718 0.0195,0.0254 0.0918,0.11915 0.0156,0.0195 0.002,0.002 0.002,0.004 0.11328,0.14062 0.11524,0.14453 v 0.10547 l 4.47461,6.77149 h 0.48047 v 0.52929 0.18164 l 0.0156,0.0195 0.10938,0.14063 v 0.14258 l 5.69531,10.51562 h 0.22266 v 0.37695 l 0.0254,0.0352 0.002,0.01 0.002,0.002 0.15821,0.1543 v 0.16015 l 0.004,0.008 v 0.0488 l 0.0449,0.0996 0.0469,0.10547 v 0.0332 l 4.64648,11.09765 0.0254,0.0274 0.0391,0.11523 0.0137,0.041 0.10742,0.0527 v 0.23242 l 0.008,0.0273 0.002,0.008 0.002,0.008 0.008,0.0176 0.0117,0.0312 0.01,0.0332 0.008,0.0293 0.002,0.008 0.004,0.0117 0.002,0.008 0.002,0.006 0.0254,0.0801 0.0254,0.0781 v 0.0215 l 3.55274,11.64453 0.002,0.002 v 0.002 l 0.0488,0.0976 0.10156,0.10156 v 0.21876 0.0703 l 0.0176,0.0547 v 0.0625 l 2.4375,12.26953 0.002,0.008 0.004,0.0176 v 0.002 l 0.002,0.006 v 0.002 0.002 0.002 l 0.002,0.004 v 0.002 0.004 l 0.002,0.004 0.002,0.008 0.002,0.006 v 0.004 l 0.002,0.002 v 0.006 l 0.0156,0.0645 0.0156,0.0625 v 0.0176 l 0.004,0.0176 0.0137,0.0605 v 0.0605 0.0137 l 0.002,0.01 v 0.0312 l 1.2207,12.61914 0.002,0.0215 v 0.002 0.002 l 0.008,0.043 v 0.0293 0.0137 l 0.002,0.0176 0.002,0.0254 0.002,0.0215 v 0.0195 0.0234 0.0195 0.0234 0.0176 0.0293 0.002 0.002 0.002 0.002 0.002 l -0.0469,12.6875 v 0.002 0.002 0.0254 0.041 0.0391 0.0391 0.0527 0.0606 l -0.0137,0.0586 -0.002,0.008 v 0.006 l -0.006,0.0195 v 0.004 0.0195 l -0.01,0.0391 v 0.002 0.002 l -0.002,0.004 v 0.002 0.006 l -0.004,0.0254 -1.28711,12.31836 v 0.01 0.01 0.0234 0.0195 l -0.002,0.0215 -0.002,0.0195 v 0.006 0.0137 l -0.002,0.0176 v 0.004 l -0.002,0.0254 v 0.006 0.006 0.0664 0.125 l -0.0332,0.0645 v 0.0488 l -0.0137,0.0273 v 0.084 l -0.002,0.004 v 0.004 l -0.0508,0.0977 -0.002,0.006 -2.49609,12.08593 v 0.004 l -0.002,0.006 v 0.002 0.006 0.0293 l -0.0156,0.0547 -0.002,0.008 v 0.002 l -0.002,0.004 v 0.002 0.004 0.008 l -0.002,0.008 -0.002,0.01 -0.004,0.008 v 0.002 0.002 0.004 l -0.002,0.01 -0.002,0.0195 -0.002,0.004 v 0.004 l -0.0254,0.17188 -0.0254,0.17187 -0.0762,0.0781 -3.68164,11.76366 v 0.0781 0.21485 0.21484 l -0.1504,0.1543 -0.15039,0.1543 -0.002,0.002 -0.0293,0.0312 -4.69531,10.98828 v 0.0625 l -0.0566,0.11328 -0.0586,0.11524 -0.002,0.002 -0.002,0.004 -0.008,0.0254 -0.0215,0.0644 -0.0195,0.0586 -0.0273,0.043 v 0.006 l -0.041,0.0625 -0.002,0.002 -0.0371,0.0586 -0.004,0.008 -0.0273,0.041 -0.008,0.0137 -0.002,0.002 -0.008,0.0176 -0.0156,0.0195 -0.0156,0.0332 -0.0117,0.0117 -5.93164,10.76172 v 0.11524 l -0.10937,0.14257 -0.0234,0.0312 v 0.082 l -0.15234,0.15429 -0.0937,0.0937 -6.98242,10.13478 v 0.36719 h -0.25977 l -0.004,0.004 -0.0117,0.0156 -0.0176,0.0195 -0.002,0.002 -0.008,0.01 -0.008,0.008 -0.002,0.002 -0.008,0.01 v 0.002 l -0.0176,0.0195 -0.004,0.004 -0.008,0.008 -8.03321,9.4707 -0.0293,0.0625 -0.0273,0.0274 -0.01,0.0215 -0.0469,0.0449 -0.0644,0.126958 -0.14649,0.29101 h -0.22265 l -8.74805,8.4375 v 0.0723 0.5293 h -0.5293 -0.15625 l -9.51757,7.49804 v 0.0234 l -0.16211,0.10742 -0.006,0.006 -0.043,0.0254 -0.002,0.002 -0.004,0.002 v 0.002 l -0.0117,0.008 h -0.002 l -0.01,0.008 -0.10547,0.082 -0.0215,0.0176 -0.004,0.004 h -0.002 l -0.13283,0.10742 -0.002,0.002 -0.004,0.002 -0.14062,0.11328 -0.14453,0.11524 h -0.10547 l -6.82226,4.49218 -0.008,0.006 -0.0469,0.043 -0.0547,0.0293 -0.0391,0.0215 -0.008,0.004 -0.0293,0.0156 -0.002,0.002 -0.002,0.002 h -0.002 l -0.002,0.002 -0.002,0.004 h -0.002 l -0.002,0.004 -0.0117,0.01 -0.0312,0.0234 -0.0371,0.0273 -0.14063,0.10352 h -0.0742 l -10.92578,5.92773 -0.006,0.006 -0.0527,0.043 -0.0625,0.0273 -0.0176,0.008 -0.0117,0.008 -0.01,0.006 -0.0176,0.0176 -0.0215,0.008 -0.0508,0.0234 -0.084,0.082 h -0.0957 l -11.50196,4.82226 -0.0273,0.0254 -0.0586,0.0195 v 0.01 l -0.16993,0.0566 h -0.002 l -0.0703,0.0371 h -0.0176 l -0.0391,0.0195 h -0.0137 l -0.0274,0.0137 h -0.0254 -0.002 l -0.002,0.002 h -0.002 l -0.004,0.002 -0.10157,0.0547 h -0.0859 l -0.0742,0.0234 -0.0781,0.0254 h -0.0195 l -11.61133,3.55468 -0.0117,0.008 -0.0703,0.0215 -0.0215,0.008 -0.082,0.0488 h -0.0293 l -0.004,0.002 -0.11328,0.0586 h -0.12695 -0.0254 l -0.0273,0.006 h -0.006 l -0.01,0.002 -0.008,0.002 h -0.002 l -0.0176,0.004 -0.0273,0.006 h -0.002 l -12.24024,2.4414 -0.0234,0.0117 -0.11328,0.0586 h -0.12696 -0.11523 l -0.0312,0.008 h -0.0352 l -0.01,0.002 h -0.0274 -0.002 l -12.63672,1.230474 h -0.004 -0.006 l -0.0254,0.002 -0.0215,0.002 h -0.0117 -0.008 l -0.0176,0.002 h -0.0117 l -0.01,0.002 h -0.0137 -0.006 l -0.0195,0.002 -0.0215,0.002 h -0.0195 -0.0234 -0.0195 -0.0234 -0.0176 -0.0273 -0.002 -0.004 -0.002 -0.002 -0.002 l -12.6875,-0.0391 h -0.002 -0.002 -0.0215 -0.0371 -0.041 -0.0371 -0.041 -0.0371 l -0.0371,-0.006 -0.0332,-0.006 h -0.008 -0.004 -0.004 -0.0352 l -0.0488,-0.01 -0.006,-0.002 h -0.01 l -12.47657,-1.289054 h -0.0293 l -0.0117,-0.002 h -0.0488 -0.13282 l -0.0469,-0.0254 h -0.002 l -0.0156,-0.004 h -0.043 -0.12695 l -0.11328,-0.0586 -0.0391,-0.0195 -12.05664,-2.48242 h -0.0528 -0.23242 l -0.0273,-0.0547 -0.0703,-0.0254 h -0.002 l -0.008,-0.004 -0.0137,-0.004 -0.0644,-0.0195 -11.82032,-3.69531 h -0.0195 l -0.0879,-0.0312 -0.0352,-0.0137 -0.0137,-0.004 -0.006,-0.002 -0.002,-0.002 h -0.002 l -0.004,-0.002 h -0.002 l -0.006,-0.002 -0.0176,-0.006 -0.0137,-0.004 -0.01,-0.004 h -0.002 l -0.004,-0.002 -0.008,-0.002 -0.0117,-0.004 -0.0117,-0.004 -0.0469,-0.0156 h -0.0246 -0.16211 l -0.13476,-0.0918 -0.12891,-0.0879 -0.004,-0.002 -0.0176,-0.0117 -11.17969,-4.76562 h -0.008 -0.16211 l -0.11523,-0.0781 h -0.006 l -0.12696,-0.0781 -0.0918,-0.0566 -0.0645,-0.0215 -0.11132,-0.0371 -0.084,-0.0801 -0.0293,-0.0273 -10.875,-5.98242 h -0.002 l -0.0137,-0.008 -0.043,-0.0234 -0.0606,-0.0312 -0.0117,-0.008 h -0.004 v -0.002 l -0.006,-0.002 -0.004,-0.002 h -0.002 l -0.004,-0.002 -0.002,-0.002 -0.0254,-0.0117 -0.01,-0.01 -0.0137,-0.008 h -0.002 l -0.0566,-0.0332 -0.0527,-0.0312 -0.0449,-0.043 -0.008,-0.006 -0.082,-0.0547 -0.004,-0.008 -10.25782,-7.06445 -0.0195,-0.01 -0.0215,-0.0176 -0.006,-0.004 h -0.002 l -0.0117,-0.008 -0.0312,-0.0195 -0.01,-0.006 -0.01,-0.006 -0.002,-0.002 -0.002,-0.002 -0.0527,-0.0332 -0.0137,-0.008 h -0.0176 l -0.0859,-0.084 -0.0117,-0.008 -0.0234,-0.0274 -0.01,-0.0117 v -0.002 h -0.002 l -0.004,-0.002 -0.0156,-0.01 -0.0273,-0.0293 -0.002,-0.002 v -0.002 h -0.002 l -0.006,-0.004 -0.004,-0.004 -0.008,-0.008 -9.48047,-8.03124 -0.0527,-0.0293 -0.0469,-0.0449 -0.0547,-0.0527 -0.004,-0.004 -0.004,-0.002 -0.006,-0.004 -0.01,-0.0117 -0.01,-0.008 -0.0234,-0.0176 -0.004,-0.004 -0.004,-0.004 -0.0566,-0.0449 -0.0488,-0.0371 -0.0371,-0.0488 -0.0391,-0.0488 -0.008,-0.008 -0.0195,-0.0156 -0.10351,-0.0879 -0.0234,-0.0625 -8.52539,-8.824218 -0.0352,-0.0215 -0.0566,-0.0664 -0.0195,-0.0254 -0.004,-0.004 -0.002,-0.002 v -0.002 l -0.002,-0.002 -0.008,-0.008 -0.11914,-0.11719 v -0.002 l -0.002,-0.002 -0.1543,-0.15625 -0.15234,-0.1543 v -0.0898 l -7.45313,-9.44727 h -0.0254 l -0.11133,-0.16797 -0.002,-0.002 -0.01,-0.0156 -0.002,-0.002 -0.11914,-0.12109 v -0.0371 -0.002 l -0.0156,-0.0195 -0.004,-0.004 v -0.002 l -0.10742,-0.13281 -0.002,-0.002 -0.002,-0.004 -0.11328,-0.14062 -0.11523,-0.14453 v -0.10547 l -4.48243,-6.80275 -0.0156,-0.0176 -0.0488,-0.0508 -0.0332,-0.0625 v -0.002 l -0.0176,-0.0176 -0.002,-0.006 h -0.0625 l -0.082,-0.24218 -0.0644,-0.0664 v -0.0918 l -5.88476,-10.82226 -0.0312,-0.0332 -0.0352,-0.0742 -0.0371,-0.0801 -0.002,-0.004 -0.004,-0.006 -0.0488,-0.0645 -0.002,-0.008 -0.006,-0.006 -0.1543,-0.15625 v -0.12305 l -0.004,-0.006 v -0.0879 l -0.043,-0.0957 -0.0469,-0.10547 v -0.0352 l -4.66601,-11.10937 -0.0254,-0.0274 -0.0332,-0.0996 -0.0195,-0.0586 -0.0137,-0.0215 -0.01,-0.0312 -0.002,-0.002 v -0.002 -0.002 -0.002 l -0.002,-0.002 -0.004,-0.01 -0.0371,-0.0703 v -0.0273 l -0.0625,-0.0625 v -0.13477 l -0.002,-0.01 -0.002,-0.002 v -0.002 -0.002 l -0.002,-0.006 -0.002,-0.008 -0.002,-0.004 -0.002,-0.01 -0.002,-0.004 v -0.002 l -0.01,-0.0273 -0.002,-0.008 -0.002,-0.006 -0.006,-0.0137 v -0.004 l -0.0195,-0.0625 -0.0254,-0.0781 v -0.0195 l -3.5625,-11.61132 -0.01,-0.0137 -0.0234,-0.0762 -0.01,-0.0352 -0.043,-0.082 -0.0586,-0.11328 v -0.1289 -0.0156 l -0.0176,-0.0605 -0.004,-0.0117 v -0.0156 l -0.006,-0.0176 v -0.0684 l -2.4375,-12.17968 -0.0156,-0.0293 -0.0566,-0.11133 v -0.125 -0.10742 l -0.006,-0.0176 v -0.0449 l -0.002,-0.0176 -0.002,-0.0195 -0.002,-0.0156 v -0.01 l -0.002,-0.008 v -0.0156 l -1.23438,-12.5957 v -0.004 -0.006 l -0.002,-0.0254 -0.002,-0.0215 v -0.0117 -0.008 l -0.002,-0.0137 v -0.004 -0.002 l -0.002,-0.0195 -0.002,-0.0137 v -0.004 -0.004 l -0.008,-0.0918 -0.01,-0.10547 z m 260.09179,1.32812 0.002,-0.0215 -0.002,0.006 z m 7.5918,-120.09765 -0.27539,-0.58203 -0.35547,0.46484 z m 40.21094,102.27929 0.1582,-0.79297 -0.70703,0.19532 z m 1.91211,4.1543 0.0391,-0.0606 -0.13086,-0.0371 z m 12.30859,-110.60742 -0.0449,-0.3418 -0.29492,0.28711 z"
       style="fill:#030200;fill-opacity:1;stroke-width:1.80377805;paint-order:stroke fill markers;filter:url(#filter4882)" />
    <path
       style="fill:#412b05;fill-opacity:1;stroke-width:1.80377805;paint-order:stroke fill markers;filter:url(#filter4330)"
       d="m 244.96655,-182.81479 a 228.61659,224.07958 0 0 0 -53.28556,9.06272 l -0.49418,46.8901 a 180.08866,180.08866 0 0 0 -29.05225,14.17387 180.08866,180.08866 0 0 0 -4.22331,2.78731 l -39.35552,-27.87869 a 228.61659,224.07958 0 0 0 -42.570007,40.836196 l 28.804687,40.406234 a 180.08866,180.08866 0 0 0 -16.764807,32.926561 l -50.811884,0.531406 a 228.61659,224.07958 0 0 0 -9.528045,57.507942 l 48.542018,16.285523 a 180.08866,180.08866 0 0 0 5.790531,36.4277 L 41.101062,117.43579 a 228.61659,224.07958 0 0 0 19.71871,40.24154 228.61659,224.07958 0 0 0 7.693725,11.44051 l 47.705353,-14.90163 a 180.08866,180.08866 0 0 0 26.16722,26.2677 l -14.40932,45.83851 a 228.61659,224.07958 0 0 0 53.31254,26.26865 l 28.09833,-37.71292 a 180.08866,180.08866 0 0 0 37.0838,5.96086 l 14.84952,43.98084 a 228.61659,224.07958 0 0 0 59.00071,-9.06456 l 0.49417,-46.89385 a 180.08866,180.08866 0 0 0 28.85683,-14.04727 180.08866,180.08866 0 0 0 4.41783,-2.90738 l 39.35083,27.87497 a 228.61659,224.07958 0 0 0 42.58304,-40.8213 l -28.80747,-40.41089 a 180.08866,180.08866 0 0 0 16.76948,-32.93215 l 50.8063,-0.53234 a 228.61659,224.07958 0 0 0 9.5178,-57.509796 L 435.76471,31.287898 a 180.08866,180.08866 0 0 0 -5.78866,-36.4174455 l 40.91436,-30.2909465 a 228.61659,224.07958 0 0 0 -19.55584,-40.006983 l -0.30339,-0.486736 a 228.61659,224.07958 0 0 0 -7.54854,-11.194844 l -47.70164,14.89978 a 180.08866,180.08866 0 0 0 -26.16536,-26.26307 l 14.41027,-45.841253 a 228.61659,224.07958 0 0 0 -53.30514,-26.2789 l -28.1104,37.72874 a 180.08866,180.08866 0 0 0 -37.07542,-5.95805 l -14.85046,-43.98367 a 228.61659,224.07958 0 0 0 -5.71794,-0.009 z m 4.90362,96.941642 a 127.02481,127.02481 0 0 1 114.49474,60.598647 l 0.16844,0.276405 a 127.02481,127.02481 0 0 1 -42.46111,174.491236 127.02481,127.02481 0 0 1 -174.51825,-42.35036 127.02481,127.02481 0 0 1 42.2387,-174.545226 127.02481,127.02481 0 0 1 60.07748,-18.470702 z"
       id="path4267"
       inkscape:connector-curvature="0" />
    <path
       style="fill:#5c4722;fill-opacity:1;stroke-width:1.80377805;paint-order:stroke fill markers;filter:url(#filter6610)"
       d="m 224.21484,-168.93164 -0.006,0.002 -20.97265,4.22266 -0.40625,38.04297 -0.004,0.34179 -0.004,0.3418 -0.004,0.31836 v 0.002 0.002 0.002 0.002 0.006 0.004 0.006 0.004 0.006 0.006 0.004 l -0.006,0.29883 v 0.004 0.006 0.002 0.004 0.004 0.004 0.002 0.004 0.002 l -0.004,0.33789 -0.004,0.3125 v 0.002 0.002 0.002 0.002 0.006 0.008 0.008 0.006 0.008 0.008 0.006 0.008 0.008 l -0.008,0.26563 v 0.002 0.002 0.006 0.002 0.004 0.006 0.006 0.006 0.004 0.008 0.008 0.01 0.008 0.0117 0.0117 l -0.0117,0.24805 v 0.002 0.002 0.004 0.002 0.004 0.004 0.004 0.002 0.004 0.004 0.008 0.006 0.004 0.006 0.004 0.006 0.004 0.006 0.006 l -0.006,0.26758 v 0.004 0.004 0.002 0.002 0.002 0.004 0.004 0.002 0.004 0.002 0.004 0.006 0.004 0.004 0.004 0.004 l -0.004,0.27344 v 0.002 0.002 0.002 0.002 0.004 0.008 0.008 0.0117 0.008 0.01 0.008 0.0117 0.0117 0.008 0.01 0.0117 0.01 0.01 0.0117 0.01 0.0117 0.0117 0.0137 0.0137 l -0.01,0.17383 v 0.006 0.004 0.002 0.006 0.002 0.004 0.008 0.004 0.008 0.004 0.006 0.004 0.006 0.004 0.006 0.004 0.006 0.004 0.006 l -0.006,0.33398 -0.006,0.33984 -0.006,0.33985 -0.006,0.33984 -0.006,0.33985 -0.006,0.33984 -0.006,0.33984 -0.006,0.33985 -0.006,0.33984 v 0.002 l -0.008,0.33985 -0.008,0.33789 -0.3086,0.13476 -0.3125,0.13672 -0.002,0.002 h -0.002 l -0.2168,0.0937 -0.0918,0.0391 -0.002,0.002 -0.12305,0.0527 -0.0176,0.0176 -0.15625,0.1543 h -0.21875 l -0.0176,0.008 -0.0352,0.0137 -0.004,0.004 -0.0312,0.0293 -0.15429,0.15234 -0.1543,0.15235 h -0.2168 -0.0332 l -0.0547,0.0547 -0.1543,0.15235 -0.15429,0.15234 h -0.2168 -0.0332 l -0.0547,0.0547 -0.1543,0.15234 -0.15429,0.15235 h -0.2168 -0.2168 -0.21679 -0.13672 l -0.0684,0.0215 -0.11133,0.0352 -0.0254,0.0137 -0.0566,0.0312 -0.0137,0.004 -0.0176,0.0156 -0.10352,0.0352 -0.0273,0.01 -0.0352,0.0234 -0.0273,0.008 -0.0176,0.0137 -0.0859,0.0254 -0.0156,0.004 -0.01,0.008 -0.0351,0.0137 -0.0176,0.0176 -0.041,0.0137 -0.006,0.006 -0.0859,0.0273 -0.006,0.004 -0.0566,0.0293 -0.0312,0.006 -0.0625,0.0273 -0.006,0.004 -0.041,0.0156 -0.002,0.002 -0.0449,0.0195 -0.004,0.004 -0.006,0.002 -0.0391,0.0156 -0.002,0.002 -0.0117,0.004 -0.01,0.006 -0.0156,0.008 -0.008,0.002 -0.008,0.004 -0.15625,0.0664 -0.006,0.004 -0.0449,0.0195 -0.0664,0.0273 -0.01,0.006 -0.004,0.002 -0.006,0.002 -0.006,0.004 -0.21093,0.0898 -0.006,0.004 -0.0859,0.0371 -0.004,0.002 -0.004,0.002 -0.2168,0.0937 -0.0918,0.041 -0.30859,0.13282 -0.002,0.002 -0.31054,0.13477 -0.3125,0.13672 -16.05078,7.07031 -11.27539,6.21679 v 0.36329 0.52929 0.5293 0.5293 0.52929 0.5293 0.529297 0.529297 0.529297 h -0.5293 -0.5293 -0.52929 -0.5293 -0.2832 v 0.121093 h -0.5293 -0.5293 -0.5293 -0.52929 -0.5293 -0.5293 -0.52929 -0.5293 -0.39062 l -0.0117,0.0078 h -0.12305 l -0.11133,0.07813 -0.13672,0.0957 h -0.0234 l -0.0137,0.0098 -0.13476,0.0918 -0.13477,0.0918 -0.13476,0.0918 h -0.0234 l -0.44531,0.298828 -0.002,0.002 -0.13086,0.08789 -0.13476,0.0918 h -0.006 -0.002 l -0.125,0.08594 -0.002,0.002 -0.13281,0.0918 h -0.006 l -0.14453,0.09766 -0.0664,0.06445 v -0.002 l -0.15429,0.152344 -0.1543,0.152343 h -0.16992 l -0.11914,0.08398 -0.13672,0.0957 h -0.006 -0.002 l -0.002,0.002 -0.15234,0.15039 -0.1543,0.152344 -0.15429,0.152344 h -0.2168 -0.004 l -0.12109,0.08398 -0.13672,0.0957 -0.0156,0.01367 -0.0273,0.01367 -0.0234,0.01953 -0.006,0.0059 -0.01,0.0098 h -0.002 l -0.002,0.002 -0.004,0.0039 -0.15235,0.150391 -0.15429,0.152343 h -0.15821 l -0.125,0.08789 -0.13672,0.0957 h -0.041 l -0.0156,0.0098 -0.01,0.0059 -0.80078,0.541016 h -0.002 l -0.82422,0.554687 -0.82421,0.554688 -0.82422,0.554687 -0.82422,0.554688 -0.82422,0.554687 -0.82422,0.554688 v -0.994141 -0.994141 -0.99414 -0.994141 -0.99414 -0.994141 -0.373047 h -0.26172 -0.5293 v -0.222656 h -0.51171 -0.5293 v -0.414063 h -0.0664 -0.52929 v -0.460937 h -0.29493 v -0.529297 -0.529297 -0.529301 -0.52929 -0.5293 -0.41797 l -0.20703,-0.10351 -0.29297,-0.14649 v -0.32617 -0.14258 l -0.002,-0.002 h -0.002 l -0.23242,-0.15625 -0.23633,-0.15625 v -0.14649 l -0.0664,-0.0469 -0.22656,-0.15821 -0.22656,-0.1582 -0.22657,-0.1582 v -0.043 l -27.68164,-19.60352 -10.22265,8.35352 -15.246096,15.201173 -2.828125,3.316406 23.550781,33.015625 0.19727,0.277344 0.19726,0.277344 0.19727,0.277343 0.19726,0.277344 0.19727,0.277344 0.19726,0.277344 0.19727,0.277343 0.19726,0.277344 0.19727,0.277344 0.19727,0.277344 0.19726,0.277343 0.19727,0.277344 0.19726,0.277344 0.19727,0.277344 0.19726,0.277343 0.19727,0.277344 0.19727,0.277344 0.19726,0.277344 0.19727,0.277343 0.19726,0.277344 0.19727,0.277344 0.19726,0.277344 -0.17187,0.294922 -0.17188,0.294921 -0.17187,0.294922 -0.17188,0.294922 -0.17187,0.294922 -0.17188,0.294922 -0.17187,0.294922 -0.12695,0.21875 v 0.01172 l -0.0742,0.125 -0.0742,0.125 -0.002,0.0039 v 0.002 l -0.0469,0.07617 v 0.148437 0.214844 l -0.15039,0.154297 -0.15039,0.154297 -0.12891,0.132812 v 0.171875 0.529297 h -0.2207 v 0.185547 l -0.15039,0.154297 -0.15039,0.154297 -0.15039,0.154297 -0.002,0.002 -0.002,0.0039 -0.0156,0.01367 -0.004,0.0039 v 0.002 l -0.0879,0.128906 -0.0352,0.05078 v 0.03906 0.203125 0.203125 l -0.13476,0.150391 -0.0234,0.02539 v 0.115234 0.216797 l -0.15234,0.154297 -0.15235,0.154296 -0.15234,0.154297 -0.15234,0.154297 -0.15235,0.154297 v 0.0039 l -0.1543,0.15625 h -0.002 v 0.002 l -0.002,0.002 -0.0469,0.04492 -0.0351,0.103515 -0.084,0.08594 -0.082,0.08398 -0.0117,0.01172 -0.0215,0.04492 -0.0371,0.07227 -0.041,0.04297 -0.0117,0.02539 -0.0527,0.05664 -0.0566,0.06055 -0.043,0.04687 -8.22266,14.216797 -6.585933,14.644531 v 0.06641 0.125 0.125 l -0.02539,0.05078 v 0.34375 0.529297 0.529296 0.529297 0.529297 0.529297 0.529297 0.529297 0.529297 0.529297 0.529297 0.529296 0.529297 0.529297 0.529297 H 98.849609 98.328125 97.798828 97.277344 96.75 96.220703 l -0.101562,0.257813 -0.128907,0.332031 -0.357422,0.0039 -0.357421,0.0039 -0.357422,0.0039 -0.357422,0.0039 -0.357422,0.0039 -0.357422,0.0039 -0.357422,0.0039 -0.357422,0.0039 -0.357421,0.0039 -0.357422,0.0039 -0.357422,0.0039 -0.357422,0.0039 -0.357422,0.0039 -0.357422,0.0039 -0.357422,0.0039 -0.357422,0.0039 -0.357422,0.0039 -0.357421,0.0039 -0.357422,0.0039 -0.355469,0.0039 h -0.0039 -0.002 -0.0039 -0.002 -0.0039 -0.002 -0.0039 -0.002 -0.0039 -0.002 -0.0039 -0.002 -0.0039 -0.002 -0.0039 -0.002 -0.0039 -0.002 -0.0039 -0.002 -0.0039 -0.002 -0.0039 -0.0039 -0.0039 -0.002 -0.002 -0.002 -0.002 -0.0039 -0.002 -0.002 l -0.183594,0.0059 h -0.0078 -0.0078 -0.0059 -0.0078 -0.0059 -0.0078 -0.0078 -0.0059 -0.0059 -0.0059 -0.0059 -0.0059 -0.0059 -0.0078 -0.0059 -0.0039 -0.0078 -0.0039 -0.0059 -0.0039 -0.0078 -0.0059 -0.0039 -0.0078 -0.0039 -0.0078 -0.0039 -0.002 -0.0039 -0.0039 -0.0039 -0.0039 -0.002 -0.002 -0.002 -0.002 -0.0039 -0.002 -0.0039 -0.002 l -0.111328,0.0059 h -0.01172 -0.01172 -0.0098 -0.0098 -0.0078 -0.0098 -0.0078 -0.0078 -0.0078 -0.0078 -0.0059 -0.0078 -0.0078 -0.0059 -0.0078 -0.0059 -0.0059 -0.0059 -0.0059 -0.0059 -0.0059 -0.0059 -0.0039 -0.0059 -0.0039 -0.0078 -0.0039 -0.0059 -0.0059 -0.0039 -0.0078 -0.0039 -0.0078 -0.002 -0.0078 -0.0039 -0.0039 -0.002 -0.002 -0.002 H 88 l -41.697266,0.425782 -3.142578,12.5957029 -3.089844,21.1015621 -0.246093,4.044922 38.77539,13.013672 h 0.04492 l 0.07227,0.02539 h 0.05469 l 0.07617,0.02734 h 0.002 0.13086 0.130859 0.13086 0.132812 0.134766 l 0.117187,0.06445 0.111328,0.06055 0.0039,0.002 0.01367,0.0078 h 0.08398 l 0.113281,0.05859 0.04102,0.02148 h 0.324218 0.529297 0.529297 0.529297 0.529297 0.529297 0.529297 0.529297 0.529296 0.529297 0.529297 v 0.002 h 0.0059 v 0.529297 0.529297 0.529297 0.429687 l 0.148437,0.04883 0.330078,0.107421 0.330078,0.107422 0.330078,0.107422 0.330079,0.107422 0.01172,0.128906 h 0.189453 0.529297 v 0.529297 0.529297 0.529297 0.529297 0.529297 0.529297 0.529296 0.529297 0.529297 0.529297 0.529297 0.529297 0.529297 0.40625 l 0.0059,0.02539 0.01367,0.05859 v 0.05859 0.06055 0.05859 0.02344 l 0.002,0.0039 0.04687,0.105469 v 0.113281 0.113282 0.04687 0.0039 l 0.01563,0.05859 0.01563,0.06445 v 0.06445 0.0625 0.06445 0.0625 0.06445 0.0625 l 0.0098,0.08984 0.01367,0.04492 0.02344,0.07617 v 0.08008 0.04102 l 0.0098,0.04102 v 0.05859 0.0625 0.05859 0.0625 0.05859 0.05078 0.05273 0.0078 0.0078 l 1.609375,15.34375 3.22461,15.451172 0.103515,0.105468 0.152344,0.154297 v 0.216797 0.113281 l 0.002,0.0039 0.06641,0.121093 0.06445,0.119141 v 0.06445 l 0.002,0.0039 0.05859,0.113282 0.05859,0.113281 0.05859,0.113281 v 0.128906 0.128907 0.128906 0.128906 0.128906 0.128907 0.128906 0.111328 l 0.0059,0.0059 v 0.152344 l 0.07422,0.28125 0.0918,0.347656 0.0918,0.347657 0.0918,0.347656 0.0918,0.347656 0.0918,0.347656 0.0918,0.347657 0.0918,0.347656 0.0918,0.347656 0.0918,0.347656 0.0918,0.347657 0.0918,0.347656 0.0918,0.347656 0.0918,0.347656 0.0918,0.347657 0.0918,0.347656 0.0918,0.347656 0.0918,0.347656 0.0918,0.347657 0.0918,0.347656 0.0918,0.347656 L 95,92.121094 l -0.289062,0.21289 -0.289063,0.212891 -0.289063,0.212891 -0.289062,0.21289 -0.289062,0.212891 -0.289063,0.212891 -0.289063,0.21289 -0.289062,0.212891 -0.289062,0.21289 -0.289063,0.212891 -0.289063,0.212891 -0.289062,0.21289 -0.289062,0.212891 -0.289063,0.21289 -0.289063,0.212891 -0.289062,0.212891 -0.289062,0.21289 -0.289063,0.212891 -0.289063,0.212891 -0.289062,0.21289 -0.289062,0.212891 -33.486329,24.792973 5.035157,11.7539 10.193359,18.42969 0.0039,0.006 2.644531,3.91992 37.470704,-11.7207 v -0.0273 -0.52929 h 0.52929 0.5293 0.19336 l 0.15234,-0.15039 0.1543,-0.15235 0.1543,-0.15234 0.15429,-0.15234 h 0.2168 0.2168 0.13476 l 0.0879,-0.0859 h 0.21485 0.21484 0.16797 l 0.008,-0.008 0.1543,-0.15234 h 0.2168 0.21679 0.18164 l 0.006,-0.006 0.1543,-0.15234 h 0.1582 v -0.29883 h 0.5293 0.5293 0.39453 l 0.0312,-0.0312 h 0.002 l 0.002,-0.002 h 0.20703 l 0.0723,-0.0449 h 0.13477 l 0.0293,-0.0156 h 0.11328 l 0.0859,-0.0312 0.0879,-0.0312 h 0.0508 l 0.0391,-0.0137 0.006,-0.002 0.004,-0.002 0.002,-0.002 0.0117,-0.006 0.10157,-0.0527 0.11328,-0.0586 h 0.1289 0.0117 l 0.0762,-0.041 h 0.10352 l 0.002,-0.002 0.11524,-0.0586 0.11328,-0.0566 h 0.12695 0.006 l 0.004,-0.002 0.0684,-0.0215 h 0.002 l 0.0254,-0.008 h 0.002 l 0.0762,-0.0234 0.0391,-0.0117 0.0117,-0.004 0.01,-0.004 0.0156,-0.004 0.004,-0.002 0.15625,-0.0469 0.0156,-0.006 0.01,-0.004 0.0195,-0.006 0.008,-0.002 0.008,-0.004 0.0312,-0.01 v 0.002 l 0.24805,-0.0781 0.004,-0.002 H 119 l 0.0234,-0.008 0.0449,-0.0156 h 0.004 l 0.25,-0.0781 h 0.002 l 0.01,-0.004 -0.14062,-0.60742 0.61914,0.45898 0.16602,-0.0508 0.22656,0.25977 0.041,0.0469 0.16016,0.1836 0.006,0.004 0.0156,0.0176 h 0.002 l 0.20898,0.23633 h 0.006 l 0.1582,0.18359 0.0781,0.0899 0.008,0.01 0.0273,0.0293 h 0.0176 l 0.15821,0.18359 0.1582,0.1836 0.1582,0.18359 h 0.006 l 0.12891,0.15234 h 0.28515 v 0.29102 l 0.0664,0.0332 0.29102,0.14649 0.29101,0.14648 0.29102,0.14649 v 0.32617 0.0566 h 0.36914 v 0.0137 h 0.36914 0.5293 0.52929 0.5293 0.5293 0.52929 0.5293 0.5293 v 0.5293 0.52929 0.5293 0.5293 0.5293 0.52929 0.5293 0.5293 0.52929 0.22071 l 0.002,0.002 v 0.12305 l 0.12695,0.13476 0.14454,0.15235 0.14453,0.15234 v 0.13867 l 8.9707,10.01367 11.19727,10.23828 h 0.0879 0.21679 l 0.1543,0.15235 0.1543,0.15234 0.13476,0.13281 h 0.01 l 0.15429,0.15235 0.1543,0.15234 0.004,0.004 h 0.006 l 0.15429,0.15234 0.1543,0.15234 0.004,0.004 h 0.008 l 0.1543,0.15235 0.0957,0.0937 h 0.0117 0.5293 0.52929 0.5293 v 0.5293 0.48828 l 0.29297,0.14649 0.29297,0.14648 0.29297,0.14649 0.29296,0.14648 0.29297,0.14648 0.29297,0.14649 0.29297,0.14648 v 0.32618 0.32617 0.14453 l 0.19336,0.0957 v 0.17774 l 0.23633,0.15625 0.23633,0.1582 v 0.2832 0.0195 l 0.1875,0.15235 v 0.0176 l 0.0332,0.0293 h 0.002 l 0.27539,0.22852 0.27735,0.22851 0.27734,0.22852 0.27734,0.22852 0.27735,0.22851 0.27734,0.22852 0.27735,0.22851 -0.10938,0.3418 -0.10938,0.3418 -0.10937,0.34179 -0.10937,0.3418 -0.10938,0.3418 -0.10938,0.34179 -0.10937,0.3418 -0.10937,0.3418 -0.10938,0.34179 -0.10938,0.3418 -0.10937,0.3418 -0.10937,0.34179 -0.10938,0.3418 -0.10938,0.3418 -0.10937,0.3418 -0.0312,0.0957 v 0.002 0.0859 l -0.0254,0.0723 v 0.15235 0.21484 0.21485 0.21484 0.21484 0.21485 0.21484 0.21484 l -0.0879,0.0899 v 0.008 0.21484 0.21485 l -0.082,0.084 v 0.20703 l -0.15235,0.1543 -0.15234,0.1543 -0.13281,0.13476 v 0.0703 l -0.15235,0.15429 -0.15234,0.1543 -0.15234,0.1543 -0.12305,0.125 -11.1875,35.53125 11.43945,6.83007 17.66016,8.27539 h 0.125 0.13086 l 0.11523,0.0605 0.11524,0.0606 0.11523,0.0606 0.004,0.002 h 0.0508 l 0.11914,0.0664 0.11328,0.0625 0.004,0.002 0.004,0.002 h 0.0215 l 0.12109,0.0684 0.11914,0.0664 0.002,0.002 0.10937,0.0606 0.002,0.002 0.004,0.002 h 0.002 0.17969 l 0.10156,0.10547 0.13867,0.0332 0.14063,0.0332 0.0996,0.0976 0.0332,0.0117 0.10547,0.0352 0.10547,0.0352 0.082,0.0742 0.082,0.0742 0.006,0.006 3.95703,1.48633 21.78516,-29.24805 v -0.01 -0.21875 -0.21875 l 0.004,-0.004 v -0.002 l 0.0176,-0.0176 v -0.002 l 0.13672,-0.13672 0.0176,-0.0176 v -0.002 l 0.0293,-0.0293 v -0.16992 -0.5293 -0.5293 -0.52929 -0.5293 -0.5293 h 0.52929 0.5293 0.5293 0.52929 0.25196 l 0.008,-0.0117 0.0254,-0.0274 0.0898,-0.11719 h 0.002 l 0.004,-0.006 0.002,-0.002 0.002,-0.004 0.0234,-0.0312 0.0176,-0.0215 0.002,-0.004 0.004,-0.004 0.002,-0.002 0.0156,-0.0254 0.0117,-0.0117 0.12891,-0.17383 0.004,-0.004 0.0195,-0.0273 0.004,-0.004 0.17969,-0.24219 0.20312,-0.27343 0.20313,-0.27344 0.20312,-0.27344 0.20313,-0.27344 0.20312,-0.27343 0.20313,-0.27344 0.20312,-0.27344 0.20313,-0.27344 0.20312,-0.27343 0.20313,-0.27344 0.20312,-0.27344 0.20313,-0.27344 0.33203,0.0723 0.33398,0.0723 h 0.002 l 0.27539,0.0605 0.0215,0.004 0.0332,0.008 h 0.002 l 0.22461,0.0488 0.01,0.002 0.0391,0.01 h 0.004 0.004 l 0.0566,0.0117 0.2207,0.0488 h 0.0293 l 0.0488,0.0156 0.004,0.002 0.008,0.002 0.01,0.002 h 0.002 l 0.006,0.002 0.008,0.002 0.0195,0.004 h 0.004 l 0.17773,0.0391 0.008,0.002 h 0.002 l 0.008,0.002 0.008,0.002 0.0254,0.006 0.004,0.002 h 0.006 l 0.0117,0.004 0.01,0.002 h 0.002 l 0.0176,0.004 0.0234,0.006 h 0.002 l 0.0137,0.004 0.0996,0.0215 h 0.004 0.082 l 0.0469,0.0156 h 0.0117 l 0.0156,0.006 h 0.002 l 0.0137,0.006 h 0.004 0.0859 l 0.0644,0.0332 h 0.0332 0.125 l 0.0469,0.0234 h 0.0742 l 0.10742,0.0566 h 0.0195 0.13281 l 0.10547,0.0566 0.0137,0.008 0.043,0.0215 0.0391,0.008 h 0.004 0.01 l 0.0273,0.008 0.0195,0.004 h 0.002 0.004 0.0195 l 0.006,0.002 h 0.0566 0.16602 0.16601 0.16602 0.16602 l 0.13672,0.0957 0.0957,0.0684 0.0351,0.0117 0.0274,0.01 h 0.13672 0.21484 0.21484 0.21485 0.21289 0.21289 l 0.1543,0.14843 0.0859,0.082 h 0.002 0.21484 0.21484 0.21485 0.21484 0.21485 0.21484 0.21484 0.21485 0.21484 l 0.1543,0.15039 0.15429,0.1504 0.1543,0.15039 0.0469,0.0449 H 213 h 0.32617 0.32617 0.32618 l 0.14648,0.29101 0.0879,0.17383 14.97266,3.25586 15.6914,1.79688 h 0.01 0.043 l 0.0449,0.008 0.0117,0.002 0.97851,0.0742 h 0.01 0.002 0.002 0.0801 0.12891 0.12891 0.12695 0.125 0.12695 0.12891 0.1289 0.12891 0.12891 0.1289 0.12891 l 0.11328,0.0586 0.11328,0.0586 h 0.002 v 0.002 l 0.49609,0.0352 h 0.008 0.002 0.002 0.004 0.0195 0.10546 0.125 0.125 0.125 l 0.0547,0.0273 0.0664,0.004 0.32031,0.0176 h 0.041 0.15039 0.15234 0.15234 0.1543 0.1582 l 0.0781,0.0508 v 0.002 h 0.002 0.0215 0.19531 l 0.0156,0.0156 0.0332,0.002 0.23437,0.0137 0.22071,0.0117 0.0117,0.0137 0.12696,0.008 0.002,0.002 0.5,0.0293 0.49805,0.0274 v 0.002 h 0.002 l 0.5,0.0293 0.49805,0.0273 v 0.002 h 0.002 l 0.5,0.0293 0.49805,0.0273 v 0.0508 l 0.10351,0.006 0.35352,0.0215 0.35351,0.0215 0.35352,0.0215 0.0723,0.20703 h 0.14062 l 0.11914,0.36523 0.11914,0.36524 0.11914,0.36523 0.0352,0.10742 h 0.43359 0.5293 0.5293 0.52929 v 0.5293 0.21875 h 0.25782 v 0.5293 0.5293 0.52929 0.5293 0.5293 0.52929 0.5293 0.5293 0.52929 0.5293 0.5293 0.20312 l 0.0332,0.084 0.0371,0.0937 v 0.10156 0.0488 l 11.5918,34.35351 13.12109,-0.96875 20.06836,-3.46289 0.0547,-0.0371 0.13476,-0.0918 h 0.0312 l 0.12891,-0.082 0.1289,-0.082 0.12891,-0.082 h 0.1543 0.15429 0.0371 l 0.11328,-0.0586 0.11329,-0.0586 h 0.1289 0.12891 0.1289 0.12891 0.12891 0.1289 0.12891 0.12891 0.1289 0.0645 l 3.68165,-0.93945 0.4082,-37.91992 v -0.002 -0.004 -0.004 -0.004 -0.004 -0.006 -0.004 -0.004 -0.004 -0.004 -0.004 -0.004 -0.004 -0.004 -0.004 -0.004 -0.004 l 0.004,-0.23047 v -0.006 -0.002 -0.002 -0.002 -0.004 -0.008 -0.01 -0.008 -0.006 -0.006 -0.006 -0.004 -0.008 -0.004 -0.006 -0.004 -0.008 -0.008 -0.008 -0.008 -0.008 -0.006 -0.006 -0.008 -0.006 -0.01 -0.008 -0.008 -0.008 -0.01 -0.008 -0.008 -0.01 -0.008 -0.01 -0.01 l 0.006,-0.13476 v -0.004 -0.008 -0.002 -0.002 -0.002 -0.002 -0.002 -0.0117 -0.01 -0.004 -0.01 -0.006 -0.008 -0.006 -0.004 -0.006 -0.004 -0.006 -0.004 -0.008 -0.008 -0.006 -0.01 -0.008 -0.006 -0.006 -0.008 -0.006 -0.008 -0.008 -0.006 -0.01 -0.008 -0.008 -0.008 l 0.006,-0.17969 v -0.004 -0.006 -0.002 -0.002 -0.002 -0.002 -0.006 -0.002 -0.004 -0.002 -0.004 -0.002 -0.004 -0.002 -0.004 -0.006 -0.006 -0.002 -0.004 -0.002 -0.004 -0.002 -0.006 -0.002 -0.004 -0.002 -0.004 -0.002 l 0.004,-0.30273 v -0.002 -0.004 -0.006 -0.004 -0.004 -0.004 -0.004 -0.004 -0.004 -0.004 -0.004 -0.004 -0.004 l 0.004,-0.2461 v -0.002 -0.004 -0.002 -0.002 -0.006 -0.006 -0.006 -0.008 -0.01 -0.008 -0.006 -0.008 -0.006 -0.008 -0.006 -0.01 -0.008 -0.0117 -0.008 -0.01 -0.01 -0.0117 -0.008 -0.01 -0.01 -0.0117 -0.01 -0.0117 -0.0137 -0.0176 l 0.002,-0.0176 0.008,-0.11133 v -0.004 -0.002 -0.006 -0.002 -0.002 -0.004 -0.002 -0.002 -0.006 -0.002 -0.008 -0.004 -0.004 -0.002 -0.004 -0.002 -0.004 -0.002 -0.004 -0.002 -0.004 -0.004 -0.006 -0.004 -0.006 -0.008 -0.008 -0.006 -0.006 -0.006 l 0.006,-0.25196 v -0.002 -0.002 -0.002 -0.002 -0.002 -0.002 -0.002 -0.004 -0.008 -0.006 -0.004 -0.008 -0.004 -0.006 -0.008 -0.006 -0.008 -0.006 -0.01 -0.006 -0.006 -0.006 -0.006 -0.006 -0.008 -0.008 -0.006 l 0.006,-0.20898 v -0.002 -0.002 -0.004 -0.002 -0.002 -0.002 -0.006 -0.008 -0.006 -0.006 -0.004 -0.006 -0.006 -0.006 -0.006 -0.004 -0.008 -0.004 -0.008 -0.004 -0.006 -0.006 -0.01 -0.008 -0.008 -0.008 -0.008 -0.01 l 0.008,-0.22265 v -0.002 -0.01 -0.002 -0.002 -0.002 -0.006 -0.008 -0.01 -0.01 -0.0117 -0.01 -0.008 -0.0117 -0.0117 -0.01 -0.0117 -0.0117 -0.01 -0.0117 -0.0137 -0.0137 -0.0137 -0.0156 -0.0137 l 0.01,-0.15625 v -0.004 -0.004 -0.006 -0.004 -0.002 -0.006 -0.01 -0.008 -0.008 -0.008 -0.008 -0.008 -0.008 -0.006 -0.008 -0.008 -0.008 -0.008 l 0.008,-0.24804 v -0.002 -0.006 -0.006 -0.002 -0.002 -0.006 -0.008 -0.008 -0.008 -0.008 -0.0117 -0.0117 -0.01 -0.0117 -0.0117 l 0.0117,-0.24414 v -0.004 -0.008 -0.004 -0.004 -0.002 -0.004 -0.008 -0.004 -0.006 -0.006 -0.006 -0.006 l 0.006,-0.26172 v -0.002 -0.006 -0.002 -0.002 -0.004 -0.006 -0.006 -0.006 -0.006 -0.008 -0.006 -0.006 -0.008 -0.006 -0.006 -0.006 -0.006 l 0.008,-0.33985 0.008,-0.33984 0.008,-0.33984 v -0.002 l 0.008,-0.30273 v -0.002 -0.002 -0.008 -0.002 -0.006 -0.008 -0.008 -0.01 -0.01 l 0.0117,-0.30469 v -0.002 -0.01 -0.004 -0.004 -0.01 -0.008 l 0.0117,-0.31835 v -0.002 -0.01 -0.006 -0.004 l 0.0117,-0.33398 0.0117,-0.33399 0.0117,-0.33398 0.30664,-0.13282 0.28516,-0.12304 v -0.002 l 0.31836,-0.13671 0.31836,-0.13868 v -0.002 l 0.31055,-0.13476 0.31054,-0.13477 h 0.002 l 0.21679,-0.0937 0.002,-0.002 0.0937,-0.041 0.0351,-0.0156 0.084,-0.082 h 0.0566 l 0.10156,-0.0996 0.043,-0.008 0.0898,-0.0898 h 0.006 l 0.002,-0.002 0.1543,-0.15235 0.1543,-0.15234 0.15429,-0.15235 h 0.2168 0.0332 l 0.0547,-0.0547 0.1543,-0.15235 0.1543,-0.15234 h 0.21679 0.2168 0.2168 0.21679 0.10157 l 0.11132,-0.0371 0.004,-0.002 0.0801,-0.0273 0.004,-0.002 0.0566,-0.0312 0.0605,-0.0195 0.0195,-0.006 0.0254,-0.0176 0.006,-0.002 0.0742,-0.0723 0.1543,-0.15039 h 0.21484 0.0977 0.002 v -0.0352 l 0.33008,-0.10938 0.006,-0.004 0.0449,-0.0234 0.0332,-0.008 0.0723,-0.0313 0.006,-0.004 0.041,-0.0156 0.002,-0.002 0.0449,-0.0195 0.004,-0.004 0.006,-0.002 0.0312,-0.0117 0.008,-0.004 h 0.002 v -0.002 l 0.0117,-0.004 0.01,-0.006 0.0156,-0.008 0.008,-0.002 0.008,-0.004 0.15625,-0.0664 0.006,-0.004 0.0449,-0.0195 0.0664,-0.0273 0.01,-0.006 0.004,-0.002 0.006,-0.002 0.008,-0.004 0.11914,-0.0527 0.004,-0.002 0.0899,-0.0371 0.004,-0.002 0.0879,-0.0371 0.004,-0.002 0.0273,-0.0117 0.0723,-0.0312 16.00195,-7.04101 0.006,-0.002 0.008,-0.004 0.008,-0.004 9.37305,-5.15429 v -0.16993 -0.38086 l 0.36132,-0.12109 0.36133,-0.12109 0.36133,-0.1211 0.36133,-0.12109 0.35937,-0.12109 h 0.002 l 0.35742,-0.1211 0.084,-0.0273 h 0.002 l 0.13671,-0.0469 3.66407,-2.41211 0.30273,-0.19922 0.30273,-0.19921 0.30274,-0.19922 0.30273,-0.19922 0.30274,-0.19922 0.30273,-0.19922 0.30274,-0.19922 0.30273,-0.19922 0.30274,-0.19921 0.30273,-0.19922 0.30273,-0.19922 0.30274,-0.19922 0.30273,-0.19922 0.30274,-0.19922 0.30273,-0.19922 0.30274,-0.19922 0.30273,-0.19922 0.30274,-0.19921 0.30273,-0.19922 0.30273,-0.19922 0.30274,-0.19922 0.30273,-0.19922 0.29492,0.20899 0.29493,0.20898 0.29492,0.20898 0.29492,0.20899 0.29492,0.20898 0.29492,0.20899 0.29493,0.20898 0.29492,0.20899 0.29492,0.20898 0.29492,0.20899 0.29492,0.20898 0.29493,0.20898 0.29492,0.20899 0.29492,0.20898 0.29492,0.20899 0.29492,0.20898 0.29492,0.20899 0.29493,0.20898 0.29492,0.20898 0.29492,0.20899 0.29492,0.20898 0.29492,0.20899 32.13282,22.76172 10.22461,-8.34766 15.25,-15.19531 2.82421,-3.3125 -23.54687,-33.01953 -0.19727,-0.27735 -0.19726,-0.27734 -0.19727,-0.27734 -0.19726,-0.27735 -0.19727,-0.27734 -0.19726,-0.27735 L 396.5,143.25 l -0.19727,-0.27734 -0.19726,-0.27735 -0.19727,-0.27734 -0.19726,-0.27735 -0.19727,-0.27734 -0.19726,-0.27734 -0.19727,-0.27735 -0.19726,-0.27734 -0.19727,-0.27734 -0.19727,-0.27735 -0.19726,-0.27734 -0.19727,-0.27734 -0.19726,-0.27735 -0.19727,-0.27734 -0.19726,-0.27735 0.17187,-0.29492 0.17188,-0.29492 0.17187,-0.29492 0.17188,-0.29492 0.17187,-0.29493 0.17188,-0.29492 0.17187,-0.29492 0.17188,-0.29492 0.17187,-0.29492 0.17188,-0.29493 0.17187,-0.29492 0.17188,-0.29492 0.15429,-0.26562 v -0.16407 -0.21679 l 0.15235,-0.1543 0.0391,-0.0391 v -0.15039 -0.2168 l 0.15234,-0.1543 0.12891,-0.13086 v -0.0742 -0.2168 -0.2168 l 0.15234,-0.1543 0.0566,-0.0566 v -0.47851 -0.5293 -0.5293 -0.52929 -0.5293 -0.5293 h 0.5293 0.5293 0.52929 0.5293 0.11328 l 7.49219,-12.94531 6.57227,-14.61914 v -0.01 l 0.0176,-0.041 v -0.0879 -0.5293 -0.5293 -0.52929 -0.5293 V 99.992188 99.462891 98.933594 98.404297 97.875 97.345703 96.816406 96.287109 95.757812 95.228516 94.699219 h 0.5293 0.5293 0.52929 0.5293 0.5293 0.52929 0.008 l 0.10156,-0.257813 0.12891,-0.332031 0.35742,-0.0039 0.35742,-0.0039 0.35742,-0.0039 0.35742,-0.0039 0.35742,-0.0039 0.35743,-0.0039 0.35742,-0.0039 0.35742,-0.0039 0.35742,-0.0039 0.35742,-0.0039 0.35743,-0.0039 0.35742,-0.0039 0.35742,-0.0039 0.35742,-0.0039 0.35742,-0.0039 0.35547,-0.0039 h 0.004 0.002 0.004 0.002 0.004 0.002 0.006 0.002 0.004 0.002 0.006 0.002 0.004 0.004 0.006 0.002 0.004 0.002 0.004 0.002 0.002 0.002 0.002 0.004 0.002 0.004 l 0.23047,-0.0059 h 0.008 0.006 0.006 0.006 0.006 0.008 0.006 0.006 0.004 0.006 0.004 0.006 0.006 0.01 0.008 0.004 0.006 0.006 0.006 0.004 0.008 0.004 0.002 0.002 0.004 0.002 l 0.2832,-0.0039 h 0.004 0.004 0.002 l 0.35156,-0.0039 0.35742,-0.0039 0.35742,-0.0039 0.35742,-0.0039 41.82618,-0.445312 3.13867,-12.597656 3.08594,-21.111328 0.24414,-4.035157 L 433.5839,42.81845 h -0.0449 l -0.0723,-0.02539 h -0.0547 l -0.0762,-0.02734 h -0.002 -0.13085 -0.13086 -0.13086 -0.13282 -0.13476 l -0.11719,-0.06445 -0.11133,-0.06055 -0.004,-0.002 -0.0137,-0.0078 H 432.2168 432 h -0.2168 -0.21679 -0.2168 -0.2168 -0.21679 l -0.1543,-0.152343 -0.1543,-0.152344 -0.002,-0.002 h -0.0215 l -0.15429,-0.152344 -0.1543,-0.152344 -0.1543,-0.152343 -0.002,-0.002 h -0.006 l -0.1543,-0.152343 -0.10937,-0.107422 -0.15234,-0.05078 0.002,0.002 -0.33008,-0.107422 -0.33008,-0.107422 -0.33008,-0.107422 -0.30859,-0.101563 -0.0352,-0.0098 -0.004,-0.002 h -0.0293 l -0.0879,-0.03125 -0.0781,-0.0293 -0.008,-0.002 h -0.002 l -0.004,-0.002 -0.006,-0.002 h -0.002 l -0.004,-0.002 -0.0371,-0.0078 -0.0234,-0.0098 -0.0176,-0.0059 -0.0137,-0.0039 -0.0488,-0.01367 -0.0137,-0.0078 -0.28516,-0.0918 h -0.002 l -0.33008,-0.107421 -0.33008,-0.107422 -0.33008,-0.107422 -0.33007,-0.107422 -0.33008,-0.107422 -0.33008,-0.107422 -0.33008,-0.107422 -0.33008,-0.107422 -0.0332,-0.345703 -0.0332,-0.345703 -0.0332,-0.345703 -0.0332,-0.345703 -0.0332,-0.345703 -0.0332,-0.345703 -0.0332,-0.345704 -0.0332,-0.345703 -0.0332,-0.345703 -0.0332,-0.345703 -0.0332,-0.345703 -0.0332,-0.345703 -0.0332,-0.345703 -0.004,-0.03711 -0.14649,-0.15039 -0.15039,-0.154297 V 35.001953 34.787109 34.572266 34.357422 34.142578 33.927734 33.712891 33.511719 33.306641 33.09375 32.878906 32.664062 32.541016 l -0.006,-0.02734 v -0.05664 -0.01172 l -0.043,-0.4375 -0.002,-0.01172 -0.002,-0.0039 v -0.002 l -0.0137,-0.0625 v -0.002 l -0.0117,-0.05273 -0.0117,-0.05469 v -0.02539 l -0.01,-0.0293 v -0.08594 -0.07617 -0.05859 -0.06055 -0.05078 -0.05273 -0.05078 -0.05273 -0.04492 -0.0059 -0.002 l -1.66992,-15.875 -2.94531,-14.0957029 -0.0449,-0.042969 -0.16211,-0.15625 -0.16211,-0.15625002 -0.16211,-0.15625 -0.16211,-0.15625 -0.16211,-0.15625 V 0.203125 -0.02148438 -0.24609375 -0.47070312 -0.6953125 -0.91992188 -1.1445312 -1.2363281 l -0.0781,-0.072266 V -1.5390625 -1.7695312 -2 -2.21875 -2.4355469 -2.4375 l -0.0254,-0.052734 -0.0488,-0.1054687 V -2.625 l -0.041,-0.097656 -0.041,-0.097656 V -2.9277344 -3.0351562 -3.1425781 -3.25 -3.2734375 l -0.0508,-0.1933594 -0.0918,-0.3476562 -0.0918,-0.3476563 -0.0918,-0.3476562 -0.0918,-0.3476563 -0.0918,-0.3476562 -0.0918,-0.3476563 -0.0918,-0.3476562 -0.0918,-0.3476563 -0.0918,-0.3476562 -0.0918,-0.3476563 -0.0918,-0.3476562 -0.0918,-0.3476563 -0.0918,-0.3476562 -0.0918,-0.3476563 -0.0918,-0.3476562 -0.0918,-0.3476563 -0.0918,-0.3476562 -0.0918,-0.3476563 0.28906,-0.2128906 0.28906,-0.212891 0.28907,-0.21289 0.28906,-0.212891 0.28906,-0.21289 0.28906,-0.212891 0.28907,-0.212891 0.28906,-0.21289 0.28906,-0.212891 0.28906,-0.212891 0.28907,-0.21289 0.28906,-0.212891 0.28906,-0.212891 0.28906,-0.21289 0.28907,-0.212891 0.28906,-0.21289 0.28906,-0.212891 0.28906,-0.212891 0.28907,-0.21289 0.28906,-0.212891 0.28906,-0.21289 0.28906,-0.212891 33.49024,-24.791016 -5.03516,-11.755859 -9.62695,-17.423828 -0.0586,-0.05859 -0.15821,-0.15625 v -0.0078 l -0.004,-0.0039 -0.15235,-0.154297 -0.15234,-0.154296 v -0.0059 l -0.002,-0.002 -0.15235,-0.154297 -0.15234,-0.154297 -0.15235,-0.154297 -0.15234,-0.154296 -0.15234,-0.154297 -0.15235,-0.154297 -0.15234,-0.154297 -0.15234,-0.154297 -0.15235,-0.154297 -0.15234,-0.154297 v -0.216797 -0.216797 -0.216796 -0.08203 l -0.0117,-0.01563 -0.11524,-0.144531 v -0.185547 -0.185547 -0.04297 l -1.04101,-1.542969 -38.46289,12.027344 -0.0977,0.0957 -0.15429,0.152344 h -0.008 l -0.15234,0.15039 -0.1543,0.152344 -0.15429,0.152344 -0.1543,0.152343 h -0.2168 -0.2168 -0.13671 l -0.0859,0.08398 h -0.21875 -0.21484 -0.16407 l -0.004,0.0039 -0.1543,0.152344 h -0.2168 -0.21679 -0.1836 l -0.004,0.0039 -0.1543,0.152344 h -0.2168 -0.2168 -0.20117 l -0.10547,0.05469 -0.11328,0.05859 h -0.1289 -0.15039 -0.0391 -0.002 l -0.0684,0.03711 h -0.004 l -0.004,0.002 -0.11328,0.05859 -0.11328,0.05859 h -0.0586 l -0.043,0.04297 h -0.21875 -0.0605 l -0.10547,0.05469 -0.11328,0.05859 h -0.12891 -0.12695 -0.002 l -0.0176,0.0078 -0.0957,0.09375 h -0.21875 -0.0332 l -0.0586,0.02148 -0.0899,0.0332 h -0.0312 l -0.0645,0.02344 h -0.0508 -0.002 l -0.0254,0.0078 -0.0117,0.0039 h -0.002 -0.004 l -0.0234,0.0059 -0.004,0.002 -0.11133,0.05664 -0.11328,0.05664 h -0.11328 l -0.0644,0.02344 h -0.0293 l -0.0254,0.0078 -0.0352,0.0098 -0.006,0.002 -0.004,0.002 -0.0312,0.0098 -0.0781,0.02344 h -0.008 l -0.11914,0.03711 -0.0801,0.04102 h -0.041 -0.002 l -0.0645,0.02344 h -0.01 l -0.17579,0.05469 h -0.002 l -0.0449,0.01367 -0.0312,0.0098 -0.24805,0.07812 h -0.002 l -0.32813,0.101563 -0.32617,0.101563 -0.22656,-0.25586 -0.22656,-0.255859 -0.22656,-0.25586 -0.22657,-0.255859 -0.22656,-0.255859 -0.22656,-0.25586 -0.22657,-0.255859 -0.22656,-0.25586 -0.22656,-0.255859 -0.22656,-0.255859 -0.21875,-0.246094 h -0.41016 -0.5293 -0.52929 -0.5293 -0.5293 -0.52929 -0.5293 -0.5293 -0.52929 v -0.529297 -0.529297 -0.529297 -0.529297 -0.529296 -0.529297 -0.529297 -0.529297 -0.529297 -0.345703 l -0.082,-0.08594 -0.14453,-0.152344 -0.14453,-0.152344 -0.14453,-0.152344 v -0.142578 l -8.9707,-10.013672 -10.51953,-9.61914 h -0.21485 -0.52929 -0.5293 -0.5293 -0.52929 -0.5293 -0.5293 -0.52929 -0.5293 -0.5293 -0.5293 -0.52929 -0.5293 v -0.529297 -0.529297 -0.529297 -0.529297 -0.529297 -0.529297 -0.529296 -0.529297 -0.529297 -0.529297 -0.265625 l -0.16601,-0.134766 v -0.03906 l -0.0293,-0.02344 v -0.03125 l -0.008,-0.0059 -0.0215,-0.01953 -0.004,-0.0039 -0.002,-0.002 -0.125,-0.101562 v 0.002 l -0.19336,-0.158203 -0.19336,-0.160156 v -0.0098 l -0.16406,-0.134766 v -0.0098 l -0.16406,-0.134766 v -0.0098 l -0.16406,-0.134765 v -0.0098 l -0.16407,-0.134766 v -0.0098 l -0.16406,-0.134766 v -0.0059 l -0.082,-0.06836 v 0.002 l -0.27148,-0.226563 -0.27149,-0.228515 0.10742,-0.337891 0.10742,-0.337891 0.10743,-0.33789 0.10742,-0.337891 0.10742,-0.337891 0.10742,-0.33789 0.10742,-0.337891 0.10743,-0.337891 0.10742,-0.33789 0.10742,-0.337891 0.10742,-0.33789 0.10742,-0.337891 0.10743,-0.337891 0.10742,-0.33789 0.10742,-0.337891 0.10742,-0.33789 0.082,-0.257808 v -0.008 l 0.006,-0.0176 v -0.0234 l 0.006,-0.0176 v -0.0449 -0.11328 l 0.0332,-0.0742 v -0.0508 -0.2168 -0.2168 -0.21679 -0.2168 -0.2168 -0.2168 l 0.10352,-0.10546 v -0.0449 l 0.0918,-0.13476 0.0918,-0.13477 0.0918,-0.13476 0.0918,-0.13477 v -0.0215 l 0.0957,-0.13672 0.0957,-0.13672 v -0.004 l 0.0957,-0.13672 0.0957,-0.13671 0.002,-0.002 v -0.0215 l 0.0645,-0.0801 11.26171,-35.76172 -11.46093,-6.84375 -17.63086,-8.26562 h -0.125 -0.13086 l -0.11524,-0.0605 -0.11523,-0.0606 -0.11523,-0.0605 -0.11524,-0.0606 -0.008,-0.004 h -0.0469 l -0.11523,-0.0625 -0.0469,-0.0254 h -0.0449 l -0.12109,-0.0684 -0.1211,-0.0684 -0.12109,-0.0684 -0.12109,-0.0684 -0.1211,-0.0684 -0.11328,-0.0645 h -0.0684 l -0.13476,-0.0918 -0.11328,-0.0781 h -0.004 l -0.002,-0.002 -4.28321,-1.60938 -22.86718,30.71485 -0.20313,0.27343 -0.20312,0.27344 -0.20313,0.27344 -0.20312,0.27344 -0.20313,0.27343 -0.20312,0.27344 -0.20313,0.27344 -0.20312,0.27344 -0.20313,0.27343 -0.20312,0.27344 -0.20313,0.27344 -0.20312,0.27344 -0.20313,0.27343 -0.20312,0.27344 -0.20313,0.27344 -0.20312,0.27344 -0.20313,0.27343 -0.20312,0.27344 -0.20313,0.27344 -0.20312,0.27344 -0.20313,0.27343 -0.20312,0.27344 -0.33399,-0.0723 -0.33008,-0.0723 h -0.002 l -0.27734,-0.0605 h -0.002 l -0.0527,-0.0117 h -0.004 l -0.25586,-0.0566 -0.01,-0.002 -0.01,-0.002 h -0.002 l -0.006,-0.002 -0.008,-0.002 -0.01,-0.002 h -0.004 l -0.008,-0.002 -0.0195,-0.004 -0.006,-0.002 -0.20898,-0.0449 -0.008,-0.002 h -0.002 l -0.004,-0.002 -0.008,-0.002 -0.0117,-0.002 h -0.002 l -0.008,-0.002 -0.0176,-0.004 -0.0137,-0.004 -0.043,-0.008 h -0.004 -0.004 l -0.16797,-0.0371 h -0.0488 l -0.0801,-0.0254 -0.0371,-0.0117 -0.008,-0.002 -0.004,-0.002 h -0.002 l -0.0176,-0.004 -0.0156,-0.004 -0.008,-0.002 h -0.002 -0.0273 l -0.043,-0.0117 h -0.0664 -0.1289 l -0.11524,-0.0605 h -0.0566 l -0.0645,-0.0215 h -0.0332 l -0.0742,-0.0273 h -0.0274 l -0.0703,-0.0195 -0.0156,-0.004 -0.17969,0.17578 -0.26953,0.26367 -0.33789,-0.16992 -0.33789,-0.16992 -0.33789,-0.16992 -0.22461,-0.11328 -0.002,-0.002 -0.10742,-0.0547 h -0.002 -0.008 l -0.11524,-0.0586 -0.10351,-0.0547 h -0.002 -0.002 l -0.002,-0.002 -0.0957,-0.0488 h -0.002 -0.0117 l -0.006,-0.002 h -0.0937 -0.13672 l -0.0566,-0.0312 h -0.37695 -0.5293 -0.52929 -0.5293 -0.5293 -0.5293 -0.52929 -0.5293 -0.5293 -0.52929 v -0.5293 -0.52929 -0.17774 l -14.16406,-3.07812 -16.45508,-1.88086 h -0.006 -0.0527 -0.0625 -0.0703 -0.0742 -0.0703 -0.0742 -0.0703 -0.0742 -0.0723 -0.0742 l -0.0566,-0.0156 h -0.0703 -0.1289 -0.13086 -0.13086 -0.13086 -0.13086 -0.13086 -0.13086 l -0.11523,-0.0605 -0.0645,-0.0332 -0.0684,-0.004 h -0.1914 l -0.0156,-0.0156 -0.20117,-0.0117 -0.1875,-0.0117 h -0.0137 l -0.002,-0.002 h -0.006 -0.0488 -0.11524 l -0.0332,-0.0156 h -0.002 -0.0137 -0.0195 -0.0645 -0.0645 -0.0645 -0.0644 -0.0645 l -0.008,-0.002 h -0.0781 -0.5293 -0.52929 -0.5293 -0.5293 -0.52929 -0.5293 V -127.5 l -0.25391,-0.0176 -0.34961,-0.0234 -0.34961,-0.0234 -0.34765,-0.0234 -0.34766,-0.0234 -0.34765,-0.0234 -0.34376,-0.0234 h -0.002 l -0.34179,-0.0215 -0.34376,-0.0215 -0.0645,-0.17188 h -0.16601 l -0.11914,-0.36523 -0.11914,-0.36524 -0.11915,-0.36523 -0.11914,-0.36523 -0.11914,-0.36524 -0.0391,-0.11914 h -0.45117 -0.5293 -0.5293 -0.52929 v -0.5293 -0.52734 h -0.0625 v -0.5293 -0.52929 -0.5293 -0.5293 -0.52929 -0.5293 -0.5293 -0.5293 -0.52929 -0.0234 l -0.041,-0.0781 v -0.13086 -0.12891 -0.13086 -0.0781 l -0.0293,-0.0801 v -0.0586 l -11.63868,-34.47851 z m 41.53711,40.37695 0.39258,0.39258 0.13086,-0.51953 z m -3.76953,1.17383 0.96289,-0.39062 -0.92383,-0.47657 z m -12.18359,25.79688 1.88476,0.54882 1.80469,0.52539 h 0.004 l 0.0703,0.0215 h 0.002 l 1.875,0.544921 h 0.002 l 1.87695,0.544921 1.87305,0.542969 1.87304,0.541016 1.86914,0.539062 1.42774,0.41211 11.73437,1.197265 h 0.004 0.0723 0.0723 0.0723 0.0723 0.0723 0.0723 0.0723 0.0723 0.0723 l 0.0488,0.01367 h 0.0488 0.13086 0.13086 0.13085 0.13086 0.13086 0.13086 0.13086 0.13086 l 0.041,0.02148 h 0.11133 0.21093 0.21094 0.21094 0.21093 0.21094 0.21094 l 0.1543,0.146484 0.15429,0.146484 0.15235,0.144532 0.002,0.002 0.15039,0.142578 0.002,0.002 0.004,0.0039 0.004,0.002 0.002,0.002 0.002,0.002 0.0879,0.08594 0.01,0.0039 0.0527,0.05273 v 0.002 h 0.002 l 0.004,0.002 8.79102,1.794922 h 0.0215 0.0508 l 0.0488,0.0098 0.0508,0.0098 h 0.002 0.002 0.01 0.0586 0.0606 l 0.0605,0.01367 0.0547,0.01367 h 0.004 l 0.002,0.002 h 0.0156 0.006 l 0.082,0.002 0.0898,0.002 0.0879,0.002 0.084,0.002 h 0.002 l 0.0801,0.002 0.0781,0.002 0.0234,0.0078 h 0.14062 0.2168 0.21484 0.21875 0.2168 0.21484 0.21485 0.21484 0.21485 0.21484 l 0.1543,0.150391 0.15429,0.150391 0.1543,0.15039 0.006,0.0059 h 0.01 l 0.15624,0.154296 0.1504,0.150391 0.002,0.002 h 0.002 l 0.1543,0.152344 0.0801,0.07813 8.97851,2.796875 h 0.0234 0.0937 0.0937 l 0.0898,0.0332 0.0527,0.01953 h 0.0801 l 0.0508,0.01953 h 0.0391 0.0859 l 0.0117,0.0039 h 0.0898 0.12891 0.1289 l 0.11328,0.05859 0.008,0.0039 h 0.20703 0.21679 0.2168 0.2168 0.2168 0.21679 l 0.1543,0.152344 0.1543,0.152343 0.15429,0.152344 0.1543,0.152344 0.0723,0.07227 0.0899,0.01953 0.14648,0.0332 0.0566,0.05469 0.0312,0.0078 0.14063,0.03516 0.10351,0.101563 0.0957,0.09766 0.004,0.002 0.0391,0.04102 0.0879,0.04297 0.0117,0.02539 0.0137,0.0039 0.0976,0.105469 0.0352,0.03906 0.0586,0.02734 0.006,0.0059 0.0898,0.04297 0.002,0.002 0.16797,0.08008 0.16992,0.08203 0.0312,0.06836 7.625,3.240235 h 0.12305 0.16406 0.16406 0.16407 0.16406 0.16406 0.16406 l 0.13477,0.0918 0.0547,0.03711 h 0.0898 0.2168 0.21679 0.2168 0.2168 l 0.15429,0.152344 0.1543,0.152343 0.004,0.0039 h 0.008 l 0.1543,0.152343 0.15429,0.152344 0.004,0.0039 h 0.006 l 0.1543,0.152344 0.15429,0.152344 0.004,0.0039 h 0.008 l 0.1543,0.152344 0.15429,0.152343 0.004,0.0039 h 0.008 l 0.1543,0.152343 0.1543,0.152344 0.004,0.0039 h 0.004 l 0.15234,0.152344 0.002,0.002 h 0.002 l 0.0586,0.05859 8.4336,4.628906 h 0.0312 0.15039 l 0.12695,0.07813 0.082,0.05078 h 0.14258 0.21484 0.21485 0.21484 l 0.1543,0.15039 0.125,0.121094 h 0.0117 l 0.15429,0.150391 0.002,0.002 h 0.082 0.5293 0.52929 0.5293 0.5293 0.52929 0.5293 0.5293 0.52929 v 0.529297 0.529297 0.529296 0.529297 0.529297 0.529297 0.103516 l 6.10352,4.195312 h 0.10156 0.2168 0.2168 l 0.15429,0.152344 0.1543,0.152344 h 0.004 l 0.15429,0.152343 0.0918,0.08984 h 0.0332 0.32617 l 0.14649,0.292969 0.0703,0.138672 h 0.082 l 0.10547,0.103515 0.002,0.002 0.082,0.04492 0.002,0.002 0.11719,0.0625 h 0.002 l 0.002,0.002 0.15235,0.08398 h 0.002 l 0.11914,0.06445 0.27344,0.150391 h 0.002 l 0.27539,0.15039 0.27734,0.150391 v 0.01953 l 0.16211,0.08984 v 0.0625 l 0.004,0.002 0.0762,0.07422 0.004,0.0039 0.11328,0.06641 0.002,0.002 0.25782,0.15039 0.0156,0.0098 0.008,0.002 0.006,0.0059 0.23242,0.136719 v 0.01367 l 0.004,0.002 0.002,0.002 0.26172,0.154297 0.25977,0.152344 v 0.302734 0.302734 0.232422 l 4.85547,4.111328 h 0.27734 0.32617 0.32617 0.32618 0.32617 0.32617 0.32617 l 0.14649,0.292969 0.14648,0.292969 0.14648,0.292969 0.14649,0.292969 0.14648,0.292968 0.14649,0.291016 v 0.002 l 0.14648,0.289063 v 0.002 l 0.0566,0.111328 0.0898,0.177734 0.0566,0.111328 v 0.002 l 0.0879,0.175782 0.002,0.002 0.0547,0.109375 0.002,0.0039 0.0566,0.109375 v 0.002 l 0.0312,0.06445 0.002,0.002 0.0547,0.109375 0.0176,0.03516 0.0273,0.02734 0.002,0.0059 0.004,0.0039 0.0293,0.08984 0.0117,0.02539 0.002,0.0039 0.002,0.002 0.01,0.01953 0.0391,0.07227 0.0566,0.109375 v 0.002 l 0.002,0.002 0.043,0.08398 0.0781,0.08008 0.002,0.0039 0.0371,0.03125 h 0.002 l 0.1914,0.158203 0.19141,0.158203 0.19141,0.158203 v 0.197266 l 0.004,0.0039 0.15235,0.154297 0.15234,0.154297 0.15234,0.154297 0.15235,0.154296 0.15234,0.154297 0.15234,0.154297 v 0.05273 l 4.06641,4.199219 h 0.0859 0.2832 0.28516 0.28515 l 0.15821,0.238281 0.15429,0.234376 h 0.45508 0.5293 v 0.529296 0.529297 0.40625 l 0.0137,0.02539 0.008,0.0098 0.0215,0.03516 0.0176,0.02539 h 0.24218 v 0.115235 h 0.041 0.5293 v 0.529297 0.49414 l 0.12109,0.123047 0.15234,0.154297 0.15235,0.154297 v 0.0039 l 0.15234,0.154297 0.15235,0.154297 0.15234,0.154297 0.15234,0.154297 0.15235,0.154297 0.15234,0.154296 v 0.0293 l 0.11133,0.113281 v 0.0039 l 0.004,0.0039 0.15235,0.154297 0.15234,0.154297 v 0.216797 0.134765 l 0.0274,0.03125 0.12695,0.148438 v 0.167969 l 4.60547,5.828124 h 0.0449 0.5293 0.52929 0.5293 v 0.529297 0.529297 0.529297 0.349609 l 0.14453,0.146485 v 0.0059 l 0.004,0.0039 0.15234,0.154297 0.15235,0.154297 v 0.0059 l 0.004,0.0039 0.15234,0.154297 0.15235,0.154297 v 0.0059 l 0.002,0.002 0.15235,0.154297 0.15234,0.154297 0.15234,0.154297 v 0.02734 l 0.11133,0.113282 v 0.216797 0.0039 l 0.0176,0.02344 v 0.154297 l 0.0371,0.04492 v 0.03906 l 0.11523,0.144531 0.11524,0.144531 0.11523,0.144531 0.11524,0.144532 0.11523,0.144531 v 0.185547 0.185547 0.171875 l 0.55078,0.833984 h 0.16992 0.5293 0.5293 0.52929 0.5293 0.5293 0.52929 0.5293 0.5293 v 0.529297 0.529297 0.529297 0.529296 0.529297 0.529297 0.529297 0.529297 0.529297 0.529297 0.529297 0.476562 l 0.0156,0.01953 0.10938,0.142578 v 0.179688 0.179688 0.179687 0.179687 0.177735 0.002 l 2.25781,4.169922 h 0.48438 0.52929 0.5293 0.5293 0.52929 0.5293 0.5293 v 0.529297 0.529297 0.529296 0.529297 0.529297 0.529297 0.529297 0.529297 0.529297 0.529297 0.0078 l 0.0273,0.02734 0.16016,0.15625 v 0.222656 0.222656 0.222657 0.222656 0.222656 0.222656 0.21875 l 0.0195,0.03125 v 0.152344 0.152344 0.152344 0.07227 0.002 l 0.002,0.0039 2.92188,6.9609371 0.19336,0.09375 0.29882,0.1445313 0.29883,0.1445312 0.29883,0.1445313 0.29883,0.1445312 0.29883,0.1445313 0.29883,0.1445312 v 0.3320313 0.3320312 0.3320313 0.3320312 0.3320313 0.3320312 0.3320313 0.1132812 l 0.0605,0.060547 v 0.21875 0.21875 0.21875 0.21875 0.21875 0.21875 0.21875 0.21875 0.1542969 l 0.0254,0.080078 0.0254,0.078125 v 0.082031 0.019531 l 2.54688,8.3457031 0.0488,0.048828 0.16015,0.15625 0.16016,0.15625 0.16016,0.15625 0.16015,0.15625 0.16016,0.15625 0.16015,0.15625 v 0.1386719 l 0.15039,0.1523438 V 5.9492188 6.1660156 6.3808594 6.5957031 6.8125 7.0273438 7.2421875 7.4589844 7.6738281 7.8886719 8.1035156 8.3183594 8.5351562 8.6425781 l 0.002,0.011719 0.008,0.044922 v 0.025391 l 1.79492,9.0722659 0.0508,0.05078 0.15235,0.154297 0.15234,0.154297 0.15234,0.154297 0.15235,0.154297 v 0.216797 0.216797 0.216796 0.216797 0.216797 0.216797 0.216797 0.216797 0.216797 0.216796 0.216797 0.01953 l 0.0293,0.05664 v 0.08984 l 0.0234,0.07227 v 0.08203 0.08398 0.08203 0.08398 0.08203 0.08594 0.08594 0.08594 0.07813 0.0078 l 1.0625,10.890625 0.0215,0.03711 v 0.002 l 0.0664,0.117187 0.0664,0.121094 v 0.136719 0.121093 l 0.0195,0.03906 v 0.125 0.125 0.125 0.125 0.125 0.125 0.125 0.125 0.125 0.125 0.07422 l 0.006,0.03906 v 0.03906 0.03906 0.04102 0.02344 0.01953 0.02344 0.01953 0.02344 0.01953 0.02344 0.01953 0.02344 0.01953 0.02344 0.01953 0.02344 0.01953 0.02344 0.01953 0.02344 0.01758 0.0293 0.002 0.002 0.002 0.002 0.002 0.002 0.002 0.002 0.002 0.002 0.002 0.002 0.002 0.002 0.002 0.002 0.002 0.0039 0.002 0.0039 0.002 l -0.0488,12.65625 v 0.002 0.002 0.02539 0.04297 0.03711 0.03906 0.05273 0.06055 0.06055 0.05859 0.06055 0.05859 0.06055 0.05859 0.06055 0.05859 0.06055 0.05859 0.06055 0.05859 0.06055 V 49 v 0.06055 0.05859 l -0.0137,0.05859 -0.002,0.0078 v 0.01367 0.07422 0.07227 0.07422 l -0.0156,0.05664 v 0.08203 0.144531 0.144531 0.144532 0.144531 0.144531 0.144531 0.144531 l -0.0723,0.123047 -0.0723,0.123047 v 0.06055 l -0.084,0.130859 -0.0352,0.05469 -1.0293,9.763672 v 0.0078 0.02344 0.01953 0.02344 0.01953 0.02344 0.01953 0.02344 0.01953 0.02344 0.01953 0.02344 0.01953 l -0.002,0.02148 -0.002,0.02148 v 0.0039 0.06055 0.06445 0.06445 0.06445 0.06445 0.06445 l -0.006,0.02344 v 0.0059 0.08594 0.08594 0.08594 l -0.002,0.0059 v 0.01172 0.08594 0.08594 0.08594 l -0.002,0.0059 v 0.08203 0.214844 0.214843 0.214844 0.214844 0.214844 0.214844 0.214843 0.214844 0.214844 l -0.15039,0.154297 -0.14453,0.148437 v 0.197266 l -0.15039,0.154297 -0.15039,0.154296 -0.0879,0.08984 -1.91602,9.289063 v 0.07617 0.125 0.130859 0.130859 0.13086 0.130859 0.13086 0.130859 0.130859 l -0.0195,0.03711 v 0.167968 0.216797 0.216797 0.216797 0.216797 0.216797 l -0.15234,0.154297 -0.15235,0.154296 -0.14257,0.144532 -0.0215,0.142578 -0.0254,0.167969 -0.0254,0.167968 -0.0254,0.167969 -0.0254,0.167969 -0.11719,0.121094 -0.11719,0.121093 -0.11718,0.121094 -0.11719,0.121094 -0.0762,0.07813 -2.71289,8.6875 v 0.02344 0.214844 0.214844 0.214844 0.214843 0.214844 0.214844 0.214844 0.214843 0.214844 0.214844 0.214844 0.214843 l -0.1504,0.154297 -0.15039,0.154297 -0.15039,0.154297 v 0.169922 0.529297 0.529297 0.529296 0.529297 0.529297 0.529297 0.529297 0.529297 h -0.52929 -0.5293 -0.5293 -0.52929 -0.44141 l -2.02148,4.730469 v 0.0293 0.128907 0.128906 0.128906 l -0.0586,0.113281 -0.0547,0.105464 v 0.006 l -0.0586,0.11328 -0.0234,0.0449 v 0.0664 0.16016 0.16015 0.16016 l -0.0879,0.13281 -0.084,0.12695 v 0.0586 l -0.0918,0.13476 -0.0918,0.13477 -0.0918,0.13477 -0.0918,0.13476 -0.0918,0.13477 -0.0918,0.13476 -0.0918,0.13477 -0.0918,0.13476 -0.0195,0.0293 v 0.18164 l -0.10742,0.10938 v 0.11523 0.2168 l -0.15234,0.15429 -0.15235,0.1543 -0.004,0.004 v 0.006 l -0.15235,0.15429 -0.15234,0.1543 -0.004,0.004 v 0.004 l -0.15234,0.15235 -0.002,0.002 v 0.002 l -0.004,0.004 -4.30078,7.79687 v 0.11524 0.17969 0.17968 0.17969 0.17969 l -0.10938,0.14258 -0.0234,0.0312 v 0.0254 0.21679 0.2168 0.2168 l -0.15235,0.15429 -0.15234,0.1543 -0.002,0.002 v 0.01 l -0.15234,0.1543 -0.15234,0.15429 -0.006,0.006 v 0.01 l -0.15235,0.1543 -0.15234,0.15429 -0.002,0.002 v 0.004 l -0.15235,0.1543 -0.15234,0.1543 -0.004,0.004 v 0.004 L 374,114.51367 l -0.002,0.002 v 0.002 l -0.002,0.002 -0.15234,0.15235 v 0.002 l -0.002,0.002 h -0.002 v 0.004 l -0.14843,0.14843 -0.004,0.006 -0.1543,0.15625 -0.002,0.002 v 0.002 l -0.15234,0.15234 -0.002,0.002 v 0.002 l -0.15234,0.15234 -0.002,0.002 v 0.002 l -0.0625,0.0625 -5.00977,7.26563 v 0.38867 0.52929 0.5293 0.5293 0.52929 0.5293 0.5293 0.5293 0.52929 0.5293 0.5293 0.52929 h -0.5293 -0.52929 -0.5293 -0.5293 -0.52929 -0.5293 -0.5293 -0.52929 -0.5293 -0.0371 l -4.29297,5.05664 v 0.15625 l -0.0918,0.0937 v 0.11914 0.28321 l -0.23632,0.1582 -0.23829,0.1582 h -0.002 v 0.002 l -0.20117,0.13086 v 0.002 l -0.14258,0.30664 -0.14258,0.30664 -0.14257,0.30664 -0.14258,0.30664 -0.14258,0.30664 h -0.1543 l -0.0644,0.12891 -0.14649,0.29101 -0.14648,0.29102 -0.14648,0.29102 -0.14649,0.29101 -0.14648,0.29102 -0.14649,0.29101 -0.14648,0.29102 -0.14649,0.29101 h -0.32617 -0.32617 -0.32617 -0.32617 -0.32618 -0.32617 -0.0781 l -3.68555,3.5625 v 0.18555 0.5293 0.52929 0.5293 0.5293 0.52929 0.5293 0.5293 0.5293 0.52929 0.5293 h -0.5293 -0.52929 -0.5293 -0.5293 -0.52929 -0.5293 -0.5293 -0.52929 -0.5293 -0.5293 -0.5293 -0.38281 l -3.99609,3.1543 v 0.17187 0.28516 l -0.2168,0.14258 v 0.25976 l -0.26172,0.1543 -0.2539,0.14844 v 0.2871 0.41407 0.41406 l -0.40235,0.0996 -0.11718,0.0293 v 0.0449 0.5293 0.52929 h -0.5293 -0.5293 -0.52929 -0.5293 -0.5293 -0.32031 l -0.0645,0.0645 h -0.002 l -0.15234,0.15235 h -0.004 l -0.004,0.004 -0.1543,0.15234 -0.1543,0.15234 h -0.006 l -0.006,0.006 -0.15429,0.15235 -0.1543,0.15234 h -0.008 l -0.14453,0.14258 -0.1543,0.15234 h -0.2168 -0.21679 -0.0742 l -0.13672,0.10938 -0.14453,0.11523 -0.14453,0.11524 h -0.18555 -0.18555 -0.17187 l -2.9375,1.93164 -0.0293,0.043 -0.0898,0.13282 v 0.002 l -0.002,0.002 -0.0117,0.0156 -0.004,0.0137 -0.004,0.006 v 0.17578 l -0.15429,0.15625 -0.004,0.004 -0.0332,0.0996 -0.0274,0.0137 -0.0625,0.0937 -0.0195,0.0351 -0.002,0.008 -0.0176,0.0332 -0.002,0.002 -0.0527,0.10743 -0.002,0.002 -0.0312,0.0664 v 0.002 l -0.004,0.006 -0.0527,0.10156 -0.002,0.006 -0.0547,0.10937 -0.002,0.002 -0.0879,0.17578 v 0.002 l -0.0566,0.11133 -0.0898,0.17773 -0.0566,0.11133 v 0.002 l -0.14649,0.28906 v 0.002 l -0.14648,0.29102 -0.14648,0.29297 h -0.32618 -0.32617 -0.32617 -0.32617 -0.32617 -0.32618 -0.32617 -0.15039 l -0.0879,0.0645 -0.14062,0.10351 h -0.17383 -0.17383 -0.17383 -0.17383 -0.0351 l -7.28907,3.95508 v 0.39453 0.5293 0.5293 h -0.52929 -0.5293 -0.5293 -0.30078 l -0.15429,0.15039 -0.1543,0.15039 -0.1543,0.15039 -0.15429,0.15039 -0.1543,0.15039 h -0.21485 -0.21484 -0.21484 -0.21485 -0.21484 -0.21484 -0.21485 -0.21484 -0.0957 l -4.8379,2.02539 v 0.0957 0.38086 l -0.36132,0.1211 -0.36133,0.12109 -0.36133,0.12109 -0.36133,0.1211 -0.36133,0.12109 -0.36132,0.1211 -0.36133,0.12109 -0.35938,0.12109 h -0.002 l -0.35742,0.1211 h -0.002 l -0.0488,0.0156 -0.0332,0.0117 -0.27539,0.0937 -0.01,0.002 -0.0703,0.0234 -0.002,0.002 h -0.008 l -0.23633,0.0801 -0.0684,0.0684 h -0.14258 l -0.12695,0.043 -0.004,0.004 -0.15625,0.15429 h -0.006 l -0.002,0.002 -0.15429,0.15234 -0.1543,0.15234 -0.1543,0.15235 -0.1543,0.15234 -0.15429,0.15235 -0.1543,0.15234 h -0.2168 -0.21679 -0.2168 -0.2168 -0.21679 -0.2168 -0.0508 l -0.10547,0.0566 h -0.13281 -0.13282 -0.13281 -0.13281 -0.13281 -0.13282 -0.0859 l -0.0742,0.0234 -0.0781,0.0254 h -0.082 -0.0195 l -5.47461,1.67187 v 0.22657 0.52929 0.5293 0.5293 h -0.5293 -0.52929 -0.5293 -0.5293 -0.52929 -0.5293 -0.5293 -0.52929 -0.5293 -0.24024 l -0.125,0.0742 -0.125,0.0742 h -0.14453 -0.13671 l -0.004,0.002 -0.11328,0.0586 h -0.12891 -0.1289 -0.12891 -0.12891 -0.1289 -0.0801 l -0.0156,0.006 h -0.0957 -0.0957 -0.0957 -0.0762 l -0.0566,0.0156 h -0.0742 -0.0723 -0.0742 -0.0625 l -10.1836,2.03321 -0.0137,0.008 -0.01,0.006 -0.11719,0.0703 h -0.002 l -0.004,0.002 -0.12305,0.0723 -0.12304,0.0723 -0.12305,0.0723 h -0.14453 -0.006 l -0.11328,0.0586 -0.11328,0.0586 -0.11328,0.0586 h -0.12891 -0.12891 -0.1289 -0.12891 -0.12891 -0.1289 -0.12891 -0.12891 -0.1289 -0.0117 l -0.0352,0.01 h -0.0703 -0.002 l -0.008,0.006 h -0.14649 -0.125 -0.125 -0.0859 -0.043 -0.043 -0.0527 -0.0527 -0.0215 l -9.67578,0.94531 -0.006,0.006 v 0.002 l -0.15234,0.14063 -0.15235,0.14062 h -0.20703 -0.20703 -0.20703 -0.20703 -0.20898 -0.20899 -0.20898 -0.20703 -0.20704 -0.20703 -0.16601 l -0.0117,0.004 h -0.0859 -0.0859 -0.0859 -0.0859 -0.043 -0.0527 -0.0449 -0.0508 -0.0527 -0.002 l -0.0274,0.002 -0.0254,0.002 -0.0215,0.002 h -0.0195 -0.0234 -0.0195 -0.0234 -0.0195 -0.0234 -0.0195 -0.0234 -0.0195 -0.0215 -0.0195 -0.0215 -0.0195 -0.0234 -0.0195 -0.0234 -0.0195 -0.0234 -0.0195 -0.0234 -0.0176 -0.0273 -0.002 -0.004 -0.002 -0.004 -0.002 -0.002 -0.008 -0.002 -0.002 -0.002 -0.002 -0.002 -0.006 -0.002 -0.002 -0.002 -0.002 -0.002 -0.002 -0.002 -0.002 l -12.65625,-0.0391 h -0.002 -0.002 -0.0215 -0.0371 -0.041 -0.0371 -0.041 -0.0371 -0.041 -0.0371 -0.041 -0.0371 -0.041 -0.0371 -0.041 -0.0371 -0.041 -0.0371 -0.041 -0.0371 -0.0547 -0.0566 -0.0566 -0.0566 l -0.0547,-0.0117 -0.0176,-0.004 h -0.0117 -0.0527 -0.0527 l -0.01,-0.002 h -0.0293 -0.0586 l -0.0586,-0.0137 -0.0351,-0.008 h -0.0664 -0.10937 -0.10938 -0.10937 l -0.0274,-0.0117 h -0.004 -0.16602 -0.16602 -0.16601 -0.16602 l -0.13672,-0.0957 -0.10742,-0.0742 -10.73047,-1.10937 h -0.0137 -0.10156 -0.10156 -0.10157 -0.0859 -0.0859 -0.0859 -0.0859 -0.084 -0.0859 -0.0859 -0.0859 l -0.0117,-0.004 h -0.10742 -0.13672 -0.13672 -0.13672 -0.13672 -0.13672 -0.13672 l -0.0527,-0.0293 h -0.0586 l -0.11329,-0.0586 -0.11328,-0.0586 -0.11328,-0.0586 h -0.082 l -0.11719,-0.0644 -0.11914,-0.0644 h -0.002 -0.0488 l -0.1289,-0.0879 h -0.0937 -0.2168 l -0.1543,-0.15235 -0.0449,-0.043 -9.60937,-1.97266 h -0.12891 -0.32617 -0.32618 -0.32812 -0.32812 -0.32618 -0.32617 -0.32617 -0.32617 -0.32617 -0.32618 -0.32617 -0.32617 -0.32617 -0.32617 l -0.14649,-0.29297 -0.14648,-0.29297 h -0.0527 l -0.14453,-0.29883 -0.14453,-0.29883 -0.14453,-0.29882 v -0.002 l -0.0156,-0.0312 -7.32617,-2.28711 h -0.0762 -0.0977 l -0.0918,-0.0351 -0.0723,-0.0274 h -0.10156 l -0.0195,-0.008 h -0.0527 -0.125 -0.125 -0.125 l -0.0547,-0.0273 h -0.0176 -0.16406 -0.16407 -0.16406 -0.16406 -0.16406 l -0.13477,-0.0918 -0.13477,-0.0918 -0.13476,-0.0918 -0.13477,-0.0918 -0.13476,-0.0918 -0.13477,-0.0918 h -0.0586 l -0.13867,-0.0996 -0.13868,-0.0996 h -0.40039 -0.52929 -0.5293 -0.5293 -0.52929 v -0.5293 -0.5293 -0.21679 l -6.86524,-2.9336 h -0.12109 -0.16406 -0.16407 -0.16406 -0.16406 -0.16406 -0.16407 l -0.13476,-0.0918 -0.13477,-0.0918 -0.13476,-0.0918 -0.13477,-0.0918 -0.11719,-0.0801 h -0.31445 -0.5293 -0.52929 -0.5293 -0.5293 -0.52929 -0.5293 -0.5293 v -0.5293 -0.5293 -0.52929 -0.5293 -0.29297 l -6.36328,-3.50586 h -0.0781 -0.17188 -0.17187 -0.17188 l -0.0996,-0.0723 h -0.46094 -0.52929 -0.5293 -0.5293 -0.52929 -0.5293 -0.5293 -0.52929 -0.5293 -0.5293 -0.5293 v -0.5293 -0.5293 -0.52929 -0.5293 -0.5293 -0.52929 -0.5293 -0.31836 l -4.90429,-3.375 h -0.19922 -0.21484 -0.21485 -0.21484 l -0.1543,-0.15039 -0.1543,-0.15039 -0.15429,-0.15039 h -0.0703 -0.5293 -0.5293 -0.5293 -0.52929 -0.5293 -0.5293 -0.52929 v -0.5293 -0.5293 -0.52929 -0.5293 -0.5293 -0.52929 -0.26758 l -5.80469,-4.92578 h -0.0801 -0.2168 l -0.15429,-0.15235 -0.0117,-0.0117 h -0.0195 l -0.1543,-0.15234 -0.1543,-0.15234 -0.15429,-0.15235 -0.1543,-0.15234 h -0.004 l -0.10742,-0.10547 h -0.14062 -0.32617 -0.32618 -0.32617 l -0.14648,-0.29297 -0.14649,-0.29297 h -0.004 l -0.14649,-0.29297 -0.14648,-0.29296 -0.14649,-0.29297 -0.14648,-0.29297 -0.10742,-0.21485 -0.01,-0.008 -0.002,-0.002 -0.10742,-0.0918 -0.10938,-0.0937 -0.10937,-0.0937 -0.10938,-0.0937 -0.10937,-0.0937 -0.10938,-0.0937 -0.0469,-0.13476 -0.0469,-0.13477 -0.0469,-0.13476 -0.0234,-0.0664 -5.60742,-5.79688 h -0.1875 -0.5293 -0.5293 -0.52929 -0.5293 -0.5293 -0.52929 v -0.52929 -0.5293 -0.5293 -0.52929 -0.5293 -0.5293 -0.20898 l -0.0957,-0.0937 -0.16015,-0.15625 -0.16016,-0.15625 -0.16016,-0.15625 -0.16015,-0.15625 -0.16016,-0.15625 v -0.10156 l -0.004,-0.004 -0.15234,-0.1543 -0.15234,-0.15429 v -0.2168 -0.2168 -0.16406 l -3.10938,-3.93945 h -0.16015 -0.28321 l -0.1582,-0.23633 -0.15625,-0.23633 h -0.004 l -0.15625,-0.23438 -0.1582,-0.23632 -0.002,-0.002 h -0.21094 l -0.14648,-0.29296 -0.14649,-0.29297 h -0.4082 v -0.5293 -0.22656 l -0.0254,-0.0254 -0.1543,-0.15625 v -0.006 l -0.0156,-0.0156 v -0.10156 l -0.01,-0.0215 -0.006,-0.008 -0.008,-0.008 v -0.002 h -0.002 l -0.008,-0.01 -0.14062,-0.13867 -0.0606,-0.0625 v -0.002 l -0.0527,-0.0508 -0.01,-0.01 -0.01,-0.0117 -0.0195,-0.0215 0.008,0.0117 -0.01,-0.01 -0.0254,-0.0254 v -0.002 l -0.002,-0.002 -0.12891,-0.13086 -0.15234,-0.15429 -0.15235,-0.1543 V 121.75 l -0.0215,-0.0215 v -0.004 l -0.002,-0.002 -0.15235,-0.1543 -0.15234,-0.1543 v -0.004 l -0.13867,-0.14063 -0.15235,-0.1543 v -0.004 l -0.12109,-0.12305 -0.15234,-0.1543 v -0.0254 l -0.1211,-0.12304 -0.15234,-0.1543 v -0.006 l -0.0273,-0.0273 -0.15234,-0.1543 v -0.006 l -0.002,-0.002 -0.15235,-0.1543 -0.15234,-0.1543 v -0.0117 l -0.0195,-0.0195 v -0.21875 -0.21875 -0.0898 l -0.10742,-0.13477 -0.11524,-0.14453 -0.11523,-0.14453 v -0.18554 -0.18555 -0.17188 l -0.67383,-1.02148 h -0.0664 -0.3789 -0.37891 -0.37891 -0.3789 l -0.1211,-0.35742 -0.12304,-0.35938 -0.002,-0.002 v -0.002 l -0.0801,-0.23829 -0.002,-0.002 -0.0371,-0.11523 -0.002,-0.002 -0.041,-0.12109 -0.13867,-0.14063 v -0.21874 -0.0391 l -0.0293,-0.0918 -0.11914,-0.1211 -0.15235,-0.1543 v -0.21679 -0.10547 l -0.14844,-0.15039 -0.15234,-0.1543 v -0.21679 -0.10352 l -0.14844,-0.15039 -0.15234,-0.1543 v -0.21679 -0.11524 l -0.15039,-0.1543 -0.15039,-0.15429 v -0.21485 -0.10156 l -0.15039,-0.1543 -0.15039,-0.15429 v -0.21485 -0.125 l -0.0508,-0.0527 -0.15039,-0.1543 -0.1504,-0.15429 -0.15039,-0.1543 v -0.21485 -0.21484 -0.21484 -0.21485 -0.21484 -0.21484 -0.10938 l -4.3164,-7.92773 -0.0254,-0.0273 -0.0547,-0.0586 -0.0527,-0.0566 -0.0527,-0.0566 -0.0195,-0.041 -0.0488,-0.0488 v -0.002 l -0.0957,-0.0957 -0.0586,-0.0586 -0.15429,-0.15625 v -0.006 l -0.0449,-0.0449 -0.12696,-0.1289 -0.004,-0.0312 -0.082,-0.084 -0.15235,-0.1543 -0.15234,-0.15429 v -0.006 l -0.002,-0.002 -0.15234,-0.1543 -0.15234,-0.1543 v -0.008 l -0.15235,-0.1543 -0.15234,-0.15429 -0.15234,-0.1543 v -0.2168 -0.2168 -0.0703 l -0.006,-0.006 V 100.0957 99.875 99.65625 99.4375 99.21875 99 98.921875 l -0.008,-0.01758 v -0.07813 l -0.006,-0.01367 -0.002,-0.0059 -0.002,-0.0039 v -0.002 l -0.004,-0.0059 -0.002,-0.0078 -3.52539,-8.388671 -0.0586,-0.06641 -0.002,-0.002 -0.0664,-0.07422 -0.0664,-0.07422 -0.0195,-0.05273 -0.0273,-0.02734 -0.15039,-0.15039 -0.002,-0.0039 -0.14844,-0.146485 -0.0605,-0.0625 -0.002,-0.002 -0.084,-0.08398 -0.004,-0.0039 -0.006,-0.0039 -0.0605,-0.0625 -0.082,-0.08594 -0.002,-0.002 v -0.002 l -0.1543,-0.15625 -0.15234,-0.154297 -0.15234,-0.154297 v -0.07617 l -0.10547,-0.107422 v -0.113281 l -0.004,-0.0039 v -0.21875 -0.21875 -0.21875 -0.21875 -0.21875 -0.21875 -0.199218 l -0.0117,-0.02344 v -0.125 -0.05273 l -0.0195,-0.04102 v -0.11914 -0.119141 -0.119141 -0.11914 -0.0332 l -0.0195,-0.0625 -0.0254,-0.07813 v -0.08203 -0.01953 l -1.75391,-5.728515 h -0.0859 -0.5293 -0.5293 -0.52929 V 79.962891 79.433594 78.904297 78.375 77.845703 77.316406 76.787109 76.257812 76.082031 l -0.0137,-0.01953 -0.0918,-0.134766 V 75.763673 75.66211 l -0.0566,-0.0957 v -0.144531 -0.08984 l -0.0586,-0.113281 -0.0586,-0.113281 V 74.976562 74.847656 74.71875 74.589844 74.460938 74.353516 l -0.0293,-0.07227 V 74.17773 74.074215 73.970699 73.867184 73.763668 73.65234 73.59765 l -2.01562,-10.064453 -0.043,-0.04297 v -0.07227 l -0.0488,-0.08398 -0.01,-0.01563 -0.002,-0.0039 -0.0723,-0.123047 -0.0723,-0.123047 v -0.04492 l -0.0644,-0.117188 -0.0645,-0.119141 v -0.08008 l -0.008,-0.01563 -0.0586,-0.113281 -0.0586,-0.113281 v -0.128906 -0.0918 l -0.004,-0.0059 V 62.078125 61.917969 61.757812 61.597656 61.4375 61.277344 61.257812 l -0.006,-0.01953 v -0.07813 -0.07813 -0.07813 -0.07813 -0.07813 -0.07813 -0.07813 -0.07813 -0.07813 -0.01563 l -1.04102,-10.613281 -0.0801,-0.08789 v -0.205078 -0.08789 l -0.0644,-0.115235 -0.0664,-0.121094 v -0.136718 -0.136719 -0.134766 -0.134765 -0.13086 l -0.0117,-0.02344 v -0.125 -0.125 -0.125 -0.125 -0.125 -0.125 -0.06055 l -0.0137,-0.05078 v -0.07031 -0.07031 -0.0293 l -0.0352,-0.06836 v -0.125 -0.08203 l -0.008,-0.02344 v -0.04297 l -0.002,-0.0059 v -0.0078 l -0.0117,-0.03516 v -0.08594 -0.08594 -0.08594 -0.04297 l -0.008,-0.06836 -0.0137,-0.11914 -0.0137,-0.119141 -0.0137,-0.119141 -0.0137,-0.11914 -0.0137,-0.119141 -0.0137,-0.11914 0.0391,-0.113282 0.0391,-0.113281 0.0391,-0.113281 0.01,-0.02734 v -0.0098 l 0.01,-0.02734 v -0.01367 l 0.0176,-0.05078 V 45.46875 45.25 45.03125 44.8125 44.59375 l 0.0156,-0.01563 0.0293,-10.146484 v -0.002 -0.02344 -0.01953 -0.0293 -0.04297 -0.05859 -0.05664 -0.06445 -0.0625 -0.07031 -0.06836 -0.06836 -0.06836 -0.06836 -0.06836 -0.06836 -0.06836 -0.06836 -0.06836 -0.06836 -0.06836 -0.06836 -0.06836 l 0.0176,-0.06641 0.0176,-0.06641 0.0176,-0.06641 v -0.04297 -0.09375 l 0.0312,-0.08789 0.0254,-0.07031 1.19922,-11.673829 v -0.07812 -0.109376 -0.109374 -0.109376 -0.109374 -0.109376 -0.109374 -0.109376 -0.109374 -0.109376 -0.109374 l 0.0117,-0.02734 v -0.09766 -0.146485 -0.146484 -0.146485 -0.185546 l 0.0312,-0.03906 v -0.06836 -0.216797 -0.216797 -0.216797 -0.216797 -0.216797 -0.216797 l 0.15234,-0.154296 0.15235,-0.154297 0.15234,-0.154297 0.15235,-0.154297 0.13476,-0.136719 1.79102,-8.7109374 v -0.03125 -0.064453 -0.064453 -0.064453 -0.064453 l 0.002,-0.00781 v -0.070312 -0.085937 -0.085937 -0.085937 -0.085937 l 0.0195,-0.058594 v -0.00977 l 0.0293,-0.080078 0.002,-0.00781 0.002,-0.00586 0.006,-0.015625 0.008,-0.029297 0.002,-0.00586 v -0.046875 -0.125 -0.125 -0.125 -0.125 -0.125 l 0.002,-0.00391 v -0.08783 -0.1445312 l 0.0742,-0.125 0.0371,-0.0625 V 6.0820312 5.8652344 5.6484375 5.4316406 5.2148438 l 0.15235,-0.1542969 0.15234,-0.1542969 0.15234,-0.1542969 0.15235,-0.1542969 0.14257,-0.1445312 2.8711,-9.2109375 v -0.072266 -0.09375 l 0.0312,-0.087891 0.0215,-0.058594 v -0.015625 -0.125 -0.125 -0.125 -0.125 l 0.0176,-0.035156 v -0.039062 -0.1367188 l 0.0664,-0.1191406 0.0176,-0.03125 v -0.2246094 -0.5292969 -0.5292969 -0.5292968 -0.5292969 -0.5292969 -0.5292968 -0.5292969 -0.5292966 -0.529297 -0.529297 h 0.52929 0.5293 0.5293 0.52929 0.39063 l 2.44726,-5.738281 v -0.08594 -0.128907 -0.128906 l 0.0586,-0.113281 0.0195,-0.03711 v -0.02734 l 0.0371,-0.07031 v -0.06445 -0.216797 -0.216797 -0.216797 -0.216796 -0.216797 -0.216797 l 0.15234,-0.154297 0.15235,-0.154297 0.15234,-0.154297 0.15234,-0.154297 0.002,-0.002 v -0.0078 l 0.004,-0.0039 v -0.103515 l 0.16797,-0.15625 0.16797,-0.15625 0.16797,-0.15625 0.16797,-0.15625 0.15234,-0.140625 v -0.002 l 0.002,-0.002 0.0371,-0.0957 0.0762,-0.07617 0.0664,-0.06445 0.004,-0.0059 0.0391,-0.03711 0.28906,-0.527344 h -0.92383 -1.2539 -1.25391 -1.2539 l 0.875,-0.898438 0.875,-0.898437 0.875,-0.898438 0.875,-0.898437 0.875,-0.898438 0.875,-0.898437 0.875,-0.898438 0.875,-0.898437 0.875,-0.898438 0.84765,-0.871093 v -0.01563 l 0.15235,-0.154297 0.15234,-0.154297 0.004,-0.0039 v -0.0059 l 0.0918,-0.09375 v -0.002 l 0.0586,-0.05859 0.0918,-0.09375 v -0.002 l 0.15039,-0.154297 0.15039,-0.154296 0.002,-0.002 0.002,-0.002 v -0.002 l 0.002,-0.002 h 0.002 v -0.261719 -0.529297 -0.529297 -0.529296 -0.529297 -0.529297 -0.529297 h 0.52929 0.5293 0.5293 0.52929 0.5293 0.16016 l 3.91015,-5.683594 v -0.05664 -0.216797 -0.216797 -0.216797 -0.216797 l 0.15235,-0.154297 0.10937,-0.111328 v -0.0059 l 0.15235,-0.154297 0.15234,-0.154297 0.006,-0.0059 v -0.0059 l 0.15234,-0.154297 0.1543,-0.15625 0.002,-0.002 v -0.002 -0.002 l 0.15235,-0.154297 v -0.380859 -0.529297 -0.529297 -0.529297 -0.529297 h 0.52929 0.5293 0.5293 0.0371 l 0.0781,-0.15625 0.14649,-0.292968 0.14648,-0.292969 0.14649,-0.292969 0.14648,-0.292969 0.14648,-0.292969 0.14649,-0.292968 h 0.32617 0.32617 0.32617 0.32618 0.0586 l 3.74805,-4.421875 v -0.125 -0.21875 l 0.0762,-0.07617 v -0.002 l 0.0781,-0.07813 0.0762,-0.07617 v -0.002 l 0.0605,-0.06055 v -0.125 -0.529297 -0.529297 -0.529297 -0.529297 -0.529297 -0.529296 -0.529297 -0.529297 h 0.5293 0.5293 0.52929 0.5293 0.5293 0.52929 0.5293 0.5293 0.20117 l 5.38086,-5.207031 v -0.169922 -0.529297 -0.529297 -0.529297 -0.529297 -0.529297 h 0.5293 0.52929 0.5293 0.5293 0.51367 l 0.125,-0.146484 0.1582,-0.185547 0.1582,-0.185547 0.15821,-0.185547 h 0.0488 l 0.1582,-0.18164 0.1582,-0.181641 h 0.24024 0.13281 l 0.14258,-0.140625 h 0.004 l 0.004,-0.0039 0.1543,-0.152344 0.15429,-0.152344 h 0.2168 0.2168 0.16406 l 5.69141,-4.492187 v -0.339844 -0.529297 -0.529297 -0.529296 -0.529297 -0.529297 h 0.52929 0.5293 0.5293 0.52929 0.5293 0.5293 0.46875 l 0.0156,-0.01367 h 0.13672 l 0.14453,-0.115234 0.14453,-0.115235 0.14453,-0.115234 0.14454,-0.115235 0.14453,-0.115234 h 0.18554 0.18555 0.17188 l 2.01953,-1.332031 v -0.154297 -0.326172 l 0.29297,-0.146484 0.29296,-0.146485 v -0.0059 l 0.29297,-0.146484 0.29297,-0.146485 v -0.0039 l 0.29297,-0.146485 0.29297,-0.146484 v -0.408203 h 0.21484 v -0.460937 -0.529297 -0.529297 -0.529297 h 0.5293 0.5293 0.52929 0.5293 0.5293 0.52929 0.5293 0.23828 l 0.10547,-0.07813 h 0.10547 l 0.002,-0.002 0.13477,-0.0918 0.13476,-0.0918 h 0.16407 0.16406 0.0254 l 0.10352,-0.05859 0.12109,-0.06836 h 0.0547 l 6.44336,-3.511719 0.0215,-0.02734 0.0801,-0.101562 0.11914,-0.05273 0.11328,-0.05078 0.004,-0.002 0.0625,-0.02734 0.002,-0.002 0.0234,-0.02148 0.006,-0.002 0.0449,-0.04492 0.0801,-0.07813 0.0801,-0.07813 0.0801,-0.07813 0.10547,-0.03906 0.0488,-0.01758 0.0352,-0.03516 h 0.002 l 0.15234,-0.152344 h 0.004 l 0.002,-0.002 0.1543,-0.152344 0.1543,-0.152343 0.15429,-0.152344 0.1543,-0.152344 0.1543,-0.152344 h 0.12695 l 0.13476,-0.130859 h 0.21485 0.21484 0.21485 0.21484 0.002 l 0.0254,-0.01563 0.12696,-0.07813 0.12695,-0.07813 h 0.0742 l 0.004,-0.002 0.12304,-0.07227 0.12305,-0.07227 h 0.14453 0.14453 0.14453 0.14453 0.13086 l 5.67383,-2.384766 v -0.197266 -0.529296 -0.529297 -0.529297 -0.529297 h 0.5293 0.5293 0.52929 0.5293 0.5293 0.52929 0.5293 0.5293 0.0996 l 0.0586,-0.06055 h 0.22461 0.22461 0.0273 l 0.1211,-0.119141 h 0.21679 0.2168 0.21875 0.0605 l 0.0312,-0.01563 h 0.125 0.11328 l 0.0957,-0.03906 0.0957,-0.03906 h 0.10352 0.10352 0.10351 0.10352 0.0977 l 9.00196,-2.767578 0.0664,-0.06445 0.1543,-0.15039 0.1543,-0.150391 0.15429,-0.150391 0.1543,-0.15039 0.1543,-0.150391 h 0.0254 l 0.69726,-0.658203 0.89258,-0.84375 v 0.0039 l 0.45117,-0.427734 0.89453,-0.84961 0.89454,-0.849609 0.89453,-0.849609 0.89453,-0.84961 v 1.232422 1.232422 1.232422 0.886719 L 232,-95.431641 V -95.9375 h 0.5293 0.52929 0.5293 0.41602 l 0.11328,-0.05859 0.11328,-0.05859 0.11328,-0.05859 0.11328,-0.05859 0.11328,-0.05859 h 0.12891 0.1289 0.12891 0.12891 0.1289 0.12891 0.12891 0.1289 l 0.0293,-0.0098 h 0.0859 0.0859 0.0859 0.0762 0.0762 0.0762 0.0762 0.0762 0.0762 0.0723 0.004 l 11.40234,-1.121094 0.008,-0.0039 v -0.002 h 0.002 l 0.0996,-0.04297 0.0996,-0.04297 h 0.10938 0.10937 0.0723 l 0.0742,-0.02148 0.0723,-0.02148 h 0.0742 0.0762 0.0273 l 0.006,-0.002 h 0.0195 l 0.0215,-0.0078 0.0859,-0.03125 h 0.0547 l 0.0371,-0.0098 h 0.002 l 0.0332,-0.0098 h 0.01 l 0.0371,-0.0098 h 0.008 l 0.0352,-0.0098 H 249 l 0.10156,-0.02734 0.10547,-0.02734 0.10742,0.01563 0.10352,0.01563 h 0.002 l 0.0645,0.0098 h 0.006 l 0.0352,0.0059 h 0.006 l 0.0254,0.0039 h 0.004 l 0.0351,0.0059 h 0.006 l 0.0254,0.0039 h 0.0156 l 0.0234,0.0059 h 0.006 0.0469 l 0.0117,0.0039 h 0.008 l 0.0488,0.01172 h 0.0117 l 0.0449,0.0078 0.0332,0.0059 h 0.0332 0.0645 l 0.0156,0.0039 h 0.041 0.0957 l 0.0742,0.02734 h 0.0195 l 0.0156,0.0039 h 0.10156 0.16016 l 0.004,0.0039 h 0.002 0.10742 0.10937 l 0.0137,0.0059 1.60742,0.0039 -0.36524,-0.382813 -1.35351,-1.419921 -1.35547,-1.421882 -1.35742,-1.42383 z m 101.1914,40.570308 0.0527,0.09766 0.004,-0.111328 z m 73.28907,93.033203 v 0.002 l 0.002,0.0078 0.002,0.002 -0.004,-0.01758 z m -302.67578,112.933589 0.25586,-0.30468 -0.44922,-0.10352 z m 0.4082,1.50586 0.0332,-0.006 -0.0215,-0.0195 z m 193.38281,52.03516 -0.004,0.002 -0.006,0.004 0.0176,-0.008 z"
       id="path6586"
       inkscape:connector-curvature="0" />
  </g>
</svg>
