<?xml version="1.0" encoding="UTF-8" standalone="no"?>
<!-- Created with Inkscape (http://www.inkscape.org/) -->

<svg
   xmlns:dc="http://purl.org/dc/elements/1.1/"
   xmlns:cc="http://creativecommons.org/ns#"
   xmlns:rdf="http://www.w3.org/1999/02/22-rdf-syntax-ns#"
   xmlns:svg="http://www.w3.org/2000/svg"
   xmlns="http://www.w3.org/2000/svg"
   xmlns:xlink="http://www.w3.org/1999/xlink"
   xmlns:sodipodi="http://sodipodi.sourceforge.net/DTD/sodipodi-0.dtd"
   xmlns:inkscape="http://www.inkscape.org/namespaces/inkscape"
   width="210mm"
   height="297mm"
   viewBox="0 0 210 297"
   version="1.1"
   id="svg8"
   inkscape:version="0.92+devel unknown"
   sodipodi:docname="off.svg">
  <defs
     id="defs2">
    <linearGradient
       inkscape:collect="always"
       id="linearGradient4668">
      <stop
         style="stop-color:#ffffff;stop-opacity:0.91529071"
         offset="0"
         id="stop4664" />
      <stop
         style="stop-color:#ffffff;stop-opacity:1"
         offset="1"
         id="stop4666" />
    </linearGradient>
    <linearGradient
       inkscape:collect="always"
       id="linearGradient889">
      <stop
         style="stop-color:#f60000;stop-opacity:1"
         offset="0"
         id="stop885" />
      <stop
         style="stop-color:#ff3e3e;stop-opacity:1"
         offset="1"
         id="stop887" />
    </linearGradient>
    <filter
       inkscape:collect="always"
       style="color-interpolation-filters:sRGB"
       id="filter857"
       x="-0.040937527"
       width="1.0818751"
       y="-0.29847955"
       height="1.5969591">
      <feGaussianBlur
         inkscape:collect="always"
         stdDeviation="1.829806"
         id="feGaussianBlur859" />
    </filter>
    <linearGradient
       inkscape:collect="always"
       xlink:href="#linearGradient889"
       id="linearGradient891"
       x1="100.89643"
       y1="40.95026"
       x2="100.89643"
       y2="162.95137"
       gradientUnits="userSpaceOnUse"
       gradientTransform="matrix(1.6231936,0,0,1.6231936,-58.488556,-32.717724)" />
    <linearGradient
       inkscape:collect="always"
       xlink:href="#linearGradient4668"
       id="linearGradient4670"
       x1="105.65178"
       y1="47.53772"
       x2="105.33469"
       y2="28.104963"
       gradientUnits="userSpaceOnUse" />
    <filter
       inkscape:collect="always"
       style="color-interpolation-filters:sRGB"
       id="filter4672"
       x="-0.0075963667"
       width="1.0151927"
       y="-0.028551209"
       height="1.0571024">
      <feGaussianBlur
         inkscape:collect="always"
         stdDeviation="0.46189929"
         id="feGaussianBlur4674" />
    </filter>
    <filter
       inkscape:collect="always"
       style="color-interpolation-filters:sRGB"
       id="filter4374"
       x="-0.053892362"
       width="1.1077847"
       y="-0.0067516856"
       height="1.0135034">
      <feGaussianBlur
         inkscape:collect="always"
         stdDeviation="0.29757227"
         id="feGaussianBlur4376" />
    </filter>
    <filter
       inkscape:collect="always"
       style="color-interpolation-filters:sRGB"
       id="filter4412"
       x="-0.01121691"
       width="1.0224338"
       y="-0.012900636"
       height="1.0258013">
      <feGaussianBlur
         inkscape:collect="always"
         stdDeviation="0.64467935"
         id="feGaussianBlur4414" />
    </filter>
  </defs>
  <sodipodi:namedview
     id="base"
     pagecolor="#ffffff"
     bordercolor="#666666"
     borderopacity="1.0"
     inkscape:pageopacity="0.0"
     inkscape:pageshadow="2"
     inkscape:zoom="0.48250589"
     inkscape:cx="278.50698"
     inkscape:cy="411.93199"
     inkscape:document-units="mm"
     inkscape:current-layer="layer1"
     inkscape:document-rotation="0"
     showgrid="false"
     inkscape:window-width="1920"
     inkscape:window-height="969"
     inkscape:window-x="0"
     inkscape:window-y="0"
     inkscape:window-maximized="1"
     inkscape:snap-global="false"
     inkscape:snap-bbox="true" />
  <metadata
     id="metadata5">
    <rdf:RDF>
      <cc:Work
         rdf:about="">
        <dc:format>image/svg+xml</dc:format>
        <dc:type
           rdf:resource="http://purl.org/dc/dcmitype/StillImage" />
        <dc:title />
      </cc:Work>
    </rdf:RDF>
  </metadata>
  <g
     inkscape:label="Vrstva 1"
     inkscape:groupmode="layer"
     id="layer1"
     style="display:inline">
    <path
       style="display:inline;opacity:1;fill:#000000;fill-opacity:1;stroke-width:0.1;paint-order:stroke fill markers;filter:url(#filter857)"
       id="path831"
       sodipodi:type="arc"
       sodipodi:cx="105"
       sodipodi:cy="196.96841"
       sodipodi:rx="53.637024"
       sodipodi:ry="7.3565078"
       sodipodi:start="5.73681"
       sodipodi:end="5.7342618"
       sodipodi:open="true"
       sodipodi:arc-type="chord"
       d="m 150.8282,193.14602 a 53.637024,7.3565078 0 0 1 -17.92955,10.10546 53.637024,7.3565078 0 0 1 -73.691302,-2.45267 53.637024,7.3565078 0 0 1 17.835661,-10.10858 53.637024,7.3565078 0 0 1 73.714021,2.43979 z"
       transform="matrix(1.6231936,0,0,1.6231936,-65.435329,-83.980226)" />
    <path
       style="display:inline;opacity:1;fill:#fb0000;fill-opacity:1;stroke-width:0.16231936;paint-order:stroke fill markers"
       d="M 100.04892,33.611192 A 99.485021,99.485021 0 0 0 52.996796,48.077282 99.485021,99.485021 0 0 0 5.7953634,140.95104 99.485021,99.485021 0 0 0 20.21532,194.87048 99.485021,99.485021 0 0 0 156.89665,228.0395 99.485021,99.485021 0 0 0 204.20461,135.10033 99.485021,99.485021 0 0 0 189.85176,81.288235 l -0.13164,-0.216421 a 99.485021,99.485021 0 0 0 -89.6712,-47.460622 z"
       id="path18"
       inkscape:connector-curvature="0" />
    <path
       style="display:inline;opacity:1;fill:url(#linearGradient891);fill-opacity:1;stroke-width:0.16231936;paint-order:stroke fill markers"
       id="path10"
       sodipodi:type="arc"
       sodipodi:cx="105"
       sodipodi:cy="132.01299"
       sodipodi:rx="99.485023"
       sodipodi:ry="99.485023"
       sodipodi:start="5.73681"
       sodipodi:end="5.7342618"
       sodipodi:open="true"
       sodipodi:arc-type="chord"
       d="M 190.00135,80.321198 A 99.485023,99.485023 0 0 1 156.74593,216.98138 99.485023,99.485023 0 0 1 20.064583,183.81303 99.485023,99.485023 0 0 1 53.145856,47.110584 99.485023,99.485023 0 0 1 189.86935,80.104765 Z" />
    <path
       style="display:inline;opacity:1;fill:#0f968d;fill-opacity:1;stroke:none;stroke-width:1.62319362;stroke-miterlimit:4;stroke-dasharray:none;stroke-opacity:1;paint-order:stroke fill markers;filter:url(#filter4412)"
       d="m 85.228516,73.259766 -0.902344,0.25 h -0.0039 l -0.002,0.002 -0.941406,0.271484 -0.0078,0.002 h -0.002 l -0.0332,0.0078 -0.03125,0.0098 -0.0039,0.002 -0.0078,0.002 -0.941407,0.298828 -0.05664,0.0078 -0.04883,0.02539 -1.970703,0.6875 -0.0059,0.002 -0.0059,0.002 -0.01563,0.0059 -0.04102,0.01562 -0.01953,0.01172 -1.902344,0.742188 -0.0059,0.002 -0.0078,0.002 -0.01172,0.0039 -0.01172,0.0039 -0.01172,0.0039 -0.01953,0.0059 -0.01953,0.0078 -1.962891,0.830078 -0.0098,0.0059 -0.02148,0.0098 h -0.002 l -0.0059,0.0039 -1.884765,0.857422 -0.0098,0.0039 h -0.002 l -0.01367,0.0078 -0.01367,0.0059 h -0.002 l -0.002,0.002 -1.783203,0.859375 h -0.002 l -0.03125,0.01563 -0.02148,0.0098 -0.0098,0.0059 h -0.002 l -1.689453,0.853516 -0.01758,0.0098 -0.0039,0.002 -0.0078,0.0039 h -0.002 l -1.552735,0.820312 -0.01367,0.0078 -0.01172,0.0078 -0.0098,0.0059 -0.0078,0.0039 -0.0039,0.002 -1.396484,0.773438 -0.01172,0.002 -0.07617,0.04492 -0.0078,0.0059 -1.4375,0.841797 -0.002,0.002 -0.002,0.002 -0.0098,0.0059 -0.05664,0.0332 -0.0098,0.0098 -1.273438,0.787109 -0.04492,0.0098 -0.0918,0.07422 -0.0078,0.0059 -1.339844,0.875 -0.0078,0.0039 -0.04883,0.0293 -0.02344,0.02148 -1.292969,0.890625 -0.0078,0.0039 -0.01172,0.0078 -0.0059,0.002 -0.01367,0.01172 -0.0098,0.0078 -1.285156,0.93164 -0.07813,0.04492 -0.02734,0.03516 -1.193359,0.910156 -0.04297,0.02539 -0.04687,0.04492 -0.0059,0.0059 -1.201172,0.960937 v -0.002 l -0.0098,0.0078 -0.02344,0.01953 -0.02148,0.01953 -0.0059,0.0059 -1.15625,0.972656 -0.01953,0.01172 -0.03711,0.03125 -1.160156,1.03125 -0.01953,0.01563 -0.002,0.002 -0.0098,0.0098 -0.01172,0.0098 -0.0059,0.0059 -1.140625,1.060547 -0.0059,0.0059 -0.0078,0.0059 -0.0098,0.0098 -0.0059,0.0059 -0.0039,0.0039 -1.109375,1.085938 -0.002,0.002 -0.002,0.002 -0.0059,0.0059 -0.02539,0.02734 -0.01172,0.01367 -1.046875,1.076172 -0.0039,0.0059 -0.0059,0.0039 -0.0059,0.0059 -0.0059,0.0078 -0.0078,0.0078 -1.007813,1.089843 -0.0098,0.0059 -0.05273,0.0625 -0.01367,0.01563 -0.988282,1.125 -0.0098,0.0098 -0.0059,0.0078 -0.01563,0.01758 -0.01172,0.01172 -0.0039,0.0078 -0.960937,1.150391 -0.01367,0.01953 -0.0078,0.0098 -0.0039,0.0039 -0.0078,0.01367 -0.929688,1.169922 -0.0059,0.0039 -0.0039,0.0059 -0.0059,0.0078 -0.0059,0.0098 -0.0059,0.0078 -0.0039,0.0059 -0.873047,1.160156 -0.02344,0.02344 -0.02539,0.03711 -0.84375,1.185544 -0.05273,0.0547 -0.02539,0.0625 -0.769531,1.13672 -0.04883,0.0508 -0.0293,0.0664 -0.769531,1.21289 -0.0039,0.006 -0.0039,0.004 -0.0039,0.006 -0.0059,0.0117 -0.0059,0.008 v 0.002 l -0.767578,1.26563 v 0.002 l -0.0059,0.01 -0.0059,0.006 -0.0098,0.0156 -0.728516,1.2832 -0.0098,0.0195 -0.0078,0.0117 -0.0059,0.0156 -0.662109,1.23828 -0.06836,0.084 -0.0098,0.0742 -0.603516,1.20899 -0.0059,0.008 -0.01563,0.0273 -0.01758,0.0391 0.0098,-0.0176 -0.01367,0.0273 -0.597656,1.27344 -0.01172,0.0195 -0.01367,0.0332 -0.0039,0.006 -0.0039,0.01 -0.560546,1.28125 -0.03906,0.0566 -0.01367,0.0664 -0.525391,1.29883 v 0.002 h -0.002 l -0.0039,0.01 -0.0039,0.01 v 0.006 l -0.002,0.004 -0.50586,1.33594 -0.0059,0.0137 -0.002,0.008 -0.01953,0.043 -0.0059,0.0293 -0.457031,1.32031 -0.0039,0.01 v 0.002 l -0.002,0.004 v 0.002 l -0.0039,0.0117 -0.0059,0.0176 -0.4375,1.37695 -0.0078,0.0254 -0.002,0.002 -0.002,0.0117 0.002,-0.002 -0.0039,0.0176 0.002,-0.0156 -0.0039,0.0176 v 0.002 l -0.002,0.008 -0.375,1.30468 -0.0039,0.01 -0.0039,0.01 -0.01172,0.0312 -0.0078,0.0332 -0.353515,1.35742 -0.002,0.008 -0.002,0.004 -0.0039,0.0117 -0.0039,0.0117 -0.0039,0.0137 -0.002,0.0117 -0.0039,0.0137 -0.316406,1.375 -0.0039,0.0137 -0.0059,0.0195 -0.0039,0.0215 -0.002,0.01 0.002,-0.002 -0.287109,1.4043 -0.01172,0.0527 v 0.0176 l -0.240235,1.35547 v 0.002 l -0.002,0.0156 -0.002,0.008 -0.0059,0.0371 -0.002,0.008 v 0.006 l -0.201172,1.36523 -0.01563,0.0547 v 0.0566 l -0.167969,1.38867 -0.002,0.0195 -0.002,0.0137 v 0.006 l -0.132813,1.42773 -0.002,0.0234 v 0.0254 0.01 0.006 0.006 l -0.08984,1.33789 -0.0098,0.0352 v 0.0625 0.0117 0.01 l -0.05664,1.41211 v 0.0117 0.01 0.0117 0.008 0.006 l -0.01563,1.42969 v 0.004 0.002 0.0137 0.01 0.004 0.004 l 0.02148,1.42773 v 0.008 0.006 0.0137 0.0117 0.0117 l 0.06445,1.42578 v 0.0137 0.0293 l 0.0059,0.0332 0.09766,1.375 v 0.01 0.004 0.0137 0.0254 l 0.002,0.0273 0.142578,1.43555 0.0078,0.0742 0.0039,0.01 0.173828,1.37696 v 0.0117 l 0.0059,0.041 0.222656,1.4336 0.002,0.006 0.0059,0.0488 0.0098,0.0293 0.246094,1.33984 v 0.0527 l 0.02148,0.0664 0.291016,1.37891 0.002,0.0117 v 0.004 l 0.002,0.006 0.0078,0.0449 0.01367,0.0371 0.314453,1.3164 v 0.0937 l 0.04492,0.0781 0.355468,1.30273 0.002,0.01 v 0.004 l 0.0059,0.0391 0.01172,0.0391 0.425781,1.41601 0.01758,0.0625 0.0098,0.0156 0.441406,1.3418 0.002,0.0176 0.01758,0.0508 0.507813,1.40429 0.0039,0.008 0.002,0.01 0.0039,0.01 0.0039,0.006 0.002,0.004 v 0.002 l 0.0059,0.0137 0.525391,1.33789 0.0098,0.0508 0.03516,0.0605 0.560546,1.31446 0.002,0.01 0.01758,0.0586 0.02734,0.043 0.595703,1.29687 0.01563,0.0801 0.05469,0.0684 0.626953,1.28125 0.01367,0.041 0.02148,0.0332 0.002,0.002 0.0039,0.008 0.705078,1.34375 0.0059,0.0137 0.002,0.004 0.0039,0.008 0.002,0.002 0.01172,0.0234 0.734376,1.3086 0.0078,0.0215 0.03125,0.0488 0.0059,0.01 h -0.002 l 0.802735,1.34375 h 0.002 l 0.0059,0.01 0.0059,0.01 0.002,0.006 0.0039,0.006 0.845703,1.33593 0.01563,0.0254 0.0059,0.006 0.0039,0.008 0.0078,0.008 0.875,1.30664 0.0098,0.0137 0.002,0.004 0.0039,0.006 0.0059,0.008 0.0039,0.004 0.912109,1.2832 0.0059,0.01 0.0039,0.006 0.0039,0.008 0.01563,0.0234 0.957031,1.27539 0.02344,0.0293 0.02539,0.0273 0.0098,0.01 0.0039,0.004 0.931641,1.17383 0.02148,0.0371 0.04492,0.0469 -0.01953,-0.0254 0.0293,0.0352 0.96289,1.14649 0.01953,0.0312 0.04492,0.0469 0.0059,0.006 0.998047,1.12891 0.01367,0.0234 0.03711,0.0371 0.0078,0.01 0.0059,0.006 1.060547,1.14453 0.0078,0.008 0.0059,0.008 0.0098,0.01 0.0078,0.006 0.002,0.004 1.078125,1.09766 0.0098,0.0117 0.02539,0.0274 0.0059,0.006 0.0039,0.002 0.002,0.002 1.107422,1.07813 0.03125,0.0391 0.04297,0.0332 0.0098,0.008 1.085938,1.00195 0.0059,0.0117 0.06055,0.0547 1.162109,1.01757 0.002,0.004 0.02148,0.0176 0.02539,0.0215 0.01172,0.01 1.199219,1.0039 h 0.002 l 0.02344,0.0195 0.0059,0.006 0.0059,0.004 1.222656,0.97266 0.0098,0.008 0.02734,0.0215 0.01758,0.01 1.197266,0.9043 0.0332,0.0332 0.0293,0.0156 0.01172,0.008 1.230469,0.88672 0.02539,0.0234 0.03906,0.0234 1.283203,0.87695 0.01953,0.0137 0.02539,0.0156 0.02344,0.0156 h 0.002 l 1.292969,0.83984 0.0078,0.006 0.0039,0.004 0.0039,0.002 0.02344,0.0156 1.345703,0.83008 0.07031,0.043 0.01758,0.004 1.277344,0.75195 0.0059,0.004 h 0.002 l 0.0078,0.008 0.0098,0.004 0.002,0.002 0.0098,0.006 0.0059,0.006 0.0078,0.004 1.384766,0.76954 0.0293,0.0156 h 0.002 l 0.0098,0.006 1.335938,0.70117 0.0078,0.008 0.07617,0.0391 1.419922,0.70703 0.06445,0.0312 0.02148,0.004 1.353516,0.63282 0.01563,0.0117 0.04297,0.0195 1.455078,0.64257 0.0078,0.004 0.0078,0.004 0.0098,0.004 0.0098,0.004 -0.0059,-0.004 1.470703,0.61133 0.01563,0.006 0.0098,0.004 0.02344,0.01 0.01367,0.004 1.412109,0.55078 0.0059,0.004 0.03516,0.0117 0.01367,0.006 0.01172,0.004 0.0078,0.004 0.0098,0.002 1.455078,0.53516 0.0059,0.002 0.02148,0.008 -0.01172,-0.002 0.0059,0.004 0.03516,0.01 1.513672,0.51563 -0.01758,-0.004 0.04492,0.0176 0.03906,0.008 0.0098,0.002 1.419922,0.45117 0.0059,0.004 0.07617,0.0234 h 0.002 l 1.5,0.44141 0.01367,0.004 0.01953,0.008 h 0.0039 l 0.0293,0.01 h 0.002 l 0.0078,0.002 1.541016,0.41602 0.06836,0.0176 h 0.0098 l 1.470703,0.36523 0.07813,0.0293 h 0.05664 l 1.457031,0.32617 0.0293,0.0117 0.04687,0.01 1.578125,0.32032 0.05273,0.01 h 0.0098 l 1.498047,0.27149 0.0059,0.004 0.08203,0.0137 1.59375,0.25196 0.04102,0.006 h 0.03125 l 1.488281,0.20703 0.05078,0.0195 h 0.08398 l 1.572265,0.17969 h 0.0039 l 0.02734,0.004 1.615235,0.15235 0.02344,0.002 h 0.02539 0.002 0.0039 0.0098 l 1.568366,0.11914 0.0156,0.002 h 0.0156 l 0.0137,0.002 1.61914,0.084 h 0.0137 0.0137 0.004 0.006 0.01 l 1.61133,0.0488 h 0.008 0.008 0.006 0.004 0.006 l 1.625,0.0176 h 0.004 0.002 0.01 0.01 0.004 0.002 l 1.62305,-0.0195 h 0.006 0.004 0.01 0.01 0.008 l 1.61328,-0.0547 h 0.01 0.008 0.002 0.0137 0.0156 l 1.63281,-0.0879 0.0859,-0.006 0.0137,-0.006 1.51758,-0.11523 h 0.01 0.004 0.006 0.0254 l 0.0254,-0.002 1.62891,-0.1582 0.0605,-0.006 0.0137,-0.006 1.55469,-0.18555 h 0.082 l 0.0488,-0.0195 1.51563,-0.21289 h 0.0195 l 0.0449,-0.008 0.01,-0.002 h 0.002 l 1.57422,-0.25977 h 0.0234 l 0.0508,-0.01 0.004,-0.002 h 0.006 l 1.56055,-0.29492 h 0.0508 l 0.0644,-0.0215 1.52149,-0.31836 h 0.0117 l 0.0508,-0.01 0.01,-0.002 0.008,-0.002 0.01,-0.002 1.58984,-0.37109 0.006,-0.002 h 0.004 l 0.008,-0.002 0.0137,-0.002 0.0195,-0.006 0.0137,-0.004 1.54883,-0.40039 h 0.004 l 0.008,-0.002 0.0273,-0.004 0.0273,-0.008 1.59375,-0.44727 0.006,-0.002 0.0215,-0.006 0.004,-0.002 0.01,-0.004 0.0137,-0.004 1.5332,-0.46485 0.0312,-0.006 0.0547,-0.0195 0.01,-0.004 1.50976,-0.50195 0.0879,-0.0176 0.0391,-0.0273 1.45507,-0.51367 0.0156,-0.002 0.0391,-0.0137 0.0117,-0.004 0.01,-0.004 0.0117,-0.004 1.5293,-0.58398 0.008,-0.002 0.0215,-0.01 0.0254,-0.01 0.0156,-0.006 0.0137,-0.006 1.51954,-0.61719 0.002,-0.002 0.008,-0.002 0.006,-0.004 0.006,-0.002 0.0137,-0.006 h 0.002 l 0.002,-0.002 1.49609,-0.6543 0.01,-0.002 0.0566,-0.0254 0.0156,-0.008 1.48438,-0.6875 0.01,-0.004 0.0156,-0.008 0.0234,-0.01 0.0254,-0.0156 0.01,-0.006 1.48633,-0.72852 0.0312,-0.0156 0.0137,-0.01 0.004,-0.002 0.006,-0.004 1.42578,-0.74414 0.008,-0.004 h 0.002 l 0.0391,-0.0176 0.0293,-0.0176 0.006,-0.004 0.01,-0.006 1.38867,-0.76367 0.0586,-0.0117 0.084,-0.0684 1.38672,-0.8086 0.006,-0.002 0.0117,-0.008 0.0273,-0.0156 0.008,-0.004 0.0254,-0.0156 0.002,-0.002 1.3789,-0.84961 0.004,-0.004 0.01,-0.006 0.01,-0.004 0.008,-0.006 1.37305,-0.89454 0.008,-0.004 0.0488,-0.0293 0.0234,-0.0215 1.24609,-0.85743 0.0625,-0.0254 0.0566,-0.0566 1.26367,-0.9082 0.0176,-0.01 0.0273,-0.0215 0.01,-0.008 1.27344,-0.9668 h 0.002 l 0.0586,-0.0449 0.006,-0.008 1.18359,-0.94336 0.0117,-0.006 0.0137,-0.0137 0.0176,-0.0137 0.0117,-0.01 h 0.002 l 0.002,-0.002 1.21289,-1.0254 0.0176,-0.0137 0.0156,-0.0156 -0.0137,0.01 0.0195,-0.0156 0.006,-0.006 1.13867,-1.00391 0.01,-0.008 0.01,-0.01 0.0137,-0.01 0.0176,-0.0176 0.004,-0.002 0.01,-0.01 1.13477,-1.05664 0.006,-0.006 0.008,-0.006 0.006,-0.006 v -0.002 l 0.006,-0.004 1.06836,-1.04296 0.0664,-0.041 0.041,-0.0664 1.03711,-1.0625 0.004,-0.006 h 0.002 l 0.01,-0.01 0.006,-0.008 0.008,-0.008 1.03321,-1.11328 0.006,-0.006 0.008,-0.01 0.0371,-0.0371 0.0137,-0.0254 0.92774,-1.05078 0.0723,-0.043 0.0449,-0.0918 0.91406,-1.08984 0.004,-0.004 0.0215,-0.0273 0.0215,-0.0254 0.004,-0.006 0.93945,-1.17969 0.0215,-0.0273 0.0137,-0.0254 0.004,-0.006 0.875,-1.16016 0.008,-0.008 0.006,-0.01 0.01,-0.0117 0.008,-0.01 0.002,-0.004 0.85938,-1.19922 0.002,-0.002 0.006,-0.008 0.008,-0.0117 0.0254,-0.0312 0.0156,-0.0293 0.79297,-1.17578 0.006,-0.008 0.002,-0.002 0.0215,-0.0273 0.0156,-0.0273 0.002,-0.004 0.006,-0.01 0.79297,-1.24218 0.004,-0.006 0.004,-0.008 0.006,-0.01 0.006,-0.008 v -0.002 l 0.76758,-1.26562 v -0.002 l 0.006,-0.01 0.0215,-0.0352 0.01,-0.0234 0.70508,-1.23243 0.006,-0.01 0.006,-0.01 0.008,-0.01 0.006,-0.0117 0.69336,-1.29688 0.0234,-0.0371 0.01,-0.0312 0.64063,-1.27343 0.002,-0.004 0.0332,-0.0547 0.008,-0.0332 0.59179,-1.25586 0.006,-0.01 v -0.002 l 0.01,-0.0195 0.006,-0.0137 0.004,-0.006 0.004,-0.01 0.57813,-1.32031 0.002,-0.002 v -0.002 l 0.002,-0.006 0.0117,-0.0274 0.008,-0.0156 0.002,-0.008 0.53711,-1.32031 v -0.002 h 0.002 l 0.004,-0.01 0.0176,-0.0449 0.004,-0.0234 0.48047,-1.26562 0.002,-0.004 0.0176,-0.0391 0.004,-0.01 0.004,-0.0117 0.004,-0.01 0.47851,-1.36719 v -0.004 l 0.002,-0.004 0.004,-0.0117 0.0156,-0.0449 0.002,-0.0215 0.41211,-1.29296 0.004,-0.01 0.0195,-0.0547 0.006,-0.0332 0.39453,-1.35352 v -0.002 l 0.002,-0.002 0.004,-0.0137 0.006,-0.0195 0.004,-0.0215 v -0.004 l 0.002,-0.006 0.34765,-1.32812 0.004,-0.0117 v -0.002 l 0.0156,-0.043 0.004,-0.0371 0.3125,-1.34375 0.004,-0.0117 0.0234,-0.0703 v -0.0449 l 0.27149,-1.32227 0.002,-0.008 0.002,-0.006 0.002,-0.0117 0.002,-0.01 0.002,-0.004 0.006,-0.0273 0.25,-1.41407 0.008,-0.0449 v -0.0176 l 0.20703,-1.38086 0.002,-0.006 v -0.004 l 0.006,-0.0371 v -0.002 l 0.16992,-1.39062 0.004,-0.0117 0.006,-0.0606 0.13281,-1.42773 0.002,-0.0234 v -0.0254 -0.01 -0.004 -0.006 l 0.0918,-1.33203 0.01,-0.0371 v -0.0644 -0.01 -0.0117 l 0.0566,-1.41601 v -0.0117 -0.01 -0.0117 -0.004 -0.006 l 0.0176,-1.43164 v -0.002 -0.004 -0.0117 -0.0137 -0.004 -0.002 l -0.0176,-1.42969 v -0.006 -0.004 -0.0137 -0.0117 -0.01 l -0.0606,-1.41797 v -0.0137 -0.008 -0.0781 l -0.0117,-0.0332 -0.0937,-1.33203 v -0.01 -0.004 -0.01 -0.0254 l -0.002,-0.0254 -0.13868,-1.43555 v -0.01 l -0.004,-0.0332 -0.18164,-1.43359 v -0.006 l -0.006,-0.0352 -0.004,-0.0312 -0.002,-0.004 -0.20898,-1.37696 v -0.0137 l -0.008,-0.0469 -0.25976,-1.4336 -0.006,-0.0273 -0.004,-0.0137 -0.002,-0.01 v -0.002 l -0.004,-0.0117 -0.28711,-1.36914 v -0.0137 l -0.0137,-0.0606 -0.33984,-1.42773 -0.006,-0.0312 -0.0117,-0.0332 -0.37305,-1.38867 -0.002,-0.006 v -0.004 l -0.002,-0.004 -0.008,-0.0352 -0.42187,-1.40429 -0.0137,-0.0664 -0.0234,-0.0371 -0.43164,-1.31836 -0.004,-0.0273 -0.0176,-0.0508 -0.5039,-1.39454 -0.004,-0.0117 -0.0176,-0.0547 -0.0156,-0.0254 -0.50391,-1.29297 -0.01,-0.0762 -0.0449,-0.0664 -0.5664,-1.3418 -0.004,-0.008 v -0.002 l -0.004,-0.01 -0.006,-0.01 -0.004,-0.0117 -0.63086,-1.38672 -0.004,-0.01 -0.006,-0.008 -0.006,-0.0117 -0.004,-0.006 -0.004,-0.0117 -0.008,-0.01 -0.004,-0.008 -0.62695,-1.28125 -0.0156,-0.0742 -0.0605,-0.0742 -0.67383,-1.29297 -0.002,-0.006 -0.004,-0.008 -0.002,-0.002 -0.004,-0.008 -0.006,-0.0156 -0.0137,-0.0234 -0.75976,-1.35742 -0.01,-0.0195 -0.006,-0.008 -0.002,-0.002 -0.004,-0.006 -0.78711,-1.32812 -0.006,-0.0117 v -0.002 h -0.002 l -0.004,-0.01 -0.0137,-0.0234 -0.83789,-1.32422 -0.006,-0.01 v -0.002 l -0.006,-0.008 -0.006,-0.0117 -0.008,-0.0117 -0.80078,-1.19531 v -0.008 l -0.0957,-0.13672 -0.0215,-0.0293 -0.0312,-0.0449 -0.002,-0.008 -0.0391,-0.0547 -0.006,-0.008 v -0.002 l -0.77735,-1.089843 -0.004,-0.0059 -0.004,-0.0059 -0.004,-0.0059 -0.002,-0.002 -0.006,-0.0078 -0.73633,-0.988281 -0.004,-0.01563 -0.0781,-0.09961 -0.81836,-1.046875 -0.002,-0.0039 -0.004,-0.0039 -0.0137,-0.01758 -0.006,-0.0078 -0.002,-0.002 -0.002,-0.002 -0.83204,-1.015625 -0.006,-0.0078 -0.0449,-0.06055 -0.0254,-0.01953 -0.81054,-0.951172 -0.004,-0.0078 -0.0332,-0.03906 -0.89258,-0.998047 -0.01,-0.0098 -0.01,-0.01172 h -0.002 l -0.006,-0.0078 -0.006,-0.0059 -0.90429,-0.96875 -0.006,-0.0059 -0.006,-0.0078 -0.006,-0.0059 -0.004,-0.002 -0.004,-0.0059 -0.93164,-0.955078 -0.002,-0.002 -0.002,-0.0039 -0.006,-0.0059 -0.006,-0.0059 -0.002,-0.002 -0.002,-0.002 -0.9375,-0.917969 -0.006,-0.0059 -0.0176,-0.01758 -0.002,-0.0039 -0.006,-0.0059 -0.006,-0.0039 -0.006,-0.0059 -0.94532,-0.892578 -0.0254,-0.02734 -0.006,-0.0059 -0.01,-0.0078 -0.01,-0.0098 -0.99804,-0.904297 -0.01,-0.0078 -0.0293,-0.02734 -0.0137,-0.0078 -0.96484,-0.833984 -0.006,-0.0059 -0.006,-0.0059 -0.0176,-0.01563 -0.0195,-0.01758 -1.00781,-0.835937 -0.0137,-0.0098 -0.0195,-0.01758 -0.0195,-0.01563 -0.0566,-0.04687 -0.004,-0.002 -0.99414,-0.791016 -0.0215,-0.01563 -0.006,-0.0059 h -0.002 v 0.002 l -0.01,-0.0078 -0.008,-0.0059 -1.00976,-0.769531 -0.006,-0.0078 -0.0625,-0.04687 -0.0508,-0.03711 -1.04296,-0.761719 -0.0195,-0.01367 -0.006,-0.002 -0.004,-0.002 -0.004,-0.0039 h -0.002 l -0.006,-0.0039 -1.05469,-0.736329 -0.0664,-0.06641 -0.0566,-0.01953 -0.99219,-0.666016 -0.0742,-0.09766 -0.11133,-0.02344 -1.01953,-0.652343 -0.0117,-0.01172 -0.0527,-0.0332 -1.125,-0.691406 -0.002,-0.002 -0.0332,-0.01953 -0.0254,-0.01563 -0.0137,-0.0078 -1.16602,-0.683594 -0.0156,-0.0078 -0.0156,-0.0078 -0.008,-0.0039 -0.0625,-0.0332 h -0.004 l -1.04297,-0.583985 -0.0293,-0.01758 -0.0156,-0.0098 -0.006,-0.0039 -0.0215,-0.01563 -0.0215,-0.01172 -1.1211,-0.599609 -0.006,-0.0059 -0.10937,-0.05664 -0.0449,-0.02148 -1.16406,-0.591797 -0.0547,-0.03711 -0.043,-0.0098 -1.17969,-0.574219 -0.0508,-0.02344 -0.0195,-0.0039 -1.16993,-0.539062 -0.0176,-0.01367 -0.043,-0.01758 -1.24219,-0.544922 -0.006,-0.0039 -0.0215,-0.0078 -0.008,-0.0039 -0.006,-0.0039 h -0.002 l -0.01,-0.0039 -1.24414,-0.515624 -0.006,-0.0039 -0.0274,-0.0098 -0.0117,-0.0059 -0.0137,-0.0039 -0.0234,-0.0098 h -0.004 l -1.22266,-0.482422 -0.008,-0.0039 -0.0352,-0.01172 -0.0156,-0.0078 -0.008,-0.002 -0.008,-0.0039 -0.008,-0.002 -1.27344,-0.474609 -0.0137,-0.0039 h 0.004 l -0.01,-0.0039 -0.0117,-0.0039 -0.0117,-0.0039 -1.29101,-0.449219 -0.084,-0.04297 h -0.0469 l -1.24219,-0.410157 -0.7832,-0.259765 -0.48047,-0.160157 -0.17969,0.47461 -0.29297,0.773437 -0.002,0.002 -3.49219,9.330079 -0.31836,0.849609 -0.19531,0.521484 0.53125,0.167969 0.86523,0.273438 h 0.002 v 0.002 l 2.35547,0.736328 2.22851,0.791016 0.006,0.002 0.004,0.002 h 0.002 l 0.01,0.0039 0.0176,0.0059 2.15235,0.855469 h 0.002 l 0.0274,0.01367 0.006,0.002 0.006,0.002 2.14649,0.941406 0.01,0.0059 h 0.002 l 0.006,0.0039 0.008,0.0039 2.08594,1.021485 2.05273,1.097656 0.01,0.0059 0.0215,0.01367 0.006,0.0039 0.006,0.002 1.99219,1.173828 0.002,0.002 0.0117,0.0078 1.93555,1.248047 -0.006,-0.0059 0.0117,0.0078 0.0176,0.01172 -0.0117,-0.0059 1.87305,1.316406 0.008,0.0059 0.006,0.0039 0.002,0.002 h 0.002 l 0.91016,0.685547 0.008,0.0059 0.87305,0.683594 0.004,0.0039 0.85352,0.693359 0.01,0.0098 0.004,0.0039 0.0156,0.01367 0.0156,0.01367 0.86133,0.734375 0.006,0.0039 0.0117,0.01172 0.004,0.002 0.81446,0.720703 0.002,0.0039 0.0117,0.0098 0.006,0.0078 0.82226,0.767572 0.004,0.002 0.008,0.008 0.002,0.002 0.01,0.008 0.79492,0.77343 0.004,0.006 0.004,0.002 0.77735,0.79102 0.004,0.002 0.0117,0.0137 0.006,0.006 0.0117,0.01 0.72266,0.77149 0.01,0.01 0.002,0.004 0.004,0.004 0.002,0.002 0.004,0.006 0.73633,0.8125 0.002,0.002 0.006,0.01 0.004,0.002 0.006,0.008 0.72656,0.8418 0.002,0.004 0.004,0.002 0.0156,0.0176 0.69727,0.85743 0.004,0.004 0.67578,0.86328 0.008,0.008 0.002,0.004 0.004,0.004 0.006,0.006 0.64258,0.85742 0.004,0.008 0.008,0.008 0.006,0.01 0.0605,0.0859 0.004,0.004 0.74609,1.06055 0.008,0.01 v 0.002 l 0.71485,1.08008 0.004,0.004 0.002,0.004 0.002,0.002 0.68555,1.09766 0.008,0.006 0.62305,1.06445 0.0117,0.0176 0.004,0.004 0.58985,1.07812 0.01,0.0156 0.008,0.0137 0.006,0.01 0.008,0.0117 0.53711,1.05274 0.002,0.004 0.006,0.0117 0.004,0.008 0.51758,1.08398 0.48047,1.08203 0.0117,0.0527 0.0332,0.0488 0.44141,1.07617 0.002,0.002 0.004,0.008 0.006,0.0156 0.41015,1.08203 v 0.004 l 0.004,0.0137 0.006,0.0176 0.39062,1.12696 0.002,0.008 0.004,0.008 0.002,0.006 0.34765,1.11719 0.002,0.004 v 0.004 l 0.002,0.004 0.31641,1.10547 0.006,0.0254 0.002,0.002 v 0.002 0.006 l 0.2832,1.125 0.002,0.01 0.002,0.01 0.002,0.006 0.24414,1.10352 v 0.0137 l 0.006,0.0273 0.21484,1.12891 0.1836,1.14258 0.002,0.01 0.002,0.0176 v 0.008 l 0.15235,1.14258 0.002,0.01 v 0.002 l 0.002,0.01 0.11524,1.15625 0.084,1.11523 0.0508,1.14844 v 0.0234 0.004 0.004 l 0.0176,1.13672 v 0.008 0.004 0.006 0.008 l -0.0156,1.13281 v 0.004 0.004 0.002 0.0234 l -0.0508,1.14453 -0.0762,1.10547 -0.004,0.006 -0.11524,1.16016 v 0.002 0.002 0.006 l -0.002,0.0137 v 0.002 l -0.14258,1.10938 -0.002,0.008 v 0.008 l -0.006,0.0293 v 0.008 l -0.17578,1.12109 -0.20313,1.0918 -0.002,0.0137 -0.24219,1.11328 v 0.002 l -0.004,0.0156 -0.002,0.006 v 0.002 0.002 l -0.26757,1.10547 -0.004,0.0137 -0.002,0.006 v 0.002 l -0.29102,1.06445 -0.002,0.008 -0.0215,0.0527 -0.004,0.0332 -0.32813,1.0625 -0.004,0.0137 -0.004,0.0137 -0.002,0.008 -0.004,0.0156 -0.34961,1.04493 -0.004,0.01 v 0.002 l -0.004,0.01 -0.39453,1.07617 -0.43164,1.08399 -0.004,0.008 -0.006,0.0137 v 0.002 l -0.002,0.004 -0.002,0.004 -0.45507,1.0625 -0.004,0.01 -0.004,0.008 -0.002,0.004 -0.49414,1.06445 -0.002,0.006 -0.002,0.002 -0.50195,1.02148 -0.008,0.0137 -0.006,0.01 -0.006,0.01 -0.004,0.01 -0.55468,1.04492 -0.004,0.006 v 0.002 l -0.002,0.002 v 0.002 l -0.01,0.0195 -0.5625,0.99805 -0.01,0.0156 -0.002,0.004 -0.002,0.004 -0.008,0.0137 -0.0137,0.0234 -0.59375,0.98242 -0.004,0.008 -0.004,0.006 -0.002,0.002 -0.63672,1.00196 -0.008,0.0137 -0.006,0.008 -0.002,0.004 -0.66601,0.99023 -0.006,0.008 -0.006,0.008 -0.002,0.004 -0.68164,0.96094 -0.008,0.01 -0.008,0.01 -0.002,0.004 -0.002,0.002 -0.006,0.006 -0.73633,0.98047 -0.0117,0.0156 0.01,-0.01 -0.75976,0.95703 -0.002,0.002 -0.006,0.008 -0.76953,0.92383 -0.002,0.002 -0.0137,0.0137 -0.0117,0.0117 -0.01,0.0137 -0.82422,0.93555 h -0.002 v 0.002 l -0.004,0.004 -0.01,0.0117 -0.82617,0.89258 -0.008,0.006 -0.006,0.006 -0.006,0.008 -0.008,0.006 -0.875,0.89844 -0.004,0.004 -0.004,0.004 -0.91601,0.89844 -0.002,0.002 h -0.002 l -0.004,0.006 -0.0137,0.0117 -0.89843,0.83789 -0.002,0.002 -0.0137,0.0117 -0.0176,0.0137 -0.96679,0.85742 -0.004,0.002 -0.004,0.004 -0.008,0.008 -0.99805,0.83594 -0.0176,0.0156 -0.01,0.008 -0.008,0.008 -0.99414,0.79492 -0.008,0.008 -0.0117,0.008 -1.04492,0.79102 -0.008,0.006 -0.008,0.006 -1.05078,0.75976 -0.0156,0.01 -0.01,0.006 -0.004,0.004 -0.006,0.004 -1.10547,0.76367 -0.008,0.004 -0.004,0.004 -0.002,0.002 -0.043,0.0254 -0.008,0.008 -1.08398,0.70508 -0.008,0.006 -0.006,0.004 h -0.002 l -1.14453,0.7129 -0.006,0.002 -0.0117,0.006 -0.0156,0.01 -1.16993,0.69141 -0.0156,0.004 -1.24023,0.6914 h -0.002 l -0.004,0.002 -0.004,0.002 -1.2207,0.64453 -0.01,0.004 -0.008,0.004 -0.0117,0.006 -0.002,0.002 -0.008,0.004 -1.27343,0.63672 -0.008,0.004 -0.0117,0.006 -1.27149,0.59375 -0.006,0.002 -0.002,0.002 -0.002,0.002 h -0.002 l -1.26562,0.55664 -0.004,0.002 -0.0117,0.004 -0.008,0.004 -0.004,0.002 -0.004,0.002 -1.30664,0.53906 -0.01,0.004 -0.008,0.002 -0.006,0.004 -1.30469,0.5039 -0.0234,0.01 -0.006,0.004 -1.28906,0.4668 -0.0117,0.004 -0.006,0.002 h -0.002 l -1.25195,0.42383 h -0.01 l -0.0898,0.0332 -0.0156,0.006 -1.26562,0.39844 -0.0156,0.002 -0.041,0.0117 -1.35156,0.39453 h -0.002 -0.002 l -0.004,0.002 -0.0156,0.004 -1.29492,0.3457 -0.0156,0.002 -0.0371,0.01 -1.34375,0.33203 -0.006,-0.002 -1.37109,0.30469 -0.0117,0.002 -0.008,0.002 -1.37305,0.27149 -0.006,0.002 -0.006,0.002 -1.3457,0.23829 -0.0117,0.002 h -0.004 -0.004 v 0.002 h -0.004 -0.002 -0.006 l -1.35352,0.21289 -0.0117,0.002 h -0.008 l -0.01,0.002 h -0.008 l -1.39648,0.1875 -0.008,0.004 -1.36719,0.15429 -0.0293,0.002 -0.01,0.002 -1.37305,0.12695 -1.37695,0.0996 0.008,-0.002 -1.39453,0.0762 h -0.008 -0.002 -0.008 l -1.37109,0.0449 h -0.0156 -0.002 -0.002 -0.002 l -1.38281,0.0156 h -0.006 -0.004 -0.006 l -1.38281,-0.0137 h -0.004 -0.002 -0.004 -0.0156 l -1.36719,-0.041 h -0.004 -0.004 -0.008 l -1.38672,-0.0703 -0.01,0.004 -1.359374,-0.0957 h -0.0039 l -0.01563,-0.002 h -0.0059 l -1.347657,-0.12305 h -0.0039 l -0.01563,-0.002 0.0059,0.002 -1.359375,-0.15234 -1.382813,-0.18164 h -0.002 -0.0039 l -0.01172,-0.002 -1.326172,-0.19922 -0.01563,-0.002 -0.0059,-0.002 h -0.002 -0.002 l -1.347656,-0.23438 H 92.75 l -0.0039,-0.002 h -0.0059 -0.002 l -0.01367,-0.002 -1.285156,-0.24805 -0.0078,-0.002 -0.03125,-0.006 -0.0039,-0.002 -1.332031,-0.2832 -0.0039,-0.002 -0.01367,-0.002 h 0.0059 l -1.294922,-0.30273 -0.0078,-0.002 -0.01172,-0.004 -0.0098,-0.002 h -0.002 l -0.0098,-0.002 -1.314453,-0.33789 v -0.002 h -0.002 l -0.01563,-0.004 -1.294922,-0.36718 -0.03906,-0.01 -0.01563,-0.002 -1.25,-0.37695 v -0.002 l -0.0078,-0.002 -0.01172,-0.004 -1.253906,-0.40625 -0.01563,-0.006 -0.0059,-0.002 -0.0059,-0.002 -1.265625,-0.44141 -0.01172,-0.004 -0.0039,-0.002 h -0.002 l -1.261719,-0.46875 -0.0078,-0.002 -0.0078,-0.004 -0.01563,-0.006 -0.0059,-0.002 -1.21875,-0.48242 -0.0059,-0.002 -0.01367,-0.006 -1.208984,-0.50976 -0.0059,-0.004 -0.0039,-0.002 h -0.002 l -0.0098,-0.004 -1.220703,-0.54492 -0.0039,-0.002 -0.0098,-0.006 -0.01367,-0.004 -0.002,-0.002 -1.142578,-0.53906 -0.01563,-0.008 -0.0059,-0.004 -0.01758,-0.008 -0.0059,-0.004 -1.195313,-0.59961 -0.02344,-0.0137 -0.01953,-0.008 -0.0078,-0.002 -1.126953,-0.59765 -0.0059,-0.004 -0.0039,-0.002 h -0.002 l -1.121094,-0.62696 -0.0098,-0.008 -0.0293,-0.0176 -1.142578,-0.67187 -0.01563,-0.008 -0.01172,-0.006 -0.0039,-0.002 -1.095703,-0.67773 -0.002,-0.002 -0.0039,-0.002 -0.002,-0.002 -1.072266,-0.69727 -0.01172,-0.01 -0.02539,-0.0176 -1.087891,-0.74414 -0.0039,-0.002 -0.0039,-0.002 -0.002,-0.002 -0.0078,-0.006 -0.01563,-0.01 -1.033203,-0.74805 -0.0039,-0.002 -0.002,-0.002 -0.002,-0.002 -1.044922,-0.79297 h -0.002 v -0.002 l -0.0039,-0.002 -0.01172,-0.01 -1.011719,-0.80664 -0.0059,-0.004 -0.01953,-0.0156 -0.958984,-0.80274 -0.0039,-0.004 -0.01367,-0.0117 -0.0059,-0.004 -0.0059,-0.008 -0.980469,-0.86133 h -0.002 l -0.0039,-0.004 -0.01172,-0.01 -0.929687,-0.86133 -0.01563,-0.0137 v -0.002 l -0.0039,-0.002 -0.002,-0.002 -0.925781,-0.9043 -0.0059,-0.004 -0.0039,-0.006 -0.0039,-0.002 -0.01758,-0.0176 -0.0059,-0.006 -0.882813,-0.90039 -0.0059,-0.006 v -0.002 l -0.0059,-0.004 -0.867187,-0.9336 -0.0059,-0.0117 -0.853516,-0.96875 -0.0059,-0.008 -0.0078,-0.01 -0.0059,-0.008 -0.0059,-0.008 -0.826171,-0.98828 -0.0078,-0.01 -0.0078,-0.008 v -0.002 l -0.787109,-0.99024 -0.0078,-0.0137 -0.01563,-0.0215 -0.783204,-1.04688 -0.01172,-0.0176 -0.01367,-0.0137 -0.720703,-1.01953 -0.0078,-0.0117 -0.0078,-0.0117 h 0.002 l -0.71875,-1.08593 -0.667969,-1.05664 -0.0059,-0.01 -0.0039,-0.008 -0.002,-0.002 -0.638671,-1.08204 v -0.002 h -0.002 l -0.002,-0.006 -0.597656,-1.08984 -0.0039,-0.006 -0.0039,-0.006 v -0.002 l -0.0098,-0.0156 -0.0039,-0.008 -0.544922,-1.05469 -0.002,-0.004 -0.0039,-0.01 -0.002,-0.002 -0.0039,-0.0117 -0.527344,-1.09375 -0.0059,-0.0117 -0.0039,-0.008 v -0.002 L 50.8125,148.2168 v -0.002 l -0.0039,-0.01 -0.002,-0.002 v -0.002 l -0.458985,-1.11523 -0.002,-0.002 -0.002,-0.008 -0.423828,-1.125 -0.0078,-0.0156 -0.0059,-0.0156 -0.002,-0.004 -0.386719,-1.10938 -0.0039,-0.0137 -0.345703,-1.0957 -0.0059,-0.0176 -0.320312,-1.14453 -0.002,-0.006 v -0.004 l -0.0059,-0.0195 -0.289062,-1.14258 -0.0039,-0.004 -0.248047,-1.11915 v -0.002 -0.002 l -0.002,-0.006 -0.002,-0.0156 -0.002,-0.004 -0.21289,-1.11914 -0.002,-0.006 -0.002,-0.0156 v 0.008 l -0.185546,-1.12109 0.002,-0.008 -0.158203,-1.19141 -0.0039,-0.006 -0.113281,-1.12109 -0.002,-0.0137 -0.002,-0.0137 -0.002,-0.0156 -0.002,-0.01 -0.07813,-1.10156 0.002,0.0117 -0.05469,-1.16992 v -0.004 -0.006 l -0.01953,-1.13086 v -0.01 -0.004 -0.006 -0.008 l 0.01758,-1.13867 v -0.004 -0.004 -0.002 -0.0215 l 0.04687,-1.14453 0.07422,-1.10352 0.0039,-0.006 0.111328,-1.14844 0.002,-0.01 v -0.002 -0.002 l 0.002,-0.008 0.142578,-1.13086 0.002,-0.0137 v -0.008 -0.004 l 0.179687,-1.13867 -0.002,-0.008 0.201172,-1.08789 0.240234,-1.12305 v -0.002 l 0.0039,-0.0156 v -0.004 l 0.0039,-0.0117 0.263672,-1.08789 0.002,-0.004 0.0039,-0.0156 0.002,-0.01 0.002,-0.004 0.302735,-1.11328 0.0039,-0.01 0.002,-0.01 0.002,-0.0117 0.0039,-0.0137 0.326172,-1.06836 0.002,-0.008 0.002,-0.008 0.36914,-1.09375 0.002,-0.006 0.0039,-0.0117 0.386718,-1.0625 0.0039,-0.01 0.002,-0.006 v -0.002 l 0.002,-0.004 0.002,-0.006 0.0039,-0.01 0.414063,-1.04883 0.0039,-0.008 0.0059,-0.0137 v -0.002 l 0.002,-0.004 0.002,-0.006 0.445312,-1.04493 0.0078,-0.0156 0.002,-0.004 0.0039,-0.008 v -0.002 l 0.0039,-0.006 0.492188,-1.06836 0.002,-0.002 0.002,-0.006 0.0078,-0.0156 0.513672,-1.04102 0.002,-0.002 v -0.002 l 0.002,-0.006 0.01172,-0.0195 0.0039,-0.01 0.533203,-1.00976 0.0039,-0.008 0.0039,-0.008 0.0039,-0.006 0.580078,-1.03125 0.0059,-0.0117 0.0059,-0.0117 0.002,-0.004 0.0078,-0.0156 0.582031,-0.9707 0.0078,-0.0117 0.0039,-0.006 0.002,-0.004 0.002,-0.002 0.0039,-0.004 0.621094,-0.98438 0.115235,-0.13086 v -0.043 l 0.578125,-0.86132 0.0059,-0.008 0.0059,-0.008 0.002,-0.004 0.701171,-0.98437 v -0.002 l 0.002,-0.002 0.0039,-0.004 0.748047,-0.9961 0.0039,-0.0117 0.714844,-0.90429 0.0078,-0.008 0.02148,-0.0234 0.01172,-0.0195 0.0098,-0.0117 0.0039,-0.006 0.746094,-0.89649 0.002,-0.002 0.01563,-0.0156 0.01172,-0.0137 0.01172,-0.0117 0.800782,-0.91407 0.0098,-0.01 0.002,-0.002 0.0078,-0.008 0.002,-0.004 0.002,-0.002 0.002,-0.004 0.833985,-0.90625 0.01367,-0.008 0.910156,-0.93945 0.902344,-0.88477 0.0039,-0.002 0.002,-0.002 0.01172,-0.0117 -0.01563,0.0117 0.941406,-0.875002 0.01953,-0.01563 0.01172,-0.01367 0.0039,-0.0059 0.939453,-0.828125 0.002,-0.002 0.0078,-0.0059 0.0059,-0.0059 0.970704,-0.818359 0.002,-0.002 0.01367,-0.0098 0.0059,-0.0059 0.002,-0.002 0.0059,-0.0039 1.021485,-0.820312 0.002,-0.002 0.01758,-0.01367 1.005859,-0.769532 0.0039,-0.002 0.01172,-0.0078 0.01563,-0.0098 0.01367,-0.01172 1.083985,-0.787109 0.0078,-0.0039 0.0059,-0.0059 0.01562,-0.01172 0.002,-0.002 1.072265,-0.734374 0.01563,-0.0098 0.002,-0.0039 h 0.002 l 0.0059,-0.0039 1.11914,-0.738281 0.01953,-0.01172 0.0039,-0.002 0.0039,-0.002 1.166016,-0.722656 0.0078,-0.0059 0.0039,-0.002 0.0039,-0.002 0.0078,-0.0059 1.179688,-0.691406 0.0059,-0.0039 0.0078,-0.0039 0.0059,-0.0039 0.0098,-0.0059 1.201172,-0.669922 h 0.002 l 0.0039,-0.002 0.0059,-0.0039 1.222657,-0.646484 0.02539,-0.01367 0.0059,-0.002 0.0098,-0.0059 1.460938,-0.722657 h 0.002 v -0.002 l 0.0039,-0.002 0.01563,-0.0078 1.472656,-0.677734 0.002,-0.002 0.01172,-0.0039 0.0078,-0.0039 1.464843,-0.634765 0.01367,-0.0039 0.0098,-0.0039 0.01563,-0.0078 0.0059,-0.002 1.53125,-0.615235 h 0.0039 l 0.002,-0.002 0.0039,-0.002 0.0059,-0.002 0.01367,-0.0059 1.529297,-0.5625 0.0098,-0.0039 0.0098,-0.0039 1.480469,-0.501953 0.08203,-0.02734 0.0078,-0.002 0.0098,-0.0039 1.578124,-0.490235 0.0078,-0.0039 h 0.0039 l 0.01172,-0.0039 0.0059,-0.002 0.01563,-0.0059 1.589844,-0.449219 0.779297,-0.222657 0.478516,-0.136718 -0.105469,-0.486328 -0.173828,-0.789063 -2.222656,-10.076172 v -0.002 h -0.002 L 85.884766,73.654297 85.763672,73.111328 Z M 137.53125,78.25 l 0.0137,0.0078 -0.0195,-0.0098 z M 56.785156,88.423828 v -0.002 l 0.0059,-0.0039 z m 87.298824,7.71875 -0.86914,-0.173828 0.38477,-0.570312 z m -85.664058,7.541012 -0.558594,-0.46093 0.816406,-0.41993 z m -0.533203,0.61914 -0.859375,0.40821 0.283203,-0.90625 z m 96.839841,2.17774 -0.57031,0.38476 -0.17383,-0.86914 z m 3.44141,5.33008 -0.63477,0.32812 -0.0664,-0.9082 z m 12.84375,2.53711 v 0.008 l -0.006,-0.0215 z m -122.652345,8.84961 -0.595703,0.80859 -0.212891,-0.98242 z m -0.966797,7.61328 -0.853516,-0.041 0.472657,-0.91211 z m 116.119142,2.52539 -0.4707,0.91015 -0.37891,-0.95117 z m -116.390626,2.26172 -0.447266,-0.85547 0.779297,-0.0527 z m 0.601562,3.79687 0.306641,-0.0644 -0.08789,0.3789 0.220703,0.31641 -0.30664,0.0566 -0.0625,0.27344 -0.171875,-0.23047 -0.304688,0.0547 0.08789,-0.34571 -0.240235,-0.32226 0.341797,-0.0723 0.06641,-0.25976 z m 12.785156,23.21875 -0.476562,0.5 -0.355469,-0.8164 z m 79.220708,8.57422 -0.80079,0.18555 0.44532,-0.68946 z m -17.01563,7.53906 -1.00391,-0.1582 0.7793,-0.65039 z m -10.36914,1.48047 -0.85352,0.44727 -0.0527,-0.77539 z m -12.648438,0.16602 -0.90039,0.26367 0.0918,-0.74219 z m -27.796874,5.17187 h -0.0039 l -0.0039,-0.002 -0.01758,-0.01 z"
       id="path4378"
       inkscape:connector-curvature="0" />
    <path
       style="display:inline;opacity:1;fill:#aafffa;fill-opacity:1;stroke:none;stroke-width:1;stroke-miterlimit:4;stroke-dasharray:none;stroke-opacity:1;paint-order:stroke fill markers"
       d="m 119.1067,101.14478 c 8.76179,2.78546 16.37014,8.13456 21.39457,15.37957 l 0.0553,0.0801 c 11.93668,17.31148 5.71006,39.87905 -13.91078,50.41779 -19.62096,10.53864 -45.213078,5.06133 -57.174796,-12.23675 -11.961742,-17.29806 -5.767728,-39.87266 13.837915,-50.43345 2.435035,-1.31163 5.979468,-3.01391 9.18631,-3.89722 l 1.37,6.20746 m 0,0 c -2.71975,0.73529 -5.337157,1.74024 -7.794722,3 -17.109338,8.77039 -22.514791,27.51763 -12.076265,41.88308 10.438685,14.36565 32.772598,18.91456 49.895658,10.16261 17.12293,-8.7521 22.55684,-27.49387 12.13977,-41.87055 l -0.048,-0.0662 c -4.45242,-6.10982 -11.23007,-10.59612 -19.0258,-12.87824 l 2.15084,-5.74818"
       id="path880"
       inkscape:connector-curvature="0"
       sodipodi:nodetypes="cccccccccssccccc"
       transform="matrix(1.6231936,0,0,1.6231936,-65.435329,-88.213562)" />
    <path
       style="opacity:1;fill:#009e95;fill-opacity:1;stroke:none;stroke-width:1.41234088;stroke-miterlimit:4;stroke-dasharray:none;stroke-opacity:1;paint-order:stroke fill markers;filter:url(#filter4374)"
       d="m 98.716797,55.236328 -0.0059,0.851563 -0.859376,104.058589 -0.0078,0.86524 -0.0039,0.5332 h 0.533203 0.867187 11.519539 0.86523 0.5332 l -0.004,-0.5332 -0.006,-0.86524 -0.85938,-104.058589 -0.006,-0.851563 -0.004,-0.52539 h -0.52539 -0.85157 -9.80273 -0.853519 -0.525391 z"
       id="path4358"
       inkscape:connector-curvature="0" />
    <path
       style="opacity:1;fill:#aafffa;fill-opacity:1;stroke:none;stroke-width:0.87010008;stroke-miterlimit:4;stroke-dasharray:none;stroke-opacity:1;paint-order:stroke fill markers"
       d="m 101.97954,88.907038 h 6.04092 l 0.52917,64.106772 h -7.09926 z"
       id="rect4378"
       inkscape:connector-curvature="0"
       sodipodi:nodetypes="ccccc"
       transform="matrix(1.6231936,0,0,1.6231936,-65.435329,-88.213562)" />
    <path
       style="display:inline;opacity:0.27399998;fill:url(#linearGradient4670);fill-opacity:1;stroke:none;stroke-width:0.26458332px;stroke-linecap:butt;stroke-linejoin:miter;stroke-opacity:1;filter:url(#filter4672)"
       d="M 35.909263,56.284682 C 63.658482,18.625723 153.63775,17.478859 181.84196,67.75745 137.6309,23.98101 57.565612,36.250231 35.909263,56.284682 Z"
       id="path4485"
       inkscape:connector-curvature="0"
       sodipodi:nodetypes="ccc"
       transform="matrix(1,0,0,-1,1.1416593,259.75492)" />
  </g>
</svg>
