<?xml version="1.0" encoding="UTF-8" standalone="no"?>
<!-- Created with Inkscape (http://www.inkscape.org/) -->

<svg
   xmlns:dc="http://purl.org/dc/elements/1.1/"
   xmlns:cc="http://creativecommons.org/ns#"
   xmlns:rdf="http://www.w3.org/1999/02/22-rdf-syntax-ns#"
   xmlns:svg="http://www.w3.org/2000/svg"
   xmlns="http://www.w3.org/2000/svg"
   xmlns:xlink="http://www.w3.org/1999/xlink"
   xmlns:sodipodi="http://sodipodi.sourceforge.net/DTD/sodipodi-0.dtd"
   xmlns:inkscape="http://www.inkscape.org/namespaces/inkscape"
   width="200mm"
   height="200mm"
   viewBox="0 0 200 200"
   version="1.1"
   id="svg8"
   sodipodi:docname="qmtn.svg"
   inkscape:version="0.92+devel unknown"
   inkscape:export-filename="/home/vm/vyvoj/wahibresstuff.mtngui/rsc/qmtn.png"
   inkscape:export-xdpi="16.256001"
   inkscape:export-ydpi="16.256001">
  <defs
     id="defs2">
    <linearGradient
       inkscape:collect="always"
       id="linearGradient2318">
      <stop
         style="stop-color:#ffffff;stop-opacity:0.67752016"
         offset="0"
         id="stop2314" />
      <stop
         style="stop-color:#ffffff;stop-opacity:0;"
         offset="1"
         id="stop2316" />
    </linearGradient>
    <filter
       style="color-interpolation-filters:sRGB"
       inkscape:label="Roughen"
       id="filter4796">
      <feTurbulence
         type="fractalNoise"
         numOctaves="4"
         seed="22"
         baseFrequency="0.5383 0.3484"
         result="turbulence"
         id="feTurbulence4792" />
      <feDisplacementMap
         in="SourceGraphic"
         in2="turbulence"
         scale="3.5"
         yChannelSelector="G"
         xChannelSelector="R"
         id="feDisplacementMap4794" />
    </filter>
    <radialGradient
       inkscape:collect="always"
       xlink:href="#linearGradient2318"
       id="radialGradient2320"
       cx="111.14258"
       cy="158.43785"
       fx="111.14258"
       fy="158.43785"
       r="47.213631"
       gradientTransform="matrix(0.18979251,0.21622826,-0.67449906,0.59203577,214.08381,36.201151)"
       gradientUnits="userSpaceOnUse" />
  </defs>
  <sodipodi:namedview
     id="base"
     pagecolor="#ffffff"
     bordercolor="#666666"
     borderopacity="1.0"
     inkscape:pageopacity="0.0"
     inkscape:pageshadow="2"
     inkscape:zoom="1.0014479"
     inkscape:cx="623.67954"
     inkscape:cy="376.12276"
     inkscape:document-units="mm"
     inkscape:current-layer="layer1"
     inkscape:document-rotation="0"
     showgrid="false"
     inkscape:window-width="1920"
     inkscape:window-height="967"
     inkscape:window-x="0"
     inkscape:window-y="0"
     inkscape:window-maximized="1" />
  <metadata
     id="metadata5">
    <rdf:RDF>
      <cc:Work
         rdf:about="">
        <dc:format>image/svg+xml</dc:format>
        <dc:type
           rdf:resource="http://purl.org/dc/dcmitype/StillImage" />
        <dc:title></dc:title>
      </cc:Work>
    </rdf:RDF>
  </metadata>
  <g
     inkscape:label="Vrstva 1"
     inkscape:groupmode="layer"
     id="layer1"
     transform="translate(0,-97)">
    <path
       style="fill:#ffb380;fill-opacity:1;stroke:none;stroke-width:0.58948946px;stroke-linecap:butt;stroke-linejoin:miter;stroke-opacity:1"
       d="m 155.21719,135.2615 c -4.44855,-3.55507 -9.01937,-7.09882 -14.46956,-9.22391 -8.01216,-3.11313 -17.60314,-2.81742 -26.44496,0.40797 -7.19197,2.60959 -13.87609,6.86554 -19.9803,11.74188 -10.561956,8.28922 -21.056483,16.72431 -30.785677,26.03374 -11.268722,10.67221 -22.27294,21.61954 -33.285141,32.55477 -4.183016,4.15887 -8.361029,8.32277 -12.523789,12.50178 0,33.05176 -0.07987,28.62509 -0.07987,67.62274 23.836966,0 45.607878,0.58537 82.018973,0.58537 0.832304,0.41681 1.900754,-0.21016 2.513974,-0.94353 8.01185,-8.12348 15.88132,-16.38942 23.46692,-24.90234 6.39486,-7.12405 12.8001,-14.23953 19.15065,-21.40133 6.09678,-7.05822 11.68785,-14.53194 16.67503,-22.33331 3.83736,-6.032 7.34977,-12.24907 10.35031,-18.65042 1.65634,-3.63784 3.00555,-7.39585 3.73194,-11.21312 1.44354,-7.09972 1.06739,-14.37171 -1.50539,-20.60307 -1.48076,-3.66653 -3.73803,-6.88706 -6.31592,-9.77514 -3.42074,-3.97564 -7.18727,-7.63227 -11.02889,-11.19681 -0.49609,-0.40175 -0.9922,-0.80352 -1.4883,-1.20528 z"
       id="path25"
       inkscape:connector-curvature="0"
       sodipodi:nodetypes="caaacccccasscccccccc"
       clip-path="none" />
    <path
       style="fill:#88aa00;fill-opacity:1;stroke-width:1.48239946"
       d="m 160.12834,124.81547 c -1.27486,-0.86704 -2.75543,-1.45839 -4.14052,-2.17717 -0.78131,-0.40546 -1.56533,-0.80719 -2.37377,-1.17253 -1.03554,-0.46296 -2.09956,-0.88138 -3.16914,-1.28997 -0.63263,-0.22732 -1.24559,-0.49024 -1.9147,-0.6534 -0.52837,-0.13311 -1.05094,-0.27965 -1.60704,-0.35582 -0.58644,-0.0838 -1.18513,-0.13892 -1.78734,-0.18399 -0.59393,-0.0442 -1.18965,-0.0843 -1.80326,-0.072 -0.62424,-0.003 -1.25422,0.0141 -1.89498,0.0696 -0.60105,0.0392 -1.21205,0.12024 -1.82723,0.22651 -0.66256,0.1058 -1.32781,0.22803 -1.99759,0.3839 -0.65921,0.1512 -1.32052,0.31987 -1.98334,0.51745 -0.64364,0.18851 -1.2886,0.40624 -1.93273,0.63503 -0.83139,0.29309 -1.66073,0.63255 -2.49063,0.9575 -0.69988,0.28922 -1.399,0.58749 -2.0959,0.90474 -0.89175,0.40981 -1.78107,0.83731 -2.66572,1.28974 -0.94017,0.48174 -1.87296,0.99785 -2.80533,1.51372 -0.83135,0.48673 -1.66176,0.9792 -2.47578,1.51824 -0.68642,0.44541 -1.37717,0.88219 -2.04489,1.37284 -0.82329,0.59352 -1.64961,1.18157 -2.46094,1.79923 -0.98463,0.77041 -1.95926,1.5582 -2.92296,2.36329 -0.58166,0.47495 -1.1528,0.96579 -1.72186,1.45975 -1.16773,1.01148 -2.32606,2.03642 -3.48971,3.05374 -3.62928,3.19031 -7.25372,6.38739 -10.878582,9.5839 -1.167889,1.11422 -2.336519,2.2279 -3.48918,3.3598 -1.153027,1.15734 -2.29882,2.32241 -3.449969,3.48177 -0.509588,0.56614 -1.013199,1.13732 -1.510835,1.71357 -0.484402,0.59179 -0.932047,1.20737 -1.379522,1.82234 -0.371638,0.53122 -0.715432,1.07627 -1.035316,1.62954 -0.350596,0.63328 -0.681511,1.27366 -0.959921,1.92316 -0.301005,0.66911 -0.576613,1.34277 -0.819734,2.018 -0.342349,0.91244 -0.620879,1.82702 -0.906681,2.7406 -0.206607,0.82458 -0.425461,1.6508 -0.585144,2.47074 -0.200778,0.9787 -0.303695,1.94088 -0.428301,2.90572 -0.07837,0.67434 -0.07993,1.32807 -0.09487,1.98449 -0.0094,0.65024 0.02818,1.28433 0.07038,1.91563 0.04057,0.6306 0.122817,1.24355 0.2081,1.85483 0.08662,0.62099 0.206784,1.22564 0.343423,1.82126 0.162003,0.7062 0.422135,1.35542 0.686075,1.99876 0.231904,0.56524 0.469592,1.12836 0.773494,1.64149 0.280976,0.47442 0.567466,0.94448 0.877709,1.39497 0.410479,0.59602 0.835656,1.17957 1.307349,1.71981 0.359058,0.41127 0.712424,0.82859 1.090868,1.2206 1.050902,1.08845 2.123939,2.15404 3.199333,3.21713 11.424454,11.29378 9.416414,9.30855 28.373504,27.44463 0.54822,0.52446 3.47995,2.656 4.12764,3.06299 0.52005,0.32677 1.09382,0.58273 1.69052,0.79788 0.53606,0.19325 1.0757,0.38201 1.64515,0.51475 0.54708,0.12752 1.13683,0.1706 1.75863,0.0924 0.59935,-0.0754 1.21412,-0.25961 1.82321,-0.53829 0.56837,-0.26007 1.11176,-0.57649 1.67259,-0.88909 0.91201,-0.50834 1.74789,-0.97085 2.63844,-1.54374 1.00337,-0.64549 2.05489,-1.42542 3.0525,-2.08614 0.7111,-0.47095 1.42257,-0.94673 2.10812,-1.47284 2.16369,-1.66043 4.29996,-3.76443 6.06055,-5.65295 0.56616,-0.60794 1.13526,-1.21364 1.68819,-1.8335 0.76141,-0.85172 1.53055,-1.69846 2.24972,-2.58445 0.67528,-0.83223 1.36277,-1.65639 2.01554,-2.50418 0.74719,-1.00636 1.50114,-2.00895 2.22896,-3.02658 0.62835,-0.86286 1.24228,-1.73391 1.83624,-2.61494 1.09471,-1.61114 2.17938,-3.22725 3.24667,-4.85144 1.08094,-1.63419 2.13951,-3.27857 3.18284,-4.92933 1.04591,-1.6492 2.09184,-3.29837 3.13775,-4.94757 0.89145,-1.48026 1.7712,-2.96486 2.64028,-4.45321 0.61307,-1.04813 1.22614,-2.09626 1.83921,-3.14436 0.68918,-1.28727 1.39296,-2.57108 2.03703,-3.87007 0.34247,-0.6765 0.65493,-1.35958 0.97605,-2.04053 0.4204,-0.90648 0.83855,-1.81387 1.21796,-2.72672 0.269,-0.67639 0.51238,-1.35487 0.75868,-2.03285 0.24867,-0.6898 0.4875,-1.37989 0.71049,-2.07043 0.20176,-0.63852 0.36635,-1.27601 0.49252,-1.9092 0.15813,-0.80903 0.32385,-1.62041 0.41319,-2.41765 0.0866,-0.62389 0.13714,-1.23985 0.1887,-1.85556 0.0501,-0.61097 0.0403,-1.2046 0.0582,-1.80607 -0.002,-0.69482 -0.0366,-1.37789 -0.0715,-2.06043 -0.0315,-0.60972 -0.0885,-1.20925 -0.15865,-1.80289 -0.0677,-0.59594 -0.15428,-1.18362 -0.2639,-1.75978 -0.2004,-1.06733 -0.46418,-2.10157 -0.74115,-3.12754 -0.16178,-0.55471 -0.38732,-1.0694 -0.58143,-1.60383 -0.26185,-0.69254 -0.54367,-1.37248 -0.85835,-2.02877 -0.21858,-0.48154 -0.47873,-0.93262 -0.73103,-1.38893 -0.25909,-0.46969 -0.53795,-0.92409 -0.83277,-1.36473 -0.37305,-0.55475 -0.76075,-1.09671 -1.15254,-1.63513 -0.4472,-0.57828 -0.90667,-1.14564 -1.39643,-1.68355 -0.58353,-0.65716 -1.17332,-1.30831 -1.77766,-1.94473 -1.40413,-1.47571 -2.85681,-2.90172 -4.26415,-4.37408 -1.45762,-1.52495 -2.7268,-2.74122 -4.45273,-3.91502 z"
       id="path27"
       inkscape:connector-curvature="0"
       sodipodi:nodetypes="ssccccccccccccccccccccccccccccccccccsssssssssssssssssssscccccccccccccccccccccccccccccss" />
    <path
       style="fill:#e9c6af;stroke:none;stroke-width:1.16917801;filter:url(#filter4796)"
       d="m 112.16712,138.58862 c 22.78651,0 48.53635,7.20017 48.53635,34.39923 H 63.630728 c 0,-25.28066 25.538859,-34.39923 48.536392,-34.39923 z"
       id="rect4367"
       inkscape:connector-curvature="0"
       sodipodi:nodetypes="cccc"
       transform="matrix(0.37890988,0.3624881,-0.2892007,0.30779871,110.41642,106.63084)" />
    <path
       sodipodi:nodetypes="ssccccccccccccccccccccccccccccccccccsssssssssssssssssssscccccccccccccccccccccccccccccss"
       inkscape:connector-curvature="0"
       id="path41"
       d="m 160.12834,124.81547 c -1.27486,-0.86704 -2.75543,-1.45839 -4.14052,-2.17717 -0.78131,-0.40546 -1.56533,-0.80719 -2.37377,-1.17253 -1.03554,-0.46296 -2.09956,-0.88138 -3.16914,-1.28997 -0.63263,-0.22732 -1.24559,-0.49024 -1.9147,-0.6534 -0.52837,-0.13311 -1.05094,-0.27965 -1.60704,-0.35582 -0.58644,-0.0838 -1.18513,-0.13892 -1.78734,-0.18399 -0.59393,-0.0442 -1.18965,-0.0843 -1.80326,-0.072 -0.62424,-0.003 -1.25422,0.0141 -1.89498,0.0696 -0.60105,0.0392 -1.21205,0.12024 -1.82723,0.22651 -0.66256,0.1058 -1.32781,0.22803 -1.99759,0.3839 -0.65921,0.1512 -1.32052,0.31987 -1.98334,0.51745 -0.64364,0.18851 -1.2886,0.40624 -1.93273,0.63503 -0.83139,0.29309 -1.66073,0.63255 -2.49063,0.9575 -0.69988,0.28922 -1.399,0.58749 -2.0959,0.90474 -0.89175,0.40981 -1.78107,0.83731 -2.66572,1.28974 -0.94017,0.48174 -1.87296,0.99785 -2.80533,1.51372 -0.83135,0.48673 -1.66176,0.9792 -2.47578,1.51824 -0.68642,0.44541 -1.37717,0.88219 -2.04489,1.37284 -0.82329,0.59352 -1.64961,1.18157 -2.46094,1.79923 -0.98463,0.77041 -1.95926,1.5582 -2.92296,2.36329 -0.58166,0.47495 -1.1528,0.96579 -1.72186,1.45975 -1.16773,1.01148 -2.32606,2.03642 -3.48971,3.05374 -3.62928,3.19031 -7.25372,6.38739 -10.878582,9.5839 -1.167889,1.11422 -2.336519,2.2279 -3.48918,3.3598 -1.153027,1.15734 -2.29882,2.32241 -3.449969,3.48177 -0.509588,0.56614 -1.013199,1.13732 -1.510835,1.71357 -0.484402,0.59179 -0.932047,1.20737 -1.379522,1.82234 -0.371638,0.53122 -0.715432,1.07627 -1.035316,1.62954 -0.350596,0.63328 -0.681511,1.27366 -0.959921,1.92316 -0.301005,0.66911 -0.576613,1.34277 -0.819734,2.018 -0.342349,0.91244 -0.620879,1.82702 -0.906681,2.7406 -0.206607,0.82458 -0.425461,1.6508 -0.585144,2.47074 -0.200778,0.9787 -0.303695,1.94088 -0.428301,2.90572 -0.07837,0.67434 -0.07993,1.32807 -0.09487,1.98449 -0.0094,0.65024 0.02818,1.28433 0.07038,1.91563 0.04057,0.6306 0.122817,1.24355 0.2081,1.85483 0.08662,0.62099 0.206784,1.22564 0.343423,1.82126 0.162003,0.7062 0.422135,1.35542 0.686075,1.99876 0.231904,0.56524 0.469592,1.12836 0.773494,1.64149 0.280976,0.47442 0.567466,0.94448 0.877709,1.39497 0.410479,0.59602 0.835656,1.17957 1.307349,1.71981 0.359058,0.41127 0.712424,0.82859 1.090868,1.2206 1.050902,1.08845 2.123939,2.15404 3.199333,3.21713 11.424454,11.29378 9.416414,9.30855 28.373504,27.44463 0.54822,0.52446 3.47995,2.656 4.12764,3.06299 0.52005,0.32677 1.09382,0.58273 1.69052,0.79788 0.53606,0.19325 1.0757,0.38201 1.64515,0.51475 0.54708,0.12752 1.13683,0.1706 1.75863,0.0924 0.59935,-0.0754 1.21412,-0.25961 1.82321,-0.53829 0.56837,-0.26007 1.11176,-0.57649 1.67259,-0.88909 0.91201,-0.50834 1.74789,-0.97085 2.63844,-1.54374 1.00337,-0.64549 2.05489,-1.42542 3.0525,-2.08614 0.7111,-0.47095 1.42257,-0.94673 2.10812,-1.47284 2.16369,-1.66043 4.29996,-3.76443 6.06055,-5.65295 0.56616,-0.60794 1.13526,-1.21364 1.68819,-1.8335 0.76141,-0.85172 1.53055,-1.69846 2.24972,-2.58445 0.67528,-0.83223 1.36277,-1.65639 2.01554,-2.50418 0.74719,-1.00636 1.50114,-2.00895 2.22896,-3.02658 0.62835,-0.86286 1.24228,-1.73391 1.83624,-2.61494 1.09471,-1.61114 2.17938,-3.22725 3.24667,-4.85144 1.08094,-1.63419 2.13951,-3.27857 3.18284,-4.92933 1.04591,-1.6492 2.09184,-3.29837 3.13775,-4.94757 0.89145,-1.48026 1.7712,-2.96486 2.64028,-4.45321 0.61307,-1.04813 1.22614,-2.09626 1.83921,-3.14436 0.68918,-1.28727 1.39296,-2.57108 2.03703,-3.87007 0.34247,-0.6765 0.65493,-1.35958 0.97605,-2.04053 0.4204,-0.90648 0.83855,-1.81387 1.21796,-2.72672 0.269,-0.67639 0.51238,-1.35487 0.75868,-2.03285 0.24867,-0.6898 0.4875,-1.37989 0.71049,-2.07043 0.20176,-0.63852 0.36635,-1.27601 0.49252,-1.9092 0.15813,-0.80903 0.32385,-1.62041 0.41319,-2.41765 0.0866,-0.62389 0.13714,-1.23985 0.1887,-1.85556 0.0501,-0.61097 0.0403,-1.2046 0.0582,-1.80607 -0.002,-0.69482 -0.0366,-1.37789 -0.0715,-2.06043 -0.0315,-0.60972 -0.0885,-1.20925 -0.15865,-1.80289 -0.0677,-0.59594 -0.15428,-1.18362 -0.2639,-1.75978 -0.2004,-1.06733 -0.46418,-2.10157 -0.74115,-3.12754 -0.16178,-0.55471 -0.38732,-1.0694 -0.58143,-1.60383 -0.26185,-0.69254 -0.54367,-1.37248 -0.85835,-2.02877 -0.21858,-0.48154 -0.47873,-0.93262 -0.73103,-1.38893 -0.25909,-0.46969 -0.53795,-0.92409 -0.83277,-1.36473 -0.37305,-0.55475 -0.76075,-1.09671 -1.15254,-1.63513 -0.4472,-0.57828 -0.90667,-1.14564 -1.39643,-1.68355 -0.58353,-0.65716 -1.17332,-1.30831 -1.77766,-1.94473 -1.40413,-1.47571 -2.85681,-2.90172 -4.26415,-4.37408 -1.45762,-1.52495 -2.7268,-2.74122 -4.45273,-3.91502 z"
       style="fill:url(#radialGradient2320);fill-opacity:1;stroke-width:1.48239946" />
  </g>
</svg>
