<?xml version="1.0" encoding="UTF-8" standalone="no"?>
<!-- Created with Inkscape (http://www.inkscape.org/) -->

<svg
   xmlns:dc="http://purl.org/dc/elements/1.1/"
   xmlns:cc="http://creativecommons.org/ns#"
   xmlns:rdf="http://www.w3.org/1999/02/22-rdf-syntax-ns#"
   xmlns:svg="http://www.w3.org/2000/svg"
   xmlns="http://www.w3.org/2000/svg"
   xmlns:xlink="http://www.w3.org/1999/xlink"
   xmlns:sodipodi="http://sodipodi.sourceforge.net/DTD/sodipodi-0.dtd"
   xmlns:inkscape="http://www.inkscape.org/namespaces/inkscape"
   width="200mm"
   height="200mm"
   viewBox="0 0 200 200"
   version="1.1"
   id="svg8"
   sodipodi:docname="qmtn.svg"
   inkscape:version="0.92+devel unknown"
   inkscape:export-filename="/home/vm/vyvoj/wahibresstuff.mtngui/rsc/qmtn.png"
   inkscape:export-xdpi="16.256001"
   inkscape:export-ydpi="16.256001">
  <defs
     id="defs2">
    <linearGradient
       inkscape:collect="always"
       id="linearGradient4319">
      <stop
         style="stop-color:#ffb380;stop-opacity:1"
         offset="0"
         id="stop4315" />
      <stop
         style="stop-color:#ffb380;stop-opacity:0;"
         offset="1"
         id="stop4317" />
    </linearGradient>
    <linearGradient
       inkscape:collect="always"
       id="linearGradient2318">
      <stop
         style="stop-color:#ffffff;stop-opacity:0.67752016"
         offset="0"
         id="stop2314" />
      <stop
         style="stop-color:#ffffff;stop-opacity:0;"
         offset="1"
         id="stop2316" />
    </linearGradient>
    <filter
       style="color-interpolation-filters:sRGB"
       inkscape:label="Roughen"
       id="filter4796">
      <feTurbulence
         type="fractalNoise"
         numOctaves="4"
         seed="22"
         baseFrequency="0.5383 0.3484"
         result="turbulence"
         id="feTurbulence4792" />
      <feDisplacementMap
         in="SourceGraphic"
         in2="turbulence"
         scale="3.5"
         yChannelSelector="G"
         xChannelSelector="R"
         id="feDisplacementMap4794" />
    </filter>
    <radialGradient
       inkscape:collect="always"
       xlink:href="#linearGradient2318"
       id="radialGradient2320"
       cx="111.14258"
       cy="158.43785"
       fx="111.14258"
       fy="158.43785"
       r="47.213631"
       gradientTransform="matrix(0.24971202,0.14289774,-0.445753,0.77894775,155.1552,7.1394757)"
       gradientUnits="userSpaceOnUse" />
    <linearGradient
       inkscape:collect="always"
       xlink:href="#linearGradient4319"
       id="linearGradient4321"
       x1="80.886925"
       y1="229.39597"
       x2="58.577866"
       y2="277.96356"
       gradientUnits="userSpaceOnUse" />
  </defs>
  <sodipodi:namedview
     id="base"
     pagecolor="#ffffff"
     bordercolor="#666666"
     borderopacity="1.0"
     inkscape:pageopacity="0.0"
     inkscape:pageshadow="2"
     inkscape:zoom="0.125"
     inkscape:cx="3855.8636"
     inkscape:cy="2396.639"
     inkscape:document-units="mm"
     inkscape:current-layer="layer1"
     inkscape:document-rotation="0"
     showgrid="false"
     inkscape:window-width="1920"
     inkscape:window-height="969"
     inkscape:window-x="0"
     inkscape:window-y="0"
     inkscape:window-maximized="1" />
  <metadata
     id="metadata5">
    <rdf:RDF>
      <cc:Work
         rdf:about="">
        <dc:format>image/svg+xml</dc:format>
        <dc:type
           rdf:resource="http://purl.org/dc/dcmitype/StillImage" />
        <dc:title />
      </cc:Work>
    </rdf:RDF>
  </metadata>
  <g
     inkscape:label="Vrstva 1"
     inkscape:groupmode="layer"
     id="layer1"
     transform="translate(0,-97)">
    <path
       style="fill:url(#linearGradient4321);fill-opacity:1;stroke:none;stroke-width:0.58948946px;stroke-linecap:butt;stroke-linejoin:miter;stroke-opacity:1"
       d="m 131.63808,119.9454 c -5.36177,-1.91824 -10.8355,-3.78607 -16.68039,-4.0266 -8.58885,-0.34328 -17.564297,3.0502 -24.880018,8.97145 -5.955166,4.80316 -10.895486,10.99863 -15.085895,17.59261 -7.298665,11.26923 -14.486195,22.65454 -20.665987,34.61835 -7.193489,13.7526 -20.746989,47.77368 -27.61246,61.69176 0,35.58779 20.449445,29.65798 34.996369,39.58791 15.169744,10.35507 20.963631,13.06633 46.666611,16.91513 7.40758,-4.80854 13.63918,-15.65495 18.96632,-24.5041 5.88254,-9.77175 9.70009,-20.65763 14.111,-31.17214 3.73557,-8.8143 7.48375,-17.62386 11.16516,-26.45947 3.47502,-8.65526 6.33682,-17.53932 8.52107,-26.53723 1.67116,-6.95109 2.97488,-13.97172 3.73463,-21.00047 0.38557,-3.97853 0.44162,-7.971 -0.11064,-11.81732 -0.93964,-7.1838 -3.65633,-13.93976 -8.11281,-18.9983 -2.59092,-2.98717 -5.77149,-5.30041 -9.14737,-7.19511 -4.52617,-2.64972 -9.27583,-4.88544 -14.06661,-7.00968 -0.59965,-0.21892 -1.19933,-0.43787 -1.79899,-0.6568 z"
       id="path25"
       inkscape:connector-curvature="0"
       sodipodi:nodetypes="caaaccscasscccccccc"
       clip-path="none" />
    <path
       style="fill:#88aa00;fill-opacity:1;stroke-width:1.48239946"
       d="m 132.8918,108.47077 c -1.48729,-0.40618 -3.07965,-0.48482 -4.62307,-0.71498 -0.87062,-0.12984 -1.74259,-0.25527 -2.62585,-0.33835 -1.12975,-0.10169 -2.27198,-0.152 -3.41627,-0.19121 -0.67217,-0.01 -1.33728,-0.0593 -2.02312,0.004 -0.54296,0.0456 -1.0848,0.0767 -1.63551,0.18519 -0.58188,0.11113 -1.16603,0.25337 -1.75025,0.40625 -0.57611,0.15102 -1.15258,0.3065 -1.72896,0.51735 -0.5914,0.19983 -1.1817,0.42053 -1.76973,0.68105 -0.55577,0.23221 -1.10736,0.50723 -1.65472,0.80746 -0.59232,0.31518 -1.18185,0.64677 -1.76474,1.01164 -0.57442,0.35703 -1.14515,0.73126 -1.70792,1.13333 -0.54757,0.38726 -1.0869,0.80259 -1.62186,1.22811 -0.6912,0.54713 -1.36541,1.13746 -2.04486,1.71424 -0.56807,0.50077 -1.13248,1.00986 -1.68864,1.53618 -0.71039,0.67713 -1.41275,1.37019 -2.10259,2.08533 -0.73284,0.76087 -1.447547,1.55187 -2.16193,2.34249 -0.628296,0.73027 -1.25384,1.46567 -1.848761,2.23978 -0.504632,0.64414 -1.016161,1.28152 -1.488418,1.96237 -0.586002,0.82866 -1.176646,1.65313 -1.743499,2.50073 -0.681174,1.04835 -1.347247,2.10989 -1.997365,3.18424 -0.395956,0.63806 -0.776803,1.28774 -1.154669,1.93969 -0.77609,1.33581 -1.53892,2.68129 -2.309255,4.02129 -2.396926,4.19577 -4.787076,8.39637 -7.177811,12.59658 -0.742885,1.43303 -1.486646,2.86578 -2.209389,4.31059 -0.714828,1.46899 -1.420306,2.94294 -2.132703,4.41323 -0.298182,0.70092 -0.589075,1.40466 -0.87267,2.11125 -0.266033,0.717 -0.489576,1.44457 -0.713157,2.1715 -0.179042,0.6231 -0.327258,1.25024 -0.450191,1.8774 -0.126005,0.7128 -0.23109,1.42592 -0.283553,2.13063 -0.06747,0.73059 -0.109437,1.45723 -0.12017,2.17482 -0.02757,0.97416 0.0059,1.92963 0.03219,2.88651 0.07229,0.84699 0.133531,1.6995 0.248699,2.52687 0.127841,0.99087 0.342878,1.93434 0.538265,2.88737 0.144806,0.66326 0.355569,1.28208 0.554551,1.9078 0.202215,0.61807 0.443622,1.20561 0.688492,1.78901 0.243102,0.58327 0.519894,1.13632 0.799014,1.6868 0.283538,0.55923 0.593497,1.09211 0.916108,1.61111 0.382501,0.61535 0.839316,1.14495 1.297825,1.66775 0.402852,0.45933 0.810486,0.91478 1.264518,1.30145 0.419781,0.3575 0.843361,0.70908 1.283054,1.03445 0.581746,0.43047 1.173347,0.84437 1.794882,1.20221 0.473131,0.27242 0.942842,0.55241 1.428055,0.80032 1.347351,0.6883 2.708215,1.3478 4.070498,2.00417 14.472228,6.97297 11.928438,5.7472 35.746678,16.7463 0.68879,0.31806 4.15374,1.38233 4.89848,1.557 0.59796,0.14023 1.22375,0.19604 1.85798,0.20582 0.56976,0.009 1.14146,0.0121 1.72315,-0.0472 0.55885,-0.057 1.13064,-0.20772 1.69337,-0.48356 0.5424,-0.2659 1.06407,-0.63972 1.54969,-1.10105 0.45315,-0.43051 0.86437,-0.90621 1.29334,-1.38395 0.69757,-0.7769 1.33801,-1.48573 1.99433,-2.31671 0.73945,-0.93628 1.4808,-2.01534 2.20986,-2.96416 0.51969,-0.6763 1.03815,-1.35729 1.51576,-2.07747 1.50741,-2.27295 2.84488,-4.95654 3.89698,-7.31435 0.33812,-0.75882 0.67975,-1.51647 1.00148,-2.28227 0.44365,-1.05278 0.89623,-2.10336 1.2888,-3.17484 0.36851,-1.00638 0.75119,-2.0091 1.09335,-3.02289 0.38,-1.19443 0.76761,-2.38749 1.12562,-3.58629 0.31418,-1.02012 0.61206,-2.0433 0.88781,-3.06944 0.51234,-1.87927 1.01357,-3.75999 1.49574,-5.6427 0.49184,-1.89661 0.9592,-3.79559 1.41008,-5.69565 0.45383,-1.89943 0.90769,-3.79884 1.36152,-5.69827 0.36258,-1.68949 0.71269,-3.37929 1.05148,-5.06917 0.23958,-1.1904 0.47916,-2.38079 0.71874,-3.57115 0.23393,-1.44129 0.48279,-2.88405 0.67024,-4.32177 0.10429,-0.75104 0.17806,-1.49857 0.2607,-2.24688 0.10334,-0.99387 0.20424,-1.98786 0.26674,-2.97444 0.0348,-0.72709 0.0447,-1.44783 0.0576,-2.16905 0.0113,-0.73316 0.0131,-1.46341 -1.8e-4,-2.18894 -0.0165,-0.66944 -0.0678,-1.32583 -0.154,-1.96568 -0.11309,-0.81655 -0.21977,-1.63778 -0.3941,-2.42084 -0.12064,-0.61821 -0.27282,-1.21721 -0.42394,-1.81631 -0.15097,-0.59414 -0.35297,-1.15243 -0.53131,-1.72713 -0.22747,-0.65653 -0.48196,-1.29137 -0.73657,-1.92561 -0.22774,-0.56646 -0.47629,-1.11501 -0.73537,-1.65372 -0.25751,-0.54168 -0.5302,-1.06942 -0.82094,-1.57878 -0.53606,-0.94445 -1.12133,-1.83703 -1.71638,-2.7175 -0.33311,-0.47214 -0.71353,-0.88573 -1.07063,-1.32819 -0.47251,-0.57001 -0.95981,-1.12163 -1.47051,-1.6402 -0.36308,-0.38449 -0.75559,-0.72668 -1.14236,-1.07636 -0.39755,-0.36013 -0.80883,-0.69938 -1.23073,-1.02044 -0.53295,-0.40359 -1.0756,-0.79032 -1.62097,-1.17238 -0.61072,-0.40176 -1.2295,-0.78922 -1.86737,-1.13899 -0.76527,-0.43211 -1.53451,-0.85651 -2.31274,-1.26225 -1.80717,-0.93991 -3.64413,-1.81705 -5.45325,-2.75275 -1.87375,-0.96912 -3.46905,-1.70746 -5.48257,-2.25733 z"
       id="path27"
       inkscape:connector-curvature="0"
       sodipodi:nodetypes="ssccccccccccccccccccccccccccccccccccsssssssssssssssssssscccccccccccccccccccccccccccccss" />
    <path
       style="fill:#e9c6af;stroke:none;stroke-width:1.16917801;filter:url(#filter4796)"
       d="m 112.16712,138.58862 c 22.78651,0 48.53635,7.20017 48.53635,34.39923 H 63.630728 c 0,-25.28066 25.538859,-34.39923 48.536392,-34.39923 z"
       id="rect4367"
       inkscape:connector-curvature="0"
       sodipodi:nodetypes="cccc"
       transform="matrix(0.47606964,0.21983635,-0.17360567,0.3850171,79.96892,107.41057)" />
    <path
       sodipodi:nodetypes="ssccccccccccccccccccccccccccccccccccsssssssssssssssssssscccccccccccccccccccccccccccccss"
       inkscape:connector-curvature="0"
       id="path41"
       d="m 132.8918,108.47077 c -1.48729,-0.40618 -3.07965,-0.48482 -4.62307,-0.71498 -0.87062,-0.12984 -1.74259,-0.25527 -2.62585,-0.33835 -1.12975,-0.10169 -2.27198,-0.152 -3.41627,-0.19121 -0.67217,-0.01 -1.33728,-0.0593 -2.02312,0.004 -0.54296,0.0456 -1.0848,0.0767 -1.63551,0.18519 -0.58188,0.11113 -1.16603,0.25337 -1.75025,0.40625 -0.57611,0.15102 -1.15258,0.3065 -1.72896,0.51735 -0.5914,0.19983 -1.1817,0.42053 -1.76973,0.68105 -0.55577,0.23221 -1.10736,0.50723 -1.65472,0.80746 -0.59232,0.31518 -1.18185,0.64677 -1.76474,1.01164 -0.57442,0.35703 -1.14515,0.73126 -1.70792,1.13333 -0.54757,0.38726 -1.0869,0.80259 -1.62186,1.22811 -0.6912,0.54713 -1.36541,1.13746 -2.04486,1.71424 -0.56807,0.50077 -1.13248,1.00986 -1.68864,1.53618 -0.71039,0.67713 -1.41275,1.37019 -2.10259,2.08533 -0.73284,0.76087 -1.447547,1.55187 -2.16193,2.34249 -0.628296,0.73027 -1.25384,1.46567 -1.848761,2.23978 -0.504632,0.64414 -1.016161,1.28152 -1.488418,1.96237 -0.586002,0.82866 -1.176646,1.65313 -1.743499,2.50073 -0.681174,1.04835 -1.347247,2.10989 -1.997365,3.18424 -0.395956,0.63806 -0.776803,1.28774 -1.154669,1.93969 -0.77609,1.33581 -1.53892,2.68129 -2.309255,4.02129 -2.396926,4.19577 -4.787076,8.39637 -7.177811,12.59658 -0.742885,1.43303 -1.486646,2.86578 -2.209389,4.31059 -0.714828,1.46899 -1.420306,2.94294 -2.132703,4.41323 -0.298182,0.70092 -0.589075,1.40466 -0.87267,2.11125 -0.266033,0.717 -0.489576,1.44457 -0.713157,2.1715 -0.179042,0.6231 -0.327258,1.25024 -0.450191,1.8774 -0.126005,0.7128 -0.23109,1.42592 -0.283553,2.13063 -0.06747,0.73059 -0.109437,1.45723 -0.12017,2.17482 -0.02757,0.97416 0.0059,1.92963 0.03219,2.88651 0.07229,0.84699 0.133531,1.6995 0.248699,2.52687 0.127841,0.99087 0.342878,1.93434 0.538265,2.88737 0.144806,0.66326 0.355569,1.28208 0.554551,1.9078 0.202215,0.61807 0.443622,1.20561 0.688492,1.78901 0.243102,0.58327 0.519894,1.13632 0.799014,1.6868 0.283538,0.55923 0.593497,1.09211 0.916108,1.61111 0.382501,0.61535 0.839316,1.14495 1.297825,1.66775 0.402852,0.45933 0.810486,0.91478 1.264518,1.30145 0.419781,0.3575 0.843361,0.70908 1.283054,1.03445 0.581746,0.43047 1.173347,0.84437 1.794882,1.20221 0.473131,0.27242 0.942842,0.55241 1.428055,0.80032 1.347351,0.6883 2.708215,1.3478 4.070498,2.00417 14.472228,6.97297 11.928438,5.7472 35.746678,16.7463 0.68879,0.31806 4.15374,1.38233 4.89848,1.557 0.59796,0.14023 1.22375,0.19604 1.85798,0.20582 0.56976,0.009 1.14146,0.0121 1.72315,-0.0472 0.55885,-0.057 1.13064,-0.20772 1.69337,-0.48356 0.5424,-0.2659 1.06407,-0.63972 1.54969,-1.10105 0.45315,-0.43051 0.86437,-0.90621 1.29334,-1.38395 0.69757,-0.7769 1.33801,-1.48573 1.99433,-2.31671 0.73945,-0.93628 1.4808,-2.01534 2.20986,-2.96416 0.51969,-0.6763 1.03815,-1.35729 1.51576,-2.07747 1.50741,-2.27295 2.84488,-4.95654 3.89698,-7.31435 0.33812,-0.75882 0.67975,-1.51647 1.00148,-2.28227 0.44365,-1.05278 0.89623,-2.10336 1.2888,-3.17484 0.36851,-1.00638 0.75119,-2.0091 1.09335,-3.02289 0.38,-1.19443 0.76761,-2.38749 1.12562,-3.58629 0.31418,-1.02012 0.61206,-2.0433 0.88781,-3.06944 0.51234,-1.87927 1.01357,-3.75999 1.49574,-5.6427 0.49184,-1.89661 0.9592,-3.79559 1.41008,-5.69565 0.45383,-1.89943 0.90769,-3.79884 1.36152,-5.69827 0.36258,-1.68949 0.71269,-3.37929 1.05148,-5.06917 0.23958,-1.1904 0.47916,-2.38079 0.71874,-3.57115 0.23393,-1.44129 0.48279,-2.88405 0.67024,-4.32177 0.10429,-0.75104 0.17806,-1.49857 0.2607,-2.24688 0.10334,-0.99387 0.20424,-1.98786 0.26674,-2.97444 0.0348,-0.72709 0.0447,-1.44783 0.0576,-2.16905 0.0113,-0.73316 0.0131,-1.46341 -1.8e-4,-2.18894 -0.0165,-0.66944 -0.0678,-1.32583 -0.154,-1.96568 -0.11309,-0.81655 -0.21977,-1.63778 -0.3941,-2.42084 -0.12064,-0.61821 -0.27282,-1.21721 -0.42394,-1.81631 -0.15097,-0.59414 -0.35297,-1.15243 -0.53131,-1.72713 -0.22747,-0.65653 -0.48196,-1.29137 -0.73657,-1.92561 -0.22774,-0.56646 -0.47629,-1.11501 -0.73537,-1.65372 -0.25751,-0.54168 -0.5302,-1.06942 -0.82094,-1.57878 -0.53606,-0.94445 -1.12133,-1.83703 -1.71638,-2.7175 -0.33311,-0.47214 -0.71353,-0.88573 -1.07063,-1.32819 -0.47251,-0.57001 -0.95981,-1.12163 -1.47051,-1.6402 -0.36308,-0.38449 -0.75559,-0.72668 -1.14236,-1.07636 -0.39755,-0.36013 -0.80883,-0.69938 -1.23073,-1.02044 -0.53295,-0.40359 -1.0756,-0.79032 -1.62097,-1.17238 -0.61072,-0.40176 -1.2295,-0.78922 -1.86737,-1.13899 -0.76527,-0.43211 -1.53451,-0.85651 -2.31274,-1.26225 -1.80717,-0.93991 -3.64413,-1.81705 -5.45325,-2.75275 -1.87375,-0.96912 -3.46905,-1.70746 -5.48257,-2.25733 z"
       style="fill:url(#radialGradient2320);fill-opacity:1;stroke-width:1.48239946" />
  </g>
</svg>
