<?xml version="1.0" encoding="UTF-8" standalone="no"?>
<!-- Created with Inkscape (http://www.inkscape.org/) -->

<svg
   xmlns:dc="http://purl.org/dc/elements/1.1/"
   xmlns:cc="http://creativecommons.org/ns#"
   xmlns:rdf="http://www.w3.org/1999/02/22-rdf-syntax-ns#"
   xmlns:svg="http://www.w3.org/2000/svg"
   xmlns="http://www.w3.org/2000/svg"
   xmlns:sodipodi="http://sodipodi.sourceforge.net/DTD/sodipodi-0.dtd"
   xmlns:inkscape="http://www.inkscape.org/namespaces/inkscape"
   width="210mm"
   height="297mm"
   viewBox="0 0 210 297"
   version="1.1"
   id="svg8"
   sodipodi:docname="qmtn.svg"
   inkscape:version="0.92+devel unknown"
   inkscape:export-filename="/home/vm/Desktop/thumb.png"
   inkscape:export-xdpi="6.7805319"
   inkscape:export-ydpi="6.7805319">
  <defs
     id="defs2">
    <filter
       style="color-interpolation-filters:sRGB;"
       inkscape:label="Roughen"
       id="filter4796">
      <feTurbulence
         type="fractalNoise"
         numOctaves="4"
         seed="22"
         baseFrequency="0.5383 0.3484"
         result="turbulence"
         id="feTurbulence4792" />
      <feDisplacementMap
         in="SourceGraphic"
         in2="turbulence"
         scale="3.5"
         yChannelSelector="G"
         xChannelSelector="R"
         id="feDisplacementMap4794" />
    </filter>
  </defs>
  <sodipodi:namedview
     id="base"
     pagecolor="#ffffff"
     bordercolor="#666666"
     borderopacity="1.0"
     inkscape:pageopacity="0.0"
     inkscape:pageshadow="2"
     inkscape:zoom="0.5"
     inkscape:cx="-54.469216"
     inkscape:cy="536.76588"
     inkscape:document-units="mm"
     inkscape:current-layer="layer1"
     inkscape:document-rotation="0"
     showgrid="false"
     inkscape:window-width="1920"
     inkscape:window-height="967"
     inkscape:window-x="0"
     inkscape:window-y="0"
     inkscape:window-maximized="1" />
  <metadata
     id="metadata5">
    <rdf:RDF>
      <cc:Work
         rdf:about="">
        <dc:format>image/svg+xml</dc:format>
        <dc:type
           rdf:resource="http://purl.org/dc/dcmitype/StillImage" />
      </cc:Work>
    </rdf:RDF>
  </metadata>
  <g
     inkscape:label="Vrstva 1"
     inkscape:groupmode="layer"
     id="layer1">
    <g
       id="g4801"
       transform="matrix(1,0,0,0.89999196,-0.52709961,12.862877)"
       inkscape:export-xdpi="14.220222"
       inkscape:export-ydpi="14.220222"
       inkscape:export-filename="/home/vm/vyvoj/wahibresstuff.mtngui/rsc/qmtn.png">
      <path
         clip-path="none"
         sodipodi:nodetypes="caaaccccccasscccccccc"
         inkscape:connector-curvature="0"
         id="path25"
         d="m 96.607999,17.7396 c -9.558387,0.762799 -19.252328,1.681833 -28.361126,5.383708 -13.37785,5.45556 -24.699882,16.976606 -31.693175,31.261291 -5.704628,11.601898 -8.871041,24.655816 -10.608325,37.805027 -3.178838,22.567904 -6.105508,45.238354 -7.081265,68.103544 -1.258868,26.34643 -1.87503,52.72663 -2.515043,79.10106 -0.237162,10.02474 -0.462379,20.04988 -0.651423,30.07602 0.01899,1.20389 1.006366,2.22113 2.038122,2.00855 3.162099,0.18777 6.324693,-0.14269 9.484267,-0.26924 84.697759,-1.3757 82.461949,-15.41971 167.716729,-12.40703 1.49866,-0.45081 2.06702,-2.47129 1.95751,-4.09435 0.27008,-19.39654 0.2008,-38.80421 -0.5019,-58.1882 -0.53108,-16.276 -1.03952,-32.55342 -1.66854,-48.82471 -0.81688,-15.84766 -2.73363,-31.62268 -5.76716,-47.10191 -2.36829,-11.94674 -5.34777,-23.745187 -9.16484,-35.176965 -2.22864,-6.439813 -4.97107,-12.671489 -8.54025,-18.252385 -6.52574,-10.487489 -15.466,-19.07244 -25.86448,-23.811627 -6.07825,-2.826978 -12.58084,-4.197545 -19.08562,-4.782739 -8.79872,-0.954344 -17.64594,-1.110728 -26.477085,-1.065526 -1.07212,0.07849 -2.144275,0.156977 -3.216396,0.235466 z"
         style="fill:#ffb380;fill-opacity:1;stroke:none;stroke-width:0.99794006px;stroke-linecap:butt;stroke-linejoin:miter;stroke-opacity:1" />
      <path
         sodipodi:nodetypes="ssccccccccccccccccccccccccccccccccccsssssssssssssssssssscccccccccccccccccccccccccccccss"
         inkscape:connector-curvature="0"
         id="path27"
         d="m 92.914078,27.886517 c -2.89297,0.400755 -5.712125,1.338513 -8.564858,2.027646 -1.609161,0.388718 -3.217243,0.784625 -4.811817,1.248441 -2.035967,0.599802 -4.053439,1.281213 -6.065812,1.97982 -1.171579,0.42951 -2.362263,0.797191 -3.500907,1.339316 -0.904714,0.423237 -1.818831,0.824905 -2.687851,1.343012 -0.921035,0.542371 -1.821567,1.130778 -2.713972,1.734384 -0.879795,0.59556 -1.75678,1.197749 -2.590314,1.878955 -0.867367,0.676088 -1.71817,1.379829 -2.533188,2.139606 -0.781216,0.698079 -1.521678,1.454608 -2.235157,2.244351 -0.779693,0.84071 -1.541743,1.703021 -2.266292,2.608471 -0.716,0.888675 -1.41218,1.799484 -2.072849,2.744796 -0.645924,0.914137 -1.255637,1.862934 -1.84981,2.823395 -0.769818,1.237157 -1.47645,2.52481 -2.202743,3.796569 -0.592762,1.089773 -1.17271,2.189017 -1.724877,3.307389 -0.701543,1.435459 -1.37669,2.888405 -2.012978,4.364611 -0.674992,1.569869 -1.295079,3.170781 -1.914881,4.770992 -0.517844,1.457213 -1.026945,2.919953 -1.452734,4.417773 -0.370961,1.252679 -0.759128,2.500236 -1.045316,3.783991 -0.367778,1.569836 -0.746866,3.136761 -1.066673,4.721033 -0.361047,1.946336 -0.685623,3.901557 -0.972592,5.864541 -0.187473,1.172323 -0.339708,2.351271 -0.484995,3.531517 -0.300955,2.419446 -0.571385,4.843954 -0.859086,7.265591 -0.874646,7.572623 -1.733791,15.147663 -2.594272,22.722493 -0.167498,2.53642 -0.336754,5.07299 -0.460185,7.61293 -0.09084,2.56925 -0.161625,5.13941 -0.247256,7.7089 0.03095,1.19762 0.07673,2.39447 0.13736,3.59056 0.09917,1.19938 0.280172,2.38582 0.460632,3.57139 0.176501,1.00791 0.409542,2.00126 0.6864,2.97797 0.338407,1.10105 0.713292,2.18876 1.172721,3.22971 0.453672,1.08784 0.94844,2.15325 1.490215,3.18511 0.712972,1.40938 1.517081,2.75178 2.309822,4.10095 0.786624,1.16192 1.558409,2.339 2.403951,3.4446 0.995176,1.33076 2.104355,2.53631 3.186969,3.76849 0.768711,0.85169 1.616965,1.59644 2.450178,2.35879 0.83283,0.74934 1.709762,1.42917 2.589402,2.10085 0.876497,0.67264 1.787741,1.27992 2.700997,1.88199 0.927765,0.61164 1.880688,1.16825 2.844696,1.69668 1.142956,0.62653 2.347668,1.0816 3.549999,1.52584 1.056373,0.39031 2.117993,0.77191 3.206268,1.0247 1.006162,0.2337 2.014294,0.45647 3.029863,0.63116 1.343654,0.23112 2.691448,0.43208 4.047291,0.53323 1.032133,0.077 2.064251,0.16714 3.098167,0.2012 2.870916,0.0945 5.742737,0.13884 8.614579,0.17782 30.509037,0.41426 25.146357,0.34126 74.985377,0.34192 1.44126,1e-5 8.27315,-0.76508 9.69933,-1.00678 1.14509,-0.19407 2.27246,-0.52703 3.37848,-0.93134 0.99359,-0.36321 1.98627,-0.73546 2.94737,-1.2038 0.92333,-0.44994 1.79588,-1.04224 2.55506,-1.80727 0.73174,-0.73738 1.34325,-1.61528 1.82401,-2.59434 0.44862,-0.91363 0.78935,-1.86417 1.15916,-2.82931 0.60142,-1.56949 1.15705,-3.0041 1.64477,-4.62364 0.54951,-1.82473 0.99078,-3.85462 1.51247,-5.69038 0.37189,-1.30854 0.73801,-2.62297 1.00278,-3.9664 0.83566,-4.24004 1.05636,-8.95447 1.03723,-13.01544 -0.007,-1.30663 -0.007,-2.61391 -0.0478,-3.9197 -0.0538,-1.79604 -0.0904,-3.59483 -0.24723,-5.38387 -0.14769,-1.68022 -0.26796,-3.36456 -0.46704,-5.03798 -0.27465,-1.95636 -0.53502,-3.91575 -0.85114,-5.86383 -0.25249,-1.66402 -0.53562,-3.32165 -0.85936,-4.96892 -0.58024,-3.02164 -1.18082,-6.038 -1.81599,-9.04466 -0.62927,-3.03286 -1.30278,-6.053003 -2.00569,-9.063805 -0.69728,-3.01183 -1.39453,-6.023659 -2.09181,-9.035489 -0.6914,-2.65187 -1.40462,-5.295933 -2.13752,-7.932663 -0.51466,-1.857967 -1.02932,-3.715935 -1.54395,-5.573898 -0.72038,-2.212543 -1.41605,-4.437041 -2.21415,-6.613868 -0.40586,-1.141333 -0.86183,-2.257503 -1.30306,-3.380653 -0.59716,-1.487494 -1.19861,-2.973539 -1.8608,-4.423677 -0.50748,-1.061309 -1.05309,-2.097143 -1.59406,-3.135577 -0.55306,-1.054447 -1.12009,-2.098535 -1.70965,-3.125902 -0.55127,-0.945152 -1.15269,-1.848719 -1.80172,-2.705621 -0.83348,-1.091522 -1.65954,-2.19395 -2.57296,-3.197259 -0.69161,-0.803369 -1.42301,-1.558392 -2.15257,-2.314279 -0.72538,-0.74898 -1.51121,-1.413034 -2.26894,-2.116084 -0.90585,-0.788179 -1.84297,-1.526464 -2.77935,-2.264196 -0.83668,-0.658835 -1.69562,-1.278236 -2.56497,-1.876708 -0.86893,-0.603782 -1.75333,-1.177597 -2.65461,-1.713265 -1.66591,-0.995259 -3.37651,-1.883999 -5.09464,-2.748964 -0.94559,-0.4546 -1.9274,-0.794369 -2.89135,-1.190744 -1.26346,-0.502438 -2.53814,-0.96885 -3.82756,-1.372635 -0.92906,-0.309656 -1.87602,-0.539484 -2.81894,-0.783802 -0.96972,-0.25213 -1.94692,-0.465405 -2.92831,-0.645663 -1.23814,-0.224903 -2.47994,-0.419348 -3.72279,-0.605301 -1.37143,-0.171021 -2.74563,-0.316288 -4.12345,-0.395146 -1.66278,-0.112431 -3.32643,-0.211227 -4.99104,-0.277474 -3.86374,-0.150508 -7.73004,-0.191779 -11.59389,-0.335 -4.00184,-0.148338 -7.341247,-0.150713 -11.257772,0.39183 z"
         style="fill:#e9c6af;fill-opacity:1;stroke-width:2.56254458" />
      <path
         transform="matrix(0.99615545,0,0,1.0751235,0.43123164,-10.383278)"
         sodipodi:nodetypes="cccc"
         inkscape:connector-curvature="0"
         id="rect4367"
         d="m 112.16712,138.58862 c 22.78651,0 48.53635,7.20017 48.53635,34.39923 H 63.630728 c 0,-25.28066 25.538859,-34.39923 48.536392,-34.39923 z"
         style="fill:#ffe6d5;stroke:none;stroke-width:1.16917801;filter:url(#filter4796)" />
    </g>
  </g>
</svg>
